<svg width="1163" height="91" viewBox="0 0 1163 91" fill="none" xmlns="http://www.w3.org/2000/svg">
<line y1="14" x2="1163" y2="14" stroke="#313549" stroke-width="2"/>
<path d="M1103.06 37.0469V37.5859C1103.06 38.4505 1102.95 39.2266 1102.71 39.9141C1102.48 40.6016 1102.15 41.1875 1101.72 41.6719C1101.29 42.151 1100.78 42.5182 1100.19 42.7734C1099.6 43.0286 1098.95 43.1562 1098.23 43.1562C1097.51 43.1562 1096.86 43.0286 1096.27 42.7734C1095.68 42.5182 1095.17 42.151 1094.73 41.6719C1094.3 41.1875 1093.97 40.6016 1093.73 39.9141C1093.49 39.2266 1093.38 38.4505 1093.38 37.5859V37.0469C1093.38 36.1771 1093.49 35.401 1093.73 34.7188C1093.96 34.0312 1094.29 33.4453 1094.72 32.9609C1095.15 32.4766 1095.66 32.1068 1096.25 31.8516C1096.84 31.5964 1097.5 31.4688 1098.21 31.4688C1098.93 31.4688 1099.58 31.5964 1100.17 31.8516C1100.77 32.1068 1101.28 32.4766 1101.7 32.9609C1102.14 33.4453 1102.47 34.0312 1102.7 34.7188C1102.94 35.401 1103.06 36.1771 1103.06 37.0469ZM1100.7 37.5859V37.0312C1100.7 36.4271 1100.64 35.8958 1100.53 35.4375C1100.42 34.9792 1100.26 34.5938 1100.05 34.2812C1099.83 33.9688 1099.57 33.7344 1099.27 33.5781C1098.96 33.4167 1098.61 33.3359 1098.21 33.3359C1097.82 33.3359 1097.46 33.4167 1097.16 33.5781C1096.85 33.7344 1096.6 33.9688 1096.38 34.2812C1096.17 34.5938 1096.02 34.9792 1095.91 35.4375C1095.8 35.8958 1095.74 36.4271 1095.74 37.0312V37.5859C1095.74 38.1849 1095.8 38.7161 1095.91 39.1797C1096.02 39.638 1096.18 40.026 1096.39 40.3438C1096.6 40.6562 1096.86 40.8932 1097.17 41.0547C1097.48 41.2161 1097.83 41.2969 1098.23 41.2969C1098.62 41.2969 1098.97 41.2161 1099.28 41.0547C1099.59 40.8932 1099.85 40.6562 1100.05 40.3438C1100.26 40.026 1100.42 39.638 1100.53 39.1797C1100.64 38.7161 1100.7 38.1849 1100.7 37.5859ZM1108.1 41.3984C1108.38 41.3984 1108.62 41.3464 1108.84 41.2422C1109.05 41.1328 1109.22 40.9818 1109.34 40.7891C1109.46 40.5911 1109.53 40.3594 1109.53 40.0938H1111.65C1111.64 40.6875 1111.48 41.2161 1111.17 41.6797C1110.86 42.138 1110.44 42.5 1109.91 42.7656C1109.39 43.026 1108.8 43.1562 1108.15 43.1562C1107.49 43.1562 1106.92 43.0469 1106.43 42.8281C1105.95 42.6094 1105.54 42.3073 1105.22 41.9219C1104.9 41.5312 1104.65 41.0781 1104.49 40.5625C1104.33 40.0417 1104.25 39.4844 1104.25 38.8906V38.6641C1104.25 38.0651 1104.33 37.5078 1104.49 36.9922C1104.65 36.4714 1104.9 36.0182 1105.22 35.6328C1105.54 35.2422 1105.95 34.9375 1106.43 34.7188C1106.91 34.5 1107.48 34.3906 1108.13 34.3906C1108.83 34.3906 1109.43 34.5234 1109.95 34.7891C1110.48 35.0547 1110.89 35.4349 1111.19 35.9297C1111.49 36.4193 1111.64 37 1111.65 37.6719H1109.53C1109.53 37.3906 1109.47 37.1354 1109.35 36.9062C1109.24 36.6771 1109.08 36.4948 1108.87 36.3594C1108.66 36.2188 1108.4 36.1484 1108.09 36.1484C1107.77 36.1484 1107.5 36.2188 1107.29 36.3594C1107.08 36.4948 1106.92 36.6823 1106.8 36.9219C1106.69 37.1562 1106.61 37.4245 1106.56 37.7266C1106.52 38.0234 1106.5 38.3359 1106.5 38.6641V38.8906C1106.5 39.2188 1106.52 39.5339 1106.56 39.8359C1106.6 40.138 1106.68 40.4062 1106.8 40.6406C1106.92 40.875 1107.08 41.0599 1107.29 41.1953C1107.5 41.3307 1107.77 41.3984 1108.1 41.3984ZM1117.09 34.5469V36.1406H1112.17V34.5469H1117.09ZM1113.39 32.4609H1115.64V40.4531C1115.64 40.6979 1115.67 40.8854 1115.73 41.0156C1115.8 41.1458 1115.9 41.237 1116.03 41.2891C1116.16 41.3359 1116.33 41.3594 1116.52 41.3594C1116.66 41.3594 1116.79 41.3542 1116.9 41.3438C1117.01 41.3281 1117.11 41.3125 1117.19 41.2969L1117.2 42.9531C1117 43.0156 1116.79 43.0651 1116.57 43.1016C1116.35 43.138 1116.1 43.1562 1115.83 43.1562C1115.33 43.1562 1114.9 43.0755 1114.53 42.9141C1114.17 42.7474 1113.89 42.4818 1113.69 42.1172C1113.49 41.7526 1113.39 41.2734 1113.39 40.6797V32.4609ZM1117.81 38.8594V38.6953C1117.81 38.0755 1117.9 37.5052 1118.08 36.9844C1118.26 36.4583 1118.51 36.0026 1118.85 35.6172C1119.19 35.2318 1119.61 34.9323 1120.1 34.7188C1120.6 34.5 1121.16 34.3906 1121.8 34.3906C1122.45 34.3906 1123.02 34.5 1123.52 34.7188C1124.02 34.9323 1124.43 35.2318 1124.77 35.6172C1125.12 36.0026 1125.38 36.4583 1125.55 36.9844C1125.73 37.5052 1125.82 38.0755 1125.82 38.6953V38.8594C1125.82 39.474 1125.73 40.0443 1125.55 40.5703C1125.38 41.0911 1125.12 41.5469 1124.77 41.9375C1124.43 42.3229 1124.02 42.6224 1123.52 42.8359C1123.03 43.0495 1122.46 43.1562 1121.82 43.1562C1121.18 43.1562 1120.61 43.0495 1120.11 42.8359C1119.61 42.6224 1119.2 42.3229 1118.85 41.9375C1118.51 41.5469 1118.26 41.0911 1118.08 40.5703C1117.9 40.0443 1117.81 39.474 1117.81 38.8594ZM1120.06 38.6953V38.8594C1120.06 39.2135 1120.09 39.5443 1120.16 39.8516C1120.22 40.1589 1120.32 40.4297 1120.45 40.6641C1120.59 40.8932 1120.78 41.0729 1121 41.2031C1121.22 41.3333 1121.5 41.3984 1121.82 41.3984C1122.13 41.3984 1122.4 41.3333 1122.62 41.2031C1122.85 41.0729 1123.03 40.8932 1123.16 40.6641C1123.3 40.4297 1123.4 40.1589 1123.46 39.8516C1123.53 39.5443 1123.56 39.2135 1123.56 38.8594V38.6953C1123.56 38.3516 1123.53 38.0286 1123.46 37.7266C1123.4 37.4193 1123.3 37.1484 1123.16 36.9141C1123.02 36.6745 1122.84 36.487 1122.62 36.3516C1122.39 36.2161 1122.12 36.1484 1121.8 36.1484C1121.49 36.1484 1121.22 36.2161 1120.99 36.3516C1120.77 36.487 1120.59 36.6745 1120.45 36.9141C1120.32 37.1484 1120.22 37.4193 1120.16 37.7266C1120.09 38.0286 1120.06 38.3516 1120.06 38.6953ZM1127.2 31H1129.45V41.0625L1129.23 43H1127.2V31ZM1134.8 38.6875V38.8516C1134.8 39.4818 1134.74 40.0599 1134.6 40.5859C1134.47 41.112 1134.27 41.5677 1133.99 41.9531C1133.72 42.3333 1133.37 42.6302 1132.96 42.8438C1132.55 43.0521 1132.08 43.1562 1131.52 43.1562C1131.01 43.1562 1130.56 43.0521 1130.18 42.8438C1129.8 42.6354 1129.49 42.3411 1129.23 41.9609C1128.98 41.5807 1128.77 41.1354 1128.62 40.625C1128.46 40.1146 1128.34 39.5573 1128.27 38.9531V38.5938C1128.34 37.9896 1128.46 37.4323 1128.62 36.9219C1128.77 36.4115 1128.98 35.9661 1129.23 35.5859C1129.49 35.2057 1129.8 34.9115 1130.18 34.7031C1130.55 34.4948 1131 34.3906 1131.51 34.3906C1132.07 34.3906 1132.55 34.4974 1132.96 34.7109C1133.38 34.9193 1133.72 35.2161 1133.99 35.6016C1134.27 35.9818 1134.47 36.4349 1134.6 36.9609C1134.74 37.4818 1134.8 38.0573 1134.8 38.6875ZM1132.55 38.8516V38.6875C1132.55 38.3438 1132.53 38.0208 1132.48 37.7188C1132.43 37.4115 1132.35 37.1432 1132.23 36.9141C1132.11 36.6797 1131.94 36.4948 1131.73 36.3594C1131.53 36.224 1131.27 36.1562 1130.95 36.1562C1130.64 36.1562 1130.38 36.2083 1130.16 36.3125C1129.95 36.4167 1129.77 36.5625 1129.63 36.75C1129.5 36.9375 1129.4 37.1615 1129.33 37.4219C1129.26 37.6771 1129.22 37.9583 1129.2 38.2656V39.2891C1129.22 39.7005 1129.29 40.0651 1129.41 40.3828C1129.53 40.6953 1129.72 40.9427 1129.97 41.125C1130.22 41.3021 1130.55 41.3906 1130.96 41.3906C1131.28 41.3906 1131.54 41.3281 1131.75 41.2031C1131.96 41.0781 1132.12 40.901 1132.23 40.6719C1132.35 40.4427 1132.44 40.1745 1132.48 39.8672C1132.53 39.5547 1132.55 39.2161 1132.55 38.8516ZM1140.09 43.1562C1139.44 43.1562 1138.85 43.0521 1138.33 42.8438C1137.81 42.6302 1137.36 42.3359 1137 41.9609C1136.64 41.5859 1136.36 41.151 1136.17 40.6562C1135.98 40.1562 1135.88 39.625 1135.88 39.0625V38.75C1135.88 38.1094 1135.97 37.5234 1136.16 36.9922C1136.34 36.4609 1136.6 36 1136.94 35.6094C1137.28 35.2188 1137.7 34.9193 1138.19 34.7109C1138.68 34.4974 1139.23 34.3906 1139.84 34.3906C1140.44 34.3906 1140.97 34.4896 1141.44 34.6875C1141.9 34.8854 1142.29 35.1667 1142.6 35.5312C1142.92 35.8958 1143.16 36.3333 1143.32 36.8438C1143.48 37.349 1143.56 37.9115 1143.56 38.5312V39.4688H1136.84V37.9688H1141.35V37.7969C1141.35 37.4844 1141.29 37.2057 1141.18 36.9609C1141.07 36.7109 1140.9 36.513 1140.68 36.3672C1140.46 36.2214 1140.17 36.1484 1139.82 36.1484C1139.52 36.1484 1139.27 36.2135 1139.05 36.3438C1138.84 36.474 1138.67 36.6562 1138.53 36.8906C1138.4 37.125 1138.3 37.401 1138.23 37.7188C1138.17 38.0312 1138.14 38.375 1138.14 38.75V39.0625C1138.14 39.401 1138.19 39.7135 1138.28 40C1138.38 40.2865 1138.52 40.5339 1138.7 40.7422C1138.88 40.9505 1139.1 41.112 1139.35 41.2266C1139.61 41.3411 1139.91 41.3984 1140.23 41.3984C1140.64 41.3984 1141.02 41.3203 1141.37 41.1641C1141.72 41.0026 1142.03 40.7604 1142.28 40.4375L1143.38 41.625C1143.2 41.8802 1142.96 42.125 1142.65 42.3594C1142.35 42.5938 1141.98 42.7865 1141.55 42.9375C1141.13 43.0833 1140.64 43.1562 1140.09 43.1562ZM1147.09 36.3906V43H1144.84V34.5469H1146.96L1147.09 36.3906ZM1149.64 34.4922L1149.6 36.5781C1149.49 36.5625 1149.36 36.5495 1149.2 36.5391C1149.05 36.5234 1148.91 36.5156 1148.79 36.5156C1148.47 36.5156 1148.2 36.5573 1147.96 36.6406C1147.73 36.7188 1147.54 36.8359 1147.38 36.9922C1147.23 37.1484 1147.12 37.3385 1147.04 37.5625C1146.97 37.7865 1146.92 38.0417 1146.91 38.3281L1146.46 38.1875C1146.46 37.6406 1146.52 37.138 1146.62 36.6797C1146.73 36.2161 1146.89 35.8125 1147.1 35.4688C1147.32 35.125 1147.58 34.8594 1147.88 34.6719C1148.19 34.4844 1148.54 34.3906 1148.94 34.3906C1149.06 34.3906 1149.19 34.401 1149.32 34.4219C1149.45 34.4375 1149.56 34.4609 1149.64 34.4922ZM1160.08 31.6016V43H1157.83V34.1953L1155.12 35.0547V33.2812L1159.84 31.6016H1160.08ZM1043.68 53.625H1047.45C1048.3 53.625 1049.02 53.7552 1049.61 54.0156C1050.2 54.276 1050.65 54.6615 1050.96 55.1719C1051.27 55.6771 1051.43 56.2995 1051.43 57.0391C1051.43 57.5599 1051.32 58.0365 1051.11 58.4688C1050.9 58.8958 1050.6 59.2604 1050.2 59.5625C1049.81 59.8594 1049.34 60.0807 1048.8 60.2266L1048.38 60.3906H1044.84L1044.82 59.1641H1047.49C1048.03 59.1641 1048.48 59.0703 1048.84 58.8828C1049.2 58.6901 1049.47 58.4323 1049.66 58.1094C1049.84 57.7865 1049.93 57.4297 1049.93 57.0391C1049.93 56.6016 1049.84 56.2188 1049.67 55.8906C1049.5 55.5625 1049.23 55.3099 1048.86 55.1328C1048.49 54.9505 1048.02 54.8594 1047.45 54.8594H1045.19V65H1043.68V53.625ZM1050.33 65L1047.56 59.8438L1049.13 59.8359L1051.94 64.9062V65H1050.33ZM1056.83 65.1562C1056.24 65.1562 1055.71 65.0573 1055.23 64.8594C1054.75 64.6562 1054.34 64.3724 1054 64.0078C1053.66 63.6432 1053.4 63.2109 1053.22 62.7109C1053.04 62.2109 1052.95 61.6641 1052.95 61.0703V60.7422C1052.95 60.0547 1053.05 59.4427 1053.25 58.9062C1053.45 58.3646 1053.73 57.9062 1054.08 57.5312C1054.43 57.1562 1054.82 56.8724 1055.27 56.6797C1055.71 56.487 1056.17 56.3906 1056.64 56.3906C1057.24 56.3906 1057.77 56.4948 1058.2 56.7031C1058.65 56.9115 1059.01 57.2031 1059.29 57.5781C1059.57 57.9479 1059.78 58.3854 1059.91 58.8906C1060.05 59.3906 1060.12 59.9375 1060.12 60.5312V61.1797H1053.8V60H1058.67V59.8906C1058.65 59.5156 1058.57 59.151 1058.44 58.7969C1058.31 58.4427 1058.1 58.151 1057.81 57.9219C1057.53 57.6927 1057.14 57.5781 1056.64 57.5781C1056.31 57.5781 1056.01 57.6484 1055.73 57.7891C1055.46 57.9245 1055.22 58.1276 1055.02 58.3984C1054.83 58.6693 1054.67 59 1054.56 59.3906C1054.45 59.7812 1054.4 60.2318 1054.4 60.7422V61.0703C1054.4 61.4714 1054.45 61.849 1054.56 62.2031C1054.68 62.5521 1054.84 62.8594 1055.05 63.125C1055.27 63.3906 1055.54 63.599 1055.84 63.75C1056.16 63.901 1056.51 63.9766 1056.91 63.9766C1057.42 63.9766 1057.85 63.8724 1058.2 63.6641C1058.56 63.4557 1058.87 63.1771 1059.13 62.8281L1060.01 63.5234C1059.83 63.7995 1059.59 64.0625 1059.31 64.3125C1059.03 64.5625 1058.68 64.7656 1058.27 64.9219C1057.87 65.0781 1057.39 65.1562 1056.83 65.1562ZM1063.38 53V65H1061.92V53H1063.38ZM1069.2 65.1562C1068.61 65.1562 1068.08 65.0573 1067.6 64.8594C1067.13 64.6562 1066.72 64.3724 1066.38 64.0078C1066.04 63.6432 1065.78 63.2109 1065.59 62.7109C1065.41 62.2109 1065.32 61.6641 1065.32 61.0703V60.7422C1065.32 60.0547 1065.42 59.4427 1065.62 58.9062C1065.83 58.3646 1066.1 57.9062 1066.45 57.5312C1066.8 57.1562 1067.2 56.8724 1067.64 56.6797C1068.08 56.487 1068.54 56.3906 1069.02 56.3906C1069.62 56.3906 1070.14 56.4948 1070.58 56.7031C1071.02 56.9115 1071.38 57.2031 1071.66 57.5781C1071.95 57.9479 1072.15 58.3854 1072.29 58.8906C1072.42 59.3906 1072.49 59.9375 1072.49 60.5312V61.1797H1066.18V60H1071.05V59.8906C1071.03 59.5156 1070.95 59.151 1070.81 58.7969C1070.68 58.4427 1070.47 58.151 1070.19 57.9219C1069.9 57.6927 1069.51 57.5781 1069.02 57.5781C1068.69 57.5781 1068.39 57.6484 1068.11 57.7891C1067.83 57.9245 1067.6 58.1276 1067.4 58.3984C1067.2 58.6693 1067.05 59 1066.94 59.3906C1066.83 59.7812 1066.77 60.2318 1066.77 60.7422V61.0703C1066.77 61.4714 1066.83 61.849 1066.94 62.2031C1067.05 62.5521 1067.22 62.8594 1067.43 63.125C1067.65 63.3906 1067.91 63.599 1068.22 63.75C1068.53 63.901 1068.89 63.9766 1069.28 63.9766C1069.79 63.9766 1070.22 63.8724 1070.58 63.6641C1070.93 63.4557 1071.24 63.1771 1071.51 62.8281L1072.38 63.5234C1072.2 63.7995 1071.97 64.0625 1071.69 64.3125C1071.41 64.5625 1071.06 64.7656 1070.65 64.9219C1070.24 65.0781 1069.76 65.1562 1069.2 65.1562ZM1079.16 63.5547V59.2031C1079.16 58.8698 1079.1 58.5807 1078.96 58.3359C1078.83 58.0859 1078.63 57.8932 1078.37 57.7578C1078.1 57.6224 1077.77 57.5547 1077.38 57.5547C1077.02 57.5547 1076.7 57.6172 1076.42 57.7422C1076.15 57.8672 1075.94 58.0312 1075.78 58.2344C1075.63 58.4375 1075.55 58.6562 1075.55 58.8906H1074.11C1074.11 58.5885 1074.19 58.2891 1074.34 57.9922C1074.5 57.6953 1074.72 57.4271 1075.02 57.1875C1075.31 56.9427 1075.67 56.75 1076.08 56.6094C1076.49 56.4635 1076.96 56.3906 1077.47 56.3906C1078.08 56.3906 1078.62 56.4948 1079.09 56.7031C1079.57 56.9115 1079.94 57.2266 1080.2 57.6484C1080.47 58.0651 1080.61 58.5885 1080.61 59.2188V63.1562C1080.61 63.4375 1080.63 63.737 1080.68 64.0547C1080.73 64.3724 1080.81 64.6458 1080.91 64.875V65H1079.4C1079.33 64.8333 1079.27 64.612 1079.23 64.3359C1079.18 64.0547 1079.16 63.7943 1079.16 63.5547ZM1079.41 59.875L1079.43 60.8906H1077.97C1077.56 60.8906 1077.19 60.9245 1076.87 60.9922C1076.54 61.0547 1076.27 61.151 1076.05 61.2812C1075.84 61.4115 1075.67 61.5755 1075.55 61.7734C1075.44 61.9661 1075.38 62.1927 1075.38 62.4531C1075.38 62.7188 1075.44 62.9609 1075.56 63.1797C1075.68 63.3984 1075.86 63.5729 1076.1 63.7031C1076.35 63.8281 1076.65 63.8906 1077 63.8906C1077.44 63.8906 1077.83 63.7969 1078.17 63.6094C1078.51 63.4219 1078.78 63.1927 1078.98 62.9219C1079.18 62.651 1079.29 62.388 1079.3 62.1328L1079.92 62.8281C1079.89 63.0469 1079.79 63.2891 1079.62 63.5547C1079.46 63.8203 1079.25 64.0755 1078.98 64.3203C1078.71 64.5599 1078.39 64.7604 1078.02 64.9219C1077.66 65.0781 1077.25 65.1562 1076.79 65.1562C1076.22 65.1562 1075.71 65.0443 1075.28 64.8203C1074.85 64.5964 1074.52 64.2969 1074.28 63.9219C1074.05 63.5417 1073.93 63.1172 1073.93 62.6484C1073.93 62.1953 1074.02 61.7969 1074.2 61.4531C1074.37 61.1042 1074.63 60.8151 1074.96 60.5859C1075.29 60.3516 1075.7 60.1745 1076.16 60.0547C1076.63 59.9349 1077.16 59.875 1077.73 59.875H1079.41ZM1087.8 62.7578C1087.8 62.5495 1087.76 62.3568 1087.66 62.1797C1087.58 61.9974 1087.39 61.8333 1087.11 61.6875C1086.83 61.5365 1086.42 61.4062 1085.86 61.2969C1085.39 61.1979 1084.97 61.0807 1084.59 60.9453C1084.21 60.8099 1083.89 60.6458 1083.62 60.4531C1083.36 60.2604 1083.16 60.0339 1083.02 59.7734C1082.88 59.513 1082.81 59.2083 1082.81 58.8594C1082.81 58.526 1082.89 58.2109 1083.03 57.9141C1083.18 57.6172 1083.39 57.3542 1083.66 57.125C1083.94 56.8958 1084.27 56.7161 1084.66 56.5859C1085.04 56.4557 1085.47 56.3906 1085.95 56.3906C1086.62 56.3906 1087.2 56.5104 1087.68 56.75C1088.16 56.9896 1088.53 57.3099 1088.78 57.7109C1089.04 58.1068 1089.16 58.5469 1089.16 59.0312H1087.72C1087.72 58.7969 1087.65 58.5703 1087.51 58.3516C1087.37 58.1276 1087.17 57.9427 1086.91 57.7969C1086.65 57.651 1086.33 57.5781 1085.95 57.5781C1085.54 57.5781 1085.22 57.6406 1084.97 57.7656C1084.72 57.8854 1084.54 58.0391 1084.43 58.2266C1084.32 58.4141 1084.27 58.612 1084.27 58.8203C1084.27 58.9766 1084.29 59.1172 1084.34 59.2422C1084.4 59.362 1084.5 59.474 1084.64 59.5781C1084.78 59.6771 1084.98 59.7708 1085.23 59.8594C1085.49 59.9479 1085.82 60.0365 1086.21 60.125C1086.9 60.2812 1087.47 60.4688 1087.92 60.6875C1088.37 60.9062 1088.7 61.1745 1088.92 61.4922C1089.14 61.8099 1089.25 62.1953 1089.25 62.6484C1089.25 63.0182 1089.17 63.3568 1089.02 63.6641C1088.86 63.9714 1088.64 64.237 1088.35 64.4609C1088.07 64.6797 1087.72 64.8516 1087.32 64.9766C1086.92 65.0964 1086.48 65.1562 1085.98 65.1562C1085.24 65.1562 1084.61 65.0234 1084.09 64.7578C1083.58 64.4922 1083.19 64.1484 1082.92 63.7266C1082.66 63.3047 1082.52 62.8594 1082.52 62.3906H1083.98C1084 62.7865 1084.11 63.1016 1084.32 63.3359C1084.53 63.5651 1084.78 63.7292 1085.09 63.8281C1085.39 63.9219 1085.69 63.9688 1085.98 63.9688C1086.38 63.9688 1086.71 63.9167 1086.98 63.8125C1087.25 63.7083 1087.45 63.5651 1087.59 63.3828C1087.73 63.2005 1087.8 62.9922 1087.8 62.7578ZM1094.66 65.1562C1094.07 65.1562 1093.53 65.0573 1093.05 64.8594C1092.58 64.6562 1092.17 64.3724 1091.83 64.0078C1091.49 63.6432 1091.23 63.2109 1091.05 62.7109C1090.86 62.2109 1090.77 61.6641 1090.77 61.0703V60.7422C1090.77 60.0547 1090.88 59.4427 1091.08 58.9062C1091.28 58.3646 1091.56 57.9062 1091.91 57.5312C1092.26 57.1562 1092.65 56.8724 1093.09 56.6797C1093.54 56.487 1093.99 56.3906 1094.47 56.3906C1095.07 56.3906 1095.59 56.4948 1096.03 56.7031C1096.47 56.9115 1096.84 57.2031 1097.12 57.5781C1097.4 57.9479 1097.61 58.3854 1097.74 58.8906C1097.88 59.3906 1097.95 59.9375 1097.95 60.5312V61.1797H1091.63V60H1096.5V59.8906C1096.48 59.5156 1096.4 59.151 1096.27 58.7969C1096.14 58.4427 1095.93 58.151 1095.64 57.9219C1095.35 57.6927 1094.96 57.5781 1094.47 57.5781C1094.14 57.5781 1093.84 57.6484 1093.56 57.7891C1093.29 57.9245 1093.05 58.1276 1092.85 58.3984C1092.65 58.6693 1092.5 59 1092.39 59.3906C1092.28 59.7812 1092.23 60.2318 1092.23 60.7422V61.0703C1092.23 61.4714 1092.28 61.849 1092.39 62.2031C1092.51 62.5521 1092.67 62.8594 1092.88 63.125C1093.1 63.3906 1093.36 63.599 1093.67 63.75C1093.98 63.901 1094.34 63.9766 1094.73 63.9766C1095.24 63.9766 1095.68 63.8724 1096.03 63.6641C1096.39 63.4557 1096.7 63.1771 1096.96 62.8281L1097.84 63.5234C1097.65 63.7995 1097.42 64.0625 1097.14 64.3125C1096.86 64.5625 1096.51 64.7656 1096.1 64.9219C1095.7 65.0781 1095.21 65.1562 1094.66 65.1562ZM1107.14 56.5469V57.6562H1102.57V56.5469H1107.14ZM1104.12 54.4922H1105.56V62.9062C1105.56 63.1927 1105.61 63.4089 1105.7 63.5547C1105.78 63.7005 1105.9 63.7969 1106.04 63.8438C1106.18 63.8906 1106.33 63.9141 1106.49 63.9141C1106.61 63.9141 1106.74 63.9036 1106.87 63.8828C1107 63.8568 1107.1 63.8359 1107.17 63.8203L1107.18 65C1107.07 65.0365 1106.91 65.0703 1106.73 65.1016C1106.54 65.138 1106.32 65.1562 1106.06 65.1562C1105.71 65.1562 1105.38 65.0859 1105.09 64.9453C1104.79 64.8047 1104.55 64.5703 1104.38 64.2422C1104.2 63.9089 1104.12 63.4609 1104.12 62.8984V54.4922ZM1108.3 60.8672V60.6875C1108.3 60.0781 1108.39 59.513 1108.56 58.9922C1108.74 58.4661 1108.99 58.0104 1109.33 57.625C1109.66 57.2344 1110.07 56.9323 1110.54 56.7188C1111.01 56.5 1111.54 56.3906 1112.13 56.3906C1112.73 56.3906 1113.26 56.5 1113.73 56.7188C1114.21 56.9323 1114.62 57.2344 1114.95 57.625C1115.29 58.0104 1115.55 58.4661 1115.73 58.9922C1115.9 59.513 1115.99 60.0781 1115.99 60.6875V60.8672C1115.99 61.4766 1115.9 62.0417 1115.73 62.5625C1115.55 63.0833 1115.29 63.5391 1114.95 63.9297C1114.62 64.3151 1114.22 64.6172 1113.74 64.8359C1113.27 65.0495 1112.74 65.1562 1112.15 65.1562C1111.55 65.1562 1111.02 65.0495 1110.55 64.8359C1110.07 64.6172 1109.67 64.3151 1109.33 63.9297C1108.99 63.5391 1108.74 63.0833 1108.56 62.5625C1108.39 62.0417 1108.3 61.4766 1108.3 60.8672ZM1109.74 60.6875V60.8672C1109.74 61.2891 1109.79 61.6875 1109.89 62.0625C1109.99 62.4323 1110.14 62.7604 1110.34 63.0469C1110.54 63.3333 1110.79 63.5599 1111.09 63.7266C1111.4 63.888 1111.75 63.9688 1112.15 63.9688C1112.54 63.9688 1112.89 63.888 1113.19 63.7266C1113.49 63.5599 1113.74 63.3333 1113.94 63.0469C1114.14 62.7604 1114.28 62.4323 1114.38 62.0625C1114.49 61.6875 1114.54 61.2891 1114.54 60.8672V60.6875C1114.54 60.2708 1114.49 59.8776 1114.38 59.5078C1114.28 59.1328 1114.13 58.8021 1113.93 58.5156C1113.73 58.224 1113.48 57.9948 1113.18 57.8281C1112.88 57.6615 1112.53 57.5781 1112.13 57.5781C1111.74 57.5781 1111.39 57.6615 1111.09 57.8281C1110.79 57.9948 1110.54 58.224 1110.34 58.5156C1110.14 58.8021 1109.99 59.1328 1109.89 59.5078C1109.79 59.8776 1109.74 60.2708 1109.74 60.6875ZM1126.2 54.6328L1122.44 65H1120.9L1125.23 53.625H1126.23L1126.2 54.6328ZM1129.36 65L1125.59 54.6328L1125.56 53.625H1126.55L1130.91 65H1129.36ZM1129.16 60.7891V62.0234H1122.77V60.7891H1129.16ZM1133.66 58.1719V68.25H1132.2V56.5469H1133.53L1133.66 58.1719ZM1139.35 60.7031V60.8672C1139.35 61.4818 1139.28 62.0521 1139.13 62.5781C1138.99 63.099 1138.77 63.5521 1138.49 63.9375C1138.22 64.3229 1137.88 64.6224 1137.47 64.8359C1137.06 65.0495 1136.6 65.1562 1136.07 65.1562C1135.53 65.1562 1135.06 65.0677 1134.65 64.8906C1134.24 64.7135 1133.89 64.4557 1133.6 64.1172C1133.32 63.7786 1133.09 63.3724 1132.91 62.8984C1132.75 62.4245 1132.63 61.8906 1132.57 61.2969V60.4219C1132.63 59.7969 1132.75 59.237 1132.92 58.7422C1133.09 58.2474 1133.32 57.8255 1133.6 57.4766C1133.89 57.1224 1134.23 56.8542 1134.64 56.6719C1135.05 56.4844 1135.52 56.3906 1136.05 56.3906C1136.58 56.3906 1137.05 56.4948 1137.46 56.7031C1137.87 56.9062 1138.22 57.1979 1138.5 57.5781C1138.78 57.9583 1138.99 58.4141 1139.13 58.9453C1139.28 59.4714 1139.35 60.0573 1139.35 60.7031ZM1137.9 60.8672V60.7031C1137.9 60.2812 1137.85 59.8854 1137.77 59.5156C1137.68 59.1406 1137.54 58.8125 1137.35 58.5312C1137.17 58.2448 1136.93 58.0208 1136.65 57.8594C1136.36 57.6927 1136.02 57.6094 1135.62 57.6094C1135.26 57.6094 1134.94 57.6719 1134.67 57.7969C1134.41 57.9219 1134.18 58.0911 1133.99 58.3047C1133.8 58.513 1133.65 58.7526 1133.53 59.0234C1133.42 59.2891 1133.33 59.5651 1133.27 59.8516V61.875C1133.38 62.2396 1133.52 62.5833 1133.71 62.9062C1133.9 63.224 1134.15 63.4818 1134.46 63.6797C1134.77 63.8724 1135.17 63.9688 1135.64 63.9688C1136.03 63.9688 1136.37 63.888 1136.65 63.7266C1136.93 63.5599 1137.17 63.3333 1137.35 63.0469C1137.54 62.7604 1137.68 62.4323 1137.77 62.0625C1137.85 61.6875 1137.9 61.2891 1137.9 60.8672ZM1142.64 58.1719V68.25H1141.19V56.5469H1142.52L1142.64 58.1719ZM1148.34 60.7031V60.8672C1148.34 61.4818 1148.26 62.0521 1148.12 62.5781C1147.97 63.099 1147.76 63.5521 1147.48 63.9375C1147.2 64.3229 1146.86 64.6224 1146.45 64.8359C1146.05 65.0495 1145.58 65.1562 1145.05 65.1562C1144.52 65.1562 1144.04 65.0677 1143.63 64.8906C1143.22 64.7135 1142.87 64.4557 1142.59 64.1172C1142.3 63.7786 1142.07 63.3724 1141.9 62.8984C1141.73 62.4245 1141.62 61.8906 1141.55 61.2969V60.4219C1141.62 59.7969 1141.73 59.237 1141.91 58.7422C1142.08 58.2474 1142.3 57.8255 1142.59 57.4766C1142.87 57.1224 1143.22 56.8542 1143.62 56.6719C1144.03 56.4844 1144.5 56.3906 1145.03 56.3906C1145.56 56.3906 1146.03 56.4948 1146.45 56.7031C1146.86 56.9062 1147.2 57.1979 1147.48 57.5781C1147.77 57.9583 1147.98 58.4141 1148.12 58.9453C1148.26 59.4714 1148.34 60.0573 1148.34 60.7031ZM1146.88 60.8672V60.7031C1146.88 60.2812 1146.84 59.8854 1146.75 59.5156C1146.66 59.1406 1146.52 58.8125 1146.34 58.5312C1146.15 58.2448 1145.92 58.0208 1145.63 57.8594C1145.35 57.6927 1145.01 57.6094 1144.61 57.6094C1144.24 57.6094 1143.93 57.6719 1143.66 57.7969C1143.39 57.9219 1143.16 58.0911 1142.98 58.3047C1142.79 58.513 1142.64 58.7526 1142.52 59.0234C1142.4 59.2891 1142.32 59.5651 1142.26 59.8516V61.875C1142.36 62.2396 1142.51 62.5833 1142.7 62.9062C1142.88 63.224 1143.13 63.4818 1143.45 63.6797C1143.76 63.8724 1144.15 63.9688 1144.62 63.9688C1145.02 63.9688 1145.35 63.888 1145.63 63.7266C1145.92 63.5599 1146.15 63.3333 1146.34 63.0469C1146.52 62.7604 1146.66 62.4323 1146.75 62.0625C1146.84 61.6875 1146.88 61.2891 1146.88 60.8672ZM1156.25 58.6875L1157.95 57.4766C1158.28 57.2526 1158.53 57.0286 1158.71 56.8047C1158.89 56.5755 1158.98 56.263 1158.98 55.8672C1158.98 55.5599 1158.86 55.2812 1158.62 55.0312C1158.39 54.776 1158.05 54.6484 1157.61 54.6484C1157.31 54.6484 1157.05 54.7188 1156.84 54.8594C1156.64 55 1156.48 55.1875 1156.38 55.4219C1156.27 55.651 1156.22 55.9036 1156.22 56.1797C1156.22 56.4141 1156.28 56.6562 1156.39 56.9062C1156.51 57.1562 1156.66 57.4167 1156.87 57.6875C1157.07 57.9583 1157.3 58.2448 1157.56 58.5469L1162.95 65H1161.21L1156.8 59.7188C1156.41 59.2604 1156.06 58.8411 1155.75 58.4609C1155.44 58.0755 1155.2 57.7031 1155.02 57.3438C1154.85 56.9844 1154.77 56.612 1154.77 56.2266C1154.77 55.6328 1154.88 55.1328 1155.12 54.7266C1155.36 54.3151 1155.69 54.0026 1156.12 53.7891C1156.54 53.5755 1157.04 53.4688 1157.62 53.4688C1158.17 53.4688 1158.65 53.5807 1159.05 53.8047C1159.46 54.0234 1159.77 54.3151 1159.99 54.6797C1160.21 55.0391 1160.32 55.4349 1160.32 55.8672C1160.32 56.2318 1160.26 56.5599 1160.12 56.8516C1159.99 57.138 1159.81 57.401 1159.58 57.6406C1159.35 57.8802 1159.08 58.1146 1158.77 58.3438L1156.52 60.0234C1156.14 60.2995 1155.87 60.5625 1155.7 60.8125C1155.52 61.0625 1155.41 61.2839 1155.36 61.4766C1155.31 61.6693 1155.29 61.8229 1155.29 61.9375C1155.29 62.3073 1155.37 62.6458 1155.53 62.9531C1155.69 63.2604 1155.94 63.5078 1156.27 63.6953C1156.6 63.8776 1157.02 63.9688 1157.52 63.9688C1157.95 63.9688 1158.38 63.8698 1158.79 63.6719C1159.21 63.4688 1159.58 63.1823 1159.91 62.8125C1160.23 62.4375 1160.49 61.9922 1160.69 61.4766C1160.89 60.9557 1160.98 60.3802 1160.98 59.75H1162.28C1162.28 60.2656 1162.23 60.7526 1162.13 61.2109C1162.03 61.6693 1161.88 62.0964 1161.67 62.4922C1161.47 62.8828 1161.21 63.2396 1160.89 63.5625C1160.84 63.6094 1160.81 63.6641 1160.78 63.7266C1160.76 63.7891 1160.72 63.8438 1160.67 63.8906C1160.28 64.3125 1159.8 64.6302 1159.23 64.8438C1158.66 65.0521 1158.09 65.1562 1157.52 65.1562C1156.76 65.1562 1156.11 65.0182 1155.55 64.7422C1155.01 64.4661 1154.59 64.0859 1154.29 63.6016C1153.99 63.1172 1153.84 62.5625 1153.84 61.9375C1153.84 61.4583 1153.95 61.0365 1154.15 60.6719C1154.36 60.3073 1154.64 59.9661 1155 59.6484C1155.36 59.3307 1155.78 59.0104 1156.25 58.6875ZM1051.88 81.3359V85.5C1051.74 85.7083 1051.52 85.9427 1051.21 86.2031C1050.9 86.4583 1050.48 86.6823 1049.94 86.875C1049.4 87.0625 1048.71 87.1562 1047.86 87.1562C1047.17 87.1562 1046.53 87.0365 1045.95 86.7969C1045.37 86.5521 1044.86 86.1979 1044.44 85.7344C1044.02 85.2656 1043.69 84.6979 1043.45 84.0312C1043.22 83.3594 1043.11 82.599 1043.11 81.75V80.8672C1043.11 80.0182 1043.21 79.2604 1043.41 78.5938C1043.61 77.9271 1043.91 77.362 1044.3 76.8984C1044.69 76.4297 1045.17 76.0755 1045.73 75.8359C1046.3 75.5911 1046.95 75.4688 1047.69 75.4688C1048.56 75.4688 1049.28 75.6198 1049.87 75.9219C1050.46 76.2188 1050.91 76.6302 1051.24 77.1562C1051.58 77.6823 1051.79 78.2812 1051.88 78.9531H1050.38C1050.31 78.5417 1050.17 78.1667 1049.97 77.8281C1049.77 77.4896 1049.49 77.2188 1049.12 77.0156C1048.75 76.8073 1048.27 76.7031 1047.69 76.7031C1047.16 76.7031 1046.71 76.7995 1046.32 76.9922C1045.93 77.1849 1045.62 77.4609 1045.37 77.8203C1045.12 78.1797 1044.93 78.6146 1044.8 79.125C1044.68 79.6354 1044.62 80.2109 1044.62 80.8516V81.75C1044.62 82.4062 1044.7 82.9922 1044.85 83.5078C1045.01 84.0234 1045.23 84.4635 1045.52 84.8281C1045.8 85.1875 1046.14 85.4609 1046.54 85.6484C1046.94 85.8359 1047.38 85.9297 1047.87 85.9297C1048.4 85.9297 1048.84 85.8854 1049.17 85.7969C1049.51 85.7031 1049.77 85.5938 1049.95 85.4688C1050.14 85.3385 1050.28 85.2161 1050.38 85.1016V82.5547H1047.75V81.3359H1051.88ZM1053.78 82.8672V82.6875C1053.78 82.0781 1053.87 81.513 1054.05 80.9922C1054.22 80.4661 1054.48 80.0104 1054.81 79.625C1055.15 79.2344 1055.55 78.9323 1056.02 78.7188C1056.5 78.5 1057.03 78.3906 1057.62 78.3906C1058.21 78.3906 1058.74 78.5 1059.22 78.7188C1059.7 78.9323 1060.1 79.2344 1060.44 79.625C1060.78 80.0104 1061.03 80.4661 1061.21 80.9922C1061.39 81.513 1061.48 82.0781 1061.48 82.6875V82.8672C1061.48 83.4766 1061.39 84.0417 1061.21 84.5625C1061.03 85.0833 1060.78 85.5391 1060.44 85.9297C1060.1 86.3151 1059.7 86.6172 1059.23 86.8359C1058.76 87.0495 1058.23 87.1562 1057.63 87.1562C1057.04 87.1562 1056.51 87.0495 1056.03 86.8359C1055.56 86.6172 1055.15 86.3151 1054.81 85.9297C1054.48 85.5391 1054.22 85.0833 1054.05 84.5625C1053.87 84.0417 1053.78 83.4766 1053.78 82.8672ZM1055.23 82.6875V82.8672C1055.23 83.2891 1055.28 83.6875 1055.38 84.0625C1055.47 84.4323 1055.62 84.7604 1055.82 85.0469C1056.02 85.3333 1056.28 85.5599 1056.58 85.7266C1056.88 85.888 1057.23 85.9688 1057.63 85.9688C1058.03 85.9688 1058.38 85.888 1058.67 85.7266C1058.97 85.5599 1059.22 85.3333 1059.42 85.0469C1059.62 84.7604 1059.77 84.4323 1059.87 84.0625C1059.97 83.6875 1060.02 83.2891 1060.02 82.8672V82.6875C1060.02 82.2708 1059.97 81.8776 1059.87 81.5078C1059.77 81.1328 1059.62 80.8021 1059.41 80.5156C1059.22 80.224 1058.97 79.9948 1058.66 79.8281C1058.37 79.6615 1058.02 79.5781 1057.62 79.5781C1057.22 79.5781 1056.87 79.6615 1056.57 79.8281C1056.27 79.9948 1056.02 80.224 1055.82 80.5156C1055.62 80.8021 1055.47 81.1328 1055.38 81.5078C1055.28 81.8776 1055.23 82.2708 1055.23 82.6875ZM1062.91 82.8672V82.6875C1062.91 82.0781 1062.99 81.513 1063.17 80.9922C1063.35 80.4661 1063.6 80.0104 1063.94 79.625C1064.27 79.2344 1064.67 78.9323 1065.15 78.7188C1065.62 78.5 1066.15 78.3906 1066.74 78.3906C1067.34 78.3906 1067.87 78.5 1068.34 78.7188C1068.82 78.9323 1069.23 79.2344 1069.56 79.625C1069.9 80.0104 1070.16 80.4661 1070.34 80.9922C1070.51 81.513 1070.6 82.0781 1070.6 82.6875V82.8672C1070.6 83.4766 1070.51 84.0417 1070.34 84.5625C1070.16 85.0833 1069.9 85.5391 1069.56 85.9297C1069.23 86.3151 1068.83 86.6172 1068.35 86.8359C1067.88 87.0495 1067.35 87.1562 1066.76 87.1562C1066.16 87.1562 1065.63 87.0495 1065.16 86.8359C1064.68 86.6172 1064.28 86.3151 1063.94 85.9297C1063.6 85.5391 1063.35 85.0833 1063.17 84.5625C1062.99 84.0417 1062.91 83.4766 1062.91 82.8672ZM1064.35 82.6875V82.8672C1064.35 83.2891 1064.4 83.6875 1064.5 84.0625C1064.6 84.4323 1064.75 84.7604 1064.95 85.0469C1065.15 85.3333 1065.4 85.5599 1065.7 85.7266C1066.01 85.888 1066.36 85.9688 1066.76 85.9688C1067.15 85.9688 1067.5 85.888 1067.8 85.7266C1068.1 85.5599 1068.35 85.3333 1068.55 85.0469C1068.74 84.7604 1068.89 84.4323 1068.99 84.0625C1069.1 83.6875 1069.15 83.2891 1069.15 82.8672V82.6875C1069.15 82.2708 1069.1 81.8776 1068.99 81.5078C1068.89 81.1328 1068.74 80.8021 1068.54 80.5156C1068.34 80.224 1068.09 79.9948 1067.79 79.8281C1067.49 79.6615 1067.14 79.5781 1066.74 79.5781C1066.35 79.5781 1066 79.6615 1065.7 79.8281C1065.4 79.9948 1065.15 80.224 1064.95 80.5156C1064.75 80.8021 1064.6 81.1328 1064.5 81.5078C1064.4 81.8776 1064.35 82.2708 1064.35 82.6875ZM1077.89 78.5469H1079.2V86.8203C1079.2 87.5651 1079.05 88.2005 1078.75 88.7266C1078.45 89.2526 1078.03 89.651 1077.48 89.9219C1076.95 90.1979 1076.33 90.3359 1075.62 90.3359C1075.33 90.3359 1074.99 90.2891 1074.59 90.1953C1074.2 90.1068 1073.82 89.9531 1073.44 89.7344C1073.06 89.5208 1072.75 89.2318 1072.49 88.8672L1073.25 88.0078C1073.6 88.4349 1073.97 88.7318 1074.36 88.8984C1074.75 89.0651 1075.14 89.1484 1075.52 89.1484C1075.97 89.1484 1076.37 89.0625 1076.7 88.8906C1077.04 88.7188 1077.29 88.4635 1077.48 88.125C1077.66 87.7917 1077.76 87.3802 1077.76 86.8906V80.4062L1077.89 78.5469ZM1072.07 82.8672V82.7031C1072.07 82.0573 1072.15 81.4714 1072.3 80.9453C1072.45 80.4141 1072.67 79.9583 1072.96 79.5781C1073.25 79.1979 1073.6 78.9062 1074.02 78.7031C1074.43 78.4948 1074.89 78.3906 1075.41 78.3906C1075.94 78.3906 1076.4 78.4844 1076.8 78.6719C1077.2 78.8542 1077.54 79.1224 1077.81 79.4766C1078.09 79.8255 1078.32 80.2474 1078.48 80.7422C1078.64 81.237 1078.75 81.7969 1078.81 82.4219V83.1406C1078.76 83.7604 1078.64 84.3177 1078.48 84.8125C1078.32 85.3073 1078.09 85.7292 1077.81 86.0781C1077.54 86.4271 1077.2 86.6953 1076.8 86.8828C1076.4 87.0651 1075.93 87.1562 1075.39 87.1562C1074.89 87.1562 1074.43 87.0495 1074.02 86.8359C1073.61 86.6224 1073.26 86.3229 1072.97 85.9375C1072.68 85.5521 1072.45 85.099 1072.3 84.5781C1072.15 84.0521 1072.07 83.4818 1072.07 82.8672ZM1073.52 82.7031V82.8672C1073.52 83.2891 1073.56 83.6849 1073.64 84.0547C1073.73 84.4245 1073.86 84.75 1074.04 85.0312C1074.22 85.3125 1074.45 85.5339 1074.73 85.6953C1075.02 85.8516 1075.35 85.9297 1075.74 85.9297C1076.22 85.9297 1076.62 85.8281 1076.93 85.625C1077.24 85.4219 1077.49 85.1536 1077.67 84.8203C1077.86 84.487 1078.01 84.125 1078.11 83.7344V81.8516C1078.05 81.5651 1077.96 81.2891 1077.84 81.0234C1077.73 80.7526 1077.58 80.513 1077.39 80.3047C1077.21 80.0911 1076.98 79.9219 1076.71 79.7969C1076.44 79.6719 1076.12 79.6094 1075.76 79.6094C1075.36 79.6094 1075.02 79.6927 1074.73 79.8594C1074.45 80.0208 1074.22 80.2448 1074.04 80.5312C1073.86 80.8125 1073.73 81.1406 1073.64 81.5156C1073.56 81.8854 1073.52 82.2812 1073.52 82.7031ZM1082.97 75V87H1081.52V75H1082.97ZM1088.8 87.1562C1088.21 87.1562 1087.67 87.0573 1087.2 86.8594C1086.72 86.6562 1086.31 86.3724 1085.97 86.0078C1085.63 85.6432 1085.37 85.2109 1085.19 84.7109C1085.01 84.2109 1084.91 83.6641 1084.91 83.0703V82.7422C1084.91 82.0547 1085.02 81.4427 1085.22 80.9062C1085.42 80.3646 1085.7 79.9062 1086.05 79.5312C1086.4 79.1562 1086.79 78.8724 1087.23 78.6797C1087.68 78.487 1088.14 78.3906 1088.61 78.3906C1089.21 78.3906 1089.73 78.4948 1090.17 78.7031C1090.61 78.9115 1090.98 79.2031 1091.26 79.5781C1091.54 79.9479 1091.75 80.3854 1091.88 80.8906C1092.02 81.3906 1092.09 81.9375 1092.09 82.5312V83.1797H1085.77V82H1090.64V81.8906C1090.62 81.5156 1090.54 81.151 1090.41 80.7969C1090.28 80.4427 1090.07 80.151 1089.78 79.9219C1089.49 79.6927 1089.1 79.5781 1088.61 79.5781C1088.28 79.5781 1087.98 79.6484 1087.7 79.7891C1087.43 79.9245 1087.19 80.1276 1086.99 80.3984C1086.79 80.6693 1086.64 81 1086.53 81.3906C1086.42 81.7812 1086.37 82.2318 1086.37 82.7422V83.0703C1086.37 83.4714 1086.42 83.849 1086.53 84.2031C1086.65 84.5521 1086.81 84.8594 1087.02 85.125C1087.24 85.3906 1087.51 85.599 1087.81 85.75C1088.12 85.901 1088.48 85.9766 1088.88 85.9766C1089.39 85.9766 1089.82 85.8724 1090.17 85.6641C1090.53 85.4557 1090.84 85.1771 1091.1 84.8281L1091.98 85.5234C1091.79 85.7995 1091.56 86.0625 1091.28 86.3125C1091 86.5625 1090.65 86.7656 1090.24 86.9219C1089.84 87.0781 1089.35 87.1562 1088.8 87.1562ZM1098.19 82.5391H1095.15V81.3125H1098.19C1098.78 81.3125 1099.25 81.2188 1099.62 81.0312C1099.98 80.8438 1100.25 80.5833 1100.41 80.25C1100.59 79.9167 1100.67 79.5365 1100.67 79.1094C1100.67 78.7188 1100.59 78.3516 1100.41 78.0078C1100.25 77.6641 1099.98 77.388 1099.62 77.1797C1099.25 76.9661 1098.78 76.8594 1098.19 76.8594H1095.5V87H1093.99V75.625H1098.19C1099.05 75.625 1099.77 75.7734 1100.37 76.0703C1100.96 76.3672 1101.41 76.7786 1101.72 77.3047C1102.03 77.8255 1102.18 78.4219 1102.18 79.0938C1102.18 79.8229 1102.03 80.4453 1101.72 80.9609C1101.41 81.4766 1100.96 81.8698 1100.37 82.1406C1099.77 82.4062 1099.05 82.5391 1098.19 82.5391ZM1105.44 75V87H1103.98V75H1105.44ZM1112.74 85.5547V81.2031C1112.74 80.8698 1112.67 80.5807 1112.54 80.3359C1112.41 80.0859 1112.21 79.8932 1111.95 79.7578C1111.68 79.6224 1111.35 79.5547 1110.96 79.5547C1110.6 79.5547 1110.28 79.6172 1110 79.7422C1109.73 79.8672 1109.52 80.0312 1109.36 80.2344C1109.21 80.4375 1109.13 80.6562 1109.13 80.8906H1107.69C1107.69 80.5885 1107.77 80.2891 1107.92 79.9922C1108.08 79.6953 1108.3 79.4271 1108.59 79.1875C1108.89 78.9427 1109.24 78.75 1109.66 78.6094C1110.07 78.4635 1110.54 78.3906 1111.05 78.3906C1111.66 78.3906 1112.2 78.4948 1112.67 78.7031C1113.15 78.9115 1113.52 79.2266 1113.78 79.6484C1114.05 80.0651 1114.19 80.5885 1114.19 81.2188V85.1562C1114.19 85.4375 1114.21 85.737 1114.26 86.0547C1114.31 86.3724 1114.39 86.6458 1114.48 86.875V87H1112.98C1112.9 86.8333 1112.85 86.612 1112.8 86.3359C1112.76 86.0547 1112.74 85.7943 1112.74 85.5547ZM1112.99 81.875L1113.01 82.8906H1111.55C1111.14 82.8906 1110.77 82.9245 1110.45 82.9922C1110.12 83.0547 1109.85 83.151 1109.63 83.2812C1109.41 83.4115 1109.25 83.5755 1109.13 83.7734C1109.02 83.9661 1108.96 84.1927 1108.96 84.4531C1108.96 84.7188 1109.02 84.9609 1109.14 85.1797C1109.26 85.3984 1109.44 85.5729 1109.68 85.7031C1109.92 85.8281 1110.22 85.8906 1110.58 85.8906C1111.02 85.8906 1111.41 85.7969 1111.75 85.6094C1112.09 85.4219 1112.36 85.1927 1112.55 84.9219C1112.76 84.651 1112.87 84.388 1112.88 84.1328L1113.5 84.8281C1113.46 85.0469 1113.36 85.2891 1113.2 85.5547C1113.04 85.8203 1112.83 86.0755 1112.55 86.3203C1112.29 86.5599 1111.97 86.7604 1111.6 86.9219C1111.24 87.0781 1110.83 87.1562 1110.37 87.1562C1109.79 87.1562 1109.29 87.0443 1108.86 86.8203C1108.43 86.5964 1108.1 86.2969 1107.86 85.9219C1107.62 85.5417 1107.51 85.1172 1107.51 84.6484C1107.51 84.1953 1107.6 83.7969 1107.77 83.4531C1107.95 83.1042 1108.21 82.8151 1108.54 82.5859C1108.87 82.3516 1109.27 82.1745 1109.74 82.0547C1110.21 81.9349 1110.73 81.875 1111.31 81.875H1112.99ZM1118.71 86.125L1121.06 78.5469H1122.61L1119.22 88.3047C1119.14 88.513 1119.04 88.737 1118.91 88.9766C1118.78 89.2214 1118.62 89.4531 1118.42 89.6719C1118.22 89.8906 1117.98 90.0677 1117.7 90.2031C1117.43 90.3438 1117.1 90.4141 1116.71 90.4141C1116.6 90.4141 1116.45 90.3984 1116.27 90.3672C1116.1 90.3359 1115.97 90.3099 1115.9 90.2891L1115.89 89.1172C1115.93 89.1224 1116 89.1276 1116.09 89.1328C1116.18 89.1432 1116.24 89.1484 1116.28 89.1484C1116.61 89.1484 1116.89 89.1042 1117.12 89.0156C1117.35 88.9323 1117.54 88.7891 1117.7 88.5859C1117.86 88.388 1117.99 88.1146 1118.11 87.7656L1118.71 86.125ZM1116.98 78.5469L1119.18 85.1094L1119.55 86.6328L1118.52 87.1641L1115.41 78.5469H1116.98ZM1132.8 84.7578C1132.8 84.5495 1132.76 84.3568 1132.66 84.1797C1132.58 83.9974 1132.39 83.8333 1132.11 83.6875C1131.83 83.5365 1131.42 83.4062 1130.86 83.2969C1130.39 83.1979 1129.97 83.0807 1129.59 82.9453C1129.21 82.8099 1128.89 82.6458 1128.62 82.4531C1128.36 82.2604 1128.16 82.0339 1128.02 81.7734C1127.88 81.513 1127.81 81.2083 1127.81 80.8594C1127.81 80.526 1127.89 80.2109 1128.03 79.9141C1128.18 79.6172 1128.39 79.3542 1128.66 79.125C1128.94 78.8958 1129.27 78.7161 1129.66 78.5859C1130.04 78.4557 1130.47 78.3906 1130.95 78.3906C1131.62 78.3906 1132.2 78.5104 1132.68 78.75C1133.16 78.9896 1133.53 79.3099 1133.78 79.7109C1134.04 80.1068 1134.16 80.5469 1134.16 81.0312H1132.72C1132.72 80.7969 1132.65 80.5703 1132.51 80.3516C1132.37 80.1276 1132.17 79.9427 1131.91 79.7969C1131.65 79.651 1131.33 79.5781 1130.95 79.5781C1130.54 79.5781 1130.22 79.6406 1129.97 79.7656C1129.72 79.8854 1129.54 80.0391 1129.43 80.2266C1129.32 80.4141 1129.27 80.612 1129.27 80.8203C1129.27 80.9766 1129.29 81.1172 1129.34 81.2422C1129.4 81.362 1129.5 81.474 1129.64 81.5781C1129.78 81.6771 1129.98 81.7708 1130.23 81.8594C1130.49 81.9479 1130.82 82.0365 1131.21 82.125C1131.9 82.2812 1132.47 82.4688 1132.92 82.6875C1133.37 82.9062 1133.7 83.1745 1133.92 83.4922C1134.14 83.8099 1134.25 84.1953 1134.25 84.6484C1134.25 85.0182 1134.17 85.3568 1134.02 85.6641C1133.86 85.9714 1133.64 86.237 1133.35 86.4609C1133.07 86.6797 1132.72 86.8516 1132.32 86.9766C1131.92 87.0964 1131.48 87.1562 1130.98 87.1562C1130.24 87.1562 1129.61 87.0234 1129.09 86.7578C1128.58 86.4922 1128.19 86.1484 1127.92 85.7266C1127.66 85.3047 1127.52 84.8594 1127.52 84.3906H1128.98C1129 84.7865 1129.11 85.1016 1129.32 85.3359C1129.53 85.5651 1129.78 85.7292 1130.09 85.8281C1130.39 85.9219 1130.69 85.9688 1130.98 85.9688C1131.38 85.9688 1131.71 85.9167 1131.98 85.8125C1132.25 85.7083 1132.45 85.5651 1132.59 85.3828C1132.73 85.2005 1132.8 84.9922 1132.8 84.7578ZM1139.69 78.5469V79.6562H1135.12V78.5469H1139.69ZM1136.66 76.4922H1138.11V84.9062C1138.11 85.1927 1138.15 85.4089 1138.24 85.5547C1138.33 85.7005 1138.45 85.7969 1138.59 85.8438C1138.73 85.8906 1138.88 85.9141 1139.04 85.9141C1139.16 85.9141 1139.28 85.9036 1139.41 85.8828C1139.55 85.8568 1139.65 85.8359 1139.72 85.8203L1139.73 87C1139.61 87.0365 1139.46 87.0703 1139.27 87.1016C1139.09 87.138 1138.87 87.1562 1138.61 87.1562C1138.26 87.1562 1137.93 87.0859 1137.63 86.9453C1137.34 86.8047 1137.1 86.5703 1136.92 86.2422C1136.75 85.9089 1136.66 85.4609 1136.66 84.8984V76.4922ZM1140.84 82.8672V82.6875C1140.84 82.0781 1140.93 81.513 1141.11 80.9922C1141.29 80.4661 1141.54 80.0104 1141.88 79.625C1142.21 79.2344 1142.61 78.9323 1143.09 78.7188C1143.56 78.5 1144.09 78.3906 1144.68 78.3906C1145.27 78.3906 1145.81 78.5 1146.28 78.7188C1146.76 78.9323 1147.17 79.2344 1147.5 79.625C1147.84 80.0104 1148.1 80.4661 1148.27 80.9922C1148.45 81.513 1148.54 82.0781 1148.54 82.6875V82.8672C1148.54 83.4766 1148.45 84.0417 1148.27 84.5625C1148.1 85.0833 1147.84 85.5391 1147.5 85.9297C1147.17 86.3151 1146.76 86.6172 1146.29 86.8359C1145.82 87.0495 1145.29 87.1562 1144.7 87.1562C1144.1 87.1562 1143.57 87.0495 1143.09 86.8359C1142.62 86.6172 1142.21 86.3151 1141.88 85.9297C1141.54 85.5391 1141.29 85.0833 1141.11 84.5625C1140.93 84.0417 1140.84 83.4766 1140.84 82.8672ZM1142.29 82.6875V82.8672C1142.29 83.2891 1142.34 83.6875 1142.44 84.0625C1142.54 84.4323 1142.68 84.7604 1142.88 85.0469C1143.09 85.3333 1143.34 85.5599 1143.64 85.7266C1143.94 85.888 1144.29 85.9688 1144.7 85.9688C1145.09 85.9688 1145.44 85.888 1145.73 85.7266C1146.04 85.5599 1146.29 85.3333 1146.48 85.0469C1146.68 84.7604 1146.83 84.4323 1146.93 84.0625C1147.03 83.6875 1147.09 83.2891 1147.09 82.8672V82.6875C1147.09 82.2708 1147.03 81.8776 1146.93 81.5078C1146.83 81.1328 1146.68 80.8021 1146.48 80.5156C1146.28 80.224 1146.03 79.9948 1145.73 79.8281C1145.43 79.6615 1145.08 79.5781 1144.68 79.5781C1144.28 79.5781 1143.93 79.6615 1143.63 79.8281C1143.34 79.9948 1143.09 80.224 1142.88 80.5156C1142.68 80.8021 1142.54 81.1328 1142.44 81.5078C1142.34 81.8776 1142.29 82.2708 1142.29 82.6875ZM1151.8 79.875V87H1150.35V78.5469H1151.76L1151.8 79.875ZM1154.44 78.5L1154.43 79.8438C1154.31 79.8177 1154.2 79.8021 1154.09 79.7969C1153.98 79.7865 1153.86 79.7812 1153.73 79.7812C1153.39 79.7812 1153.1 79.8333 1152.84 79.9375C1152.59 80.0417 1152.37 80.1875 1152.2 80.375C1152.02 80.5625 1151.88 80.7865 1151.77 81.0469C1151.67 81.3021 1151.61 81.5833 1151.58 81.8906L1151.17 82.125C1151.17 81.6146 1151.22 81.1354 1151.32 80.6875C1151.42 80.2396 1151.58 79.8438 1151.8 79.5C1152.01 79.151 1152.28 78.8802 1152.61 78.6875C1152.94 78.4896 1153.34 78.3906 1153.8 78.3906C1153.9 78.3906 1154.02 78.4036 1154.16 78.4297C1154.29 78.4505 1154.39 78.474 1154.44 78.5ZM1159.12 87.1562C1158.54 87.1562 1158 87.0573 1157.52 86.8594C1157.05 86.6562 1156.64 86.3724 1156.3 86.0078C1155.96 85.6432 1155.7 85.2109 1155.52 84.7109C1155.33 84.2109 1155.24 83.6641 1155.24 83.0703V82.7422C1155.24 82.0547 1155.34 81.4427 1155.55 80.9062C1155.75 80.3646 1156.03 79.9062 1156.38 79.5312C1156.72 79.1562 1157.12 78.8724 1157.56 78.6797C1158.01 78.487 1158.46 78.3906 1158.94 78.3906C1159.54 78.3906 1160.06 78.4948 1160.5 78.7031C1160.94 78.9115 1161.3 79.2031 1161.59 79.5781C1161.87 79.9479 1162.08 80.3854 1162.21 80.8906C1162.35 81.3906 1162.41 81.9375 1162.41 82.5312V83.1797H1156.1V82H1160.97V81.8906C1160.95 81.5156 1160.87 81.151 1160.73 80.7969C1160.6 80.4427 1160.4 80.151 1160.11 79.9219C1159.82 79.6927 1159.43 79.5781 1158.94 79.5781C1158.61 79.5781 1158.31 79.6484 1158.03 79.7891C1157.76 79.9245 1157.52 80.1276 1157.32 80.3984C1157.12 80.6693 1156.97 81 1156.86 81.3906C1156.75 81.7812 1156.7 82.2318 1156.7 82.7422V83.0703C1156.7 83.4714 1156.75 83.849 1156.86 84.2031C1156.97 84.5521 1157.14 84.8594 1157.35 85.125C1157.57 85.3906 1157.83 85.599 1158.14 85.75C1158.45 85.901 1158.81 85.9766 1159.2 85.9766C1159.71 85.9766 1160.15 85.8724 1160.5 85.6641C1160.85 85.4557 1161.16 85.1771 1161.43 84.8281L1162.3 85.5234C1162.12 85.7995 1161.89 86.0625 1161.61 86.3125C1161.33 86.5625 1160.98 86.7656 1160.57 86.9219C1160.16 87.0781 1159.68 87.1562 1159.12 87.1562Z" fill="black"/>
<circle cx="1153" cy="15" r="10" transform="rotate(-180 1153 15)" fill="#313549"/>
<path d="M818.867 33.5703L815.773 43H813.281L817.508 31.625H819.094L818.867 33.5703ZM821.438 43L818.336 33.5703L818.086 31.625H819.688L823.938 43H821.438ZM821.297 38.7656V40.6016H815.289V38.7656H821.297ZM829.758 40.9766V34.5469H832.008V43H829.891L829.758 40.9766ZM830.008 39.2422L830.672 39.2266C830.672 39.7891 830.607 40.3125 830.477 40.7969C830.346 41.276 830.151 41.6927 829.891 42.0469C829.63 42.3958 829.302 42.6693 828.906 42.8672C828.51 43.0599 828.044 43.1562 827.508 43.1562C827.096 43.1562 826.716 43.099 826.367 42.9844C826.023 42.8646 825.727 42.6797 825.477 42.4297C825.232 42.1745 825.039 41.849 824.898 41.4531C824.763 41.0521 824.695 40.5703 824.695 40.0078V34.5469H826.945V40.0234C826.945 40.2734 826.974 40.4844 827.031 40.6562C827.094 40.8281 827.18 40.9688 827.289 41.0781C827.398 41.1875 827.526 41.2656 827.672 41.3125C827.823 41.3594 827.99 41.3828 828.172 41.3828C828.635 41.3828 829 41.2891 829.266 41.1016C829.536 40.9141 829.727 40.6589 829.836 40.3359C829.951 40.0078 830.008 39.6432 830.008 39.2422ZM839.078 34.5469H841.117V42.7188C841.117 43.4896 840.945 44.1432 840.602 44.6797C840.263 45.2214 839.789 45.6302 839.18 45.9062C838.57 46.1875 837.862 46.3281 837.055 46.3281C836.701 46.3281 836.326 46.2812 835.93 46.1875C835.539 46.0938 835.164 45.9479 834.805 45.75C834.451 45.5521 834.154 45.3021 833.914 45L834.906 43.6719C835.167 43.974 835.469 44.2083 835.812 44.375C836.156 44.5469 836.536 44.6328 836.953 44.6328C837.359 44.6328 837.703 44.5573 837.984 44.4062C838.266 44.2604 838.482 44.0443 838.633 43.7578C838.784 43.4766 838.859 43.1354 838.859 42.7344V36.5L839.078 34.5469ZM833.391 38.875V38.7109C833.391 38.0651 833.469 37.4792 833.625 36.9531C833.786 36.4219 834.013 35.9661 834.305 35.5859C834.602 35.2057 834.961 34.9115 835.383 34.7031C835.805 34.4948 836.281 34.3906 836.812 34.3906C837.375 34.3906 837.846 34.4948 838.227 34.7031C838.607 34.9115 838.919 35.2083 839.164 35.5938C839.409 35.974 839.599 36.4245 839.734 36.9453C839.875 37.4609 839.984 38.026 840.062 38.6406V39C839.984 39.5885 839.867 40.1354 839.711 40.6406C839.555 41.1458 839.349 41.5885 839.094 41.9688C838.839 42.3438 838.521 42.6354 838.141 42.8438C837.766 43.0521 837.318 43.1562 836.797 43.1562C836.276 43.1562 835.805 43.0495 835.383 42.8359C834.966 42.6224 834.609 42.3229 834.312 41.9375C834.016 41.5521 833.786 41.099 833.625 40.5781C833.469 40.0573 833.391 39.4896 833.391 38.875ZM835.641 38.7109V38.875C835.641 39.224 835.674 39.5495 835.742 39.8516C835.81 40.1536 835.914 40.4219 836.055 40.6562C836.201 40.8854 836.38 41.0651 836.594 41.1953C836.812 41.3203 837.07 41.3828 837.367 41.3828C837.779 41.3828 838.115 41.2969 838.375 41.125C838.635 40.9479 838.831 40.7057 838.961 40.3984C839.091 40.0911 839.167 39.737 839.188 39.3359V38.3125C839.177 37.9844 839.133 37.6901 839.055 37.4297C838.977 37.1641 838.867 36.9375 838.727 36.75C838.586 36.5625 838.404 36.4167 838.18 36.3125C837.956 36.2083 837.69 36.1562 837.383 36.1562C837.086 36.1562 836.828 36.224 836.609 36.3594C836.396 36.4896 836.216 36.6693 836.07 36.8984C835.93 37.1276 835.823 37.3984 835.75 37.7109C835.677 38.0182 835.641 38.3516 835.641 38.7109ZM847.867 40.9766V34.5469H850.117V43H848L847.867 40.9766ZM848.117 39.2422L848.781 39.2266C848.781 39.7891 848.716 40.3125 848.586 40.7969C848.456 41.276 848.26 41.6927 848 42.0469C847.74 42.3958 847.411 42.6693 847.016 42.8672C846.62 43.0599 846.154 43.1562 845.617 43.1562C845.206 43.1562 844.826 43.099 844.477 42.9844C844.133 42.8646 843.836 42.6797 843.586 42.4297C843.341 42.1745 843.148 41.849 843.008 41.4531C842.872 41.0521 842.805 40.5703 842.805 40.0078V34.5469H845.055V40.0234C845.055 40.2734 845.083 40.4844 845.141 40.6562C845.203 40.8281 845.289 40.9688 845.398 41.0781C845.508 41.1875 845.635 41.2656 845.781 41.3125C845.932 41.3594 846.099 41.3828 846.281 41.3828C846.745 41.3828 847.109 41.2891 847.375 41.1016C847.646 40.9141 847.836 40.6589 847.945 40.3359C848.06 40.0078 848.117 39.6432 848.117 39.2422ZM856.406 40.6641C856.406 40.5026 856.359 40.3568 856.266 40.2266C856.172 40.0964 855.997 39.9766 855.742 39.8672C855.492 39.7526 855.13 39.6484 854.656 39.5547C854.229 39.4609 853.831 39.3438 853.461 39.2031C853.096 39.0573 852.779 38.8828 852.508 38.6797C852.242 38.4766 852.034 38.237 851.883 37.9609C851.732 37.6797 851.656 37.3594 851.656 37C851.656 36.6458 851.732 36.3125 851.883 36C852.039 35.6875 852.26 35.4115 852.547 35.1719C852.839 34.9271 853.193 34.737 853.609 34.6016C854.031 34.4609 854.505 34.3906 855.031 34.3906C855.766 34.3906 856.396 34.5078 856.922 34.7422C857.453 34.9766 857.859 35.2995 858.141 35.7109C858.427 36.1172 858.57 36.5807 858.57 37.1016H856.32C856.32 36.8828 856.273 36.6875 856.18 36.5156C856.091 36.3385 855.951 36.2005 855.758 36.1016C855.57 35.9974 855.326 35.9453 855.023 35.9453C854.773 35.9453 854.557 35.9896 854.375 36.0781C854.193 36.1615 854.052 36.276 853.953 36.4219C853.859 36.5625 853.812 36.7188 853.812 36.8906C853.812 37.0208 853.839 37.138 853.891 37.2422C853.948 37.3411 854.039 37.4323 854.164 37.5156C854.289 37.599 854.451 37.6771 854.648 37.75C854.852 37.8177 855.102 37.8802 855.398 37.9375C856.008 38.0625 856.552 38.2266 857.031 38.4297C857.51 38.6276 857.891 38.8984 858.172 39.2422C858.453 39.5807 858.594 40.026 858.594 40.5781C858.594 40.9531 858.51 41.2969 858.344 41.6094C858.177 41.9219 857.938 42.1953 857.625 42.4297C857.312 42.6589 856.938 42.8385 856.5 42.9688C856.068 43.0938 855.581 43.1562 855.039 43.1562C854.253 43.1562 853.586 43.0156 853.039 42.7344C852.497 42.4531 852.086 42.0964 851.805 41.6641C851.529 41.2266 851.391 40.7786 851.391 40.3203H853.523C853.534 40.6276 853.612 40.875 853.758 41.0625C853.909 41.25 854.099 41.3854 854.328 41.4688C854.562 41.5521 854.815 41.5938 855.086 41.5938C855.378 41.5938 855.62 41.5547 855.812 41.4766C856.005 41.3932 856.151 41.2839 856.25 41.1484C856.354 41.0078 856.406 40.8464 856.406 40.6641ZM864.195 34.5469V36.1406H859.273V34.5469H864.195ZM860.492 32.4609H862.742V40.4531C862.742 40.6979 862.773 40.8854 862.836 41.0156C862.904 41.1458 863.003 41.237 863.133 41.2891C863.263 41.3359 863.427 41.3594 863.625 41.3594C863.766 41.3594 863.891 41.3542 864 41.3438C864.115 41.3281 864.211 41.3125 864.289 41.2969L864.297 42.9531C864.104 43.0156 863.896 43.0651 863.672 43.1016C863.448 43.138 863.201 43.1562 862.93 43.1562C862.435 43.1562 862.003 43.0755 861.633 42.9141C861.268 42.7474 860.987 42.4818 860.789 42.1172C860.591 41.7526 860.492 41.2734 860.492 40.6797V32.4609ZM874.852 31.6016V43H872.602V34.1953L869.898 35.0547V33.2812L874.609 31.6016H874.852ZM830.172 53.625H831.633L835.359 62.8984L839.078 53.625H840.547L835.922 65H834.781L830.172 53.625ZM829.695 53.625H830.984L831.195 60.5625V65H829.695V53.625ZM839.727 53.625H841.016V65H839.516V60.5625L839.727 53.625ZM847.336 63.2734L850.688 53.625H852.32L848.109 65H846.945L847.336 63.2734ZM844.203 53.625L847.523 63.2734L847.938 65H846.773L842.57 53.625H844.203ZM858.047 60.5391H855.008V59.3125H858.047C858.635 59.3125 859.112 59.2188 859.477 59.0312C859.841 58.8438 860.107 58.5833 860.273 58.25C860.445 57.9167 860.531 57.5365 860.531 57.1094C860.531 56.7188 860.445 56.3516 860.273 56.0078C860.107 55.6641 859.841 55.388 859.477 55.1797C859.112 54.9661 858.635 54.8594 858.047 54.8594H855.359V65H853.852V53.625H858.047C858.906 53.625 859.633 53.7734 860.227 54.0703C860.82 54.3672 861.271 54.7786 861.578 55.3047C861.885 55.8255 862.039 56.4219 862.039 57.0938C862.039 57.8229 861.885 58.4453 861.578 58.9609C861.271 59.4766 860.82 59.8698 860.227 60.1406C859.633 60.4062 858.906 60.5391 858.047 60.5391Z" fill="black"/>
<circle cx="845" cy="15" r="10" transform="rotate(-180 845 15)" fill="#313549"/>
<path d="M603.18 39.5078V31.625H605.516V39.5078C605.516 40.2682 605.349 40.9219 605.016 41.4688C604.682 42.0104 604.227 42.4271 603.648 42.7188C603.076 43.0104 602.43 43.1562 601.711 43.1562C600.966 43.1562 600.307 43.0312 599.734 42.7812C599.161 42.5312 598.711 42.1484 598.383 41.6328C598.055 41.112 597.891 40.4531 597.891 39.6562H600.242C600.242 40.0729 600.299 40.4036 600.414 40.6484C600.534 40.8932 600.703 41.0677 600.922 41.1719C601.141 41.276 601.404 41.3281 601.711 41.3281C602.008 41.3281 602.266 41.2578 602.484 41.1172C602.703 40.9766 602.872 40.7708 602.992 40.5C603.117 40.2292 603.18 39.8984 603.18 39.5078ZM612.375 40.9766V34.5469H614.625V43H612.508L612.375 40.9766ZM612.625 39.2422L613.289 39.2266C613.289 39.7891 613.224 40.3125 613.094 40.7969C612.964 41.276 612.768 41.6927 612.508 42.0469C612.247 42.3958 611.919 42.6693 611.523 42.8672C611.128 43.0599 610.661 43.1562 610.125 43.1562C609.714 43.1562 609.333 43.099 608.984 42.9844C608.641 42.8646 608.344 42.6797 608.094 42.4297C607.849 42.1745 607.656 41.849 607.516 41.4531C607.38 41.0521 607.312 40.5703 607.312 40.0078V34.5469H609.562V40.0234C609.562 40.2734 609.591 40.4844 609.648 40.6562C609.711 40.8281 609.797 40.9688 609.906 41.0781C610.016 41.1875 610.143 41.2656 610.289 41.3125C610.44 41.3594 610.607 41.3828 610.789 41.3828C611.253 41.3828 611.617 41.2891 611.883 41.1016C612.154 40.9141 612.344 40.6589 612.453 40.3359C612.568 40.0078 612.625 39.6432 612.625 39.2422ZM618.547 36.3516V43H616.297V34.5469H618.406L618.547 36.3516ZM618.219 38.4766H617.609C617.609 37.8516 617.69 37.2891 617.852 36.7891C618.013 36.2839 618.24 35.8542 618.531 35.5C618.823 35.1406 619.169 34.8672 619.57 34.6797C619.977 34.487 620.43 34.3906 620.93 34.3906C621.326 34.3906 621.688 34.4479 622.016 34.5625C622.344 34.6771 622.625 34.8594 622.859 35.1094C623.099 35.3594 623.281 35.6901 623.406 36.1016C623.536 36.513 623.602 37.0156 623.602 37.6094V43H621.336V37.6016C621.336 37.2266 621.284 36.9349 621.18 36.7266C621.076 36.5182 620.922 36.3724 620.719 36.2891C620.521 36.2005 620.276 36.1562 619.984 36.1562C619.682 36.1562 619.419 36.2161 619.195 36.3359C618.977 36.4557 618.794 36.6224 618.648 36.8359C618.508 37.0443 618.401 37.2891 618.328 37.5703C618.255 37.8516 618.219 38.1536 618.219 38.4766ZM629.203 43.1562C628.547 43.1562 627.958 43.0521 627.438 42.8438C626.917 42.6302 626.474 42.3359 626.109 41.9609C625.75 41.5859 625.474 41.151 625.281 40.6562C625.089 40.1562 624.992 39.625 624.992 39.0625V38.75C624.992 38.1094 625.083 37.5234 625.266 36.9922C625.448 36.4609 625.708 36 626.047 35.6094C626.391 35.2188 626.807 34.9193 627.297 34.7109C627.786 34.4974 628.339 34.3906 628.953 34.3906C629.552 34.3906 630.083 34.4896 630.547 34.6875C631.01 34.8854 631.398 35.1667 631.711 35.5312C632.029 35.8958 632.268 36.3333 632.43 36.8438C632.591 37.349 632.672 37.9115 632.672 38.5312V39.4688H625.953V37.9688H630.461V37.7969C630.461 37.4844 630.404 37.2057 630.289 36.9609C630.18 36.7109 630.013 36.513 629.789 36.3672C629.565 36.2214 629.279 36.1484 628.93 36.1484C628.633 36.1484 628.378 36.2135 628.164 36.3438C627.951 36.474 627.776 36.6562 627.641 36.8906C627.51 37.125 627.411 37.401 627.344 37.7188C627.281 38.0312 627.25 38.375 627.25 38.75V39.0625C627.25 39.401 627.297 39.7135 627.391 40C627.49 40.2865 627.628 40.5339 627.805 40.7422C627.987 40.9505 628.206 41.112 628.461 41.2266C628.721 41.3411 629.016 41.3984 629.344 41.3984C629.75 41.3984 630.128 41.3203 630.477 41.1641C630.831 41.0026 631.135 40.7604 631.391 40.4375L632.484 41.625C632.307 41.8802 632.065 42.125 631.758 42.3594C631.456 42.5938 631.091 42.7865 630.664 42.9375C630.237 43.0833 629.75 43.1562 629.203 43.1562ZM643.328 31.6016V43H641.078V34.1953L638.375 35.0547V33.2812L643.086 31.6016H643.328ZM649.336 36.3359H650.539C650.924 36.3359 651.242 36.2708 651.492 36.1406C651.742 36.0052 651.927 35.8177 652.047 35.5781C652.172 35.3333 652.234 35.0495 652.234 34.7266C652.234 34.4349 652.177 34.1771 652.062 33.9531C651.953 33.724 651.784 33.5469 651.555 33.4219C651.326 33.2917 651.036 33.2266 650.688 33.2266C650.411 33.2266 650.156 33.2812 649.922 33.3906C649.688 33.5 649.5 33.6536 649.359 33.8516C649.219 34.0495 649.148 34.2891 649.148 34.5703H646.891C646.891 33.9453 647.057 33.401 647.391 32.9375C647.729 32.474 648.182 32.112 648.75 31.8516C649.318 31.5911 649.943 31.4609 650.625 31.4609C651.396 31.4609 652.07 31.5859 652.648 31.8359C653.227 32.0807 653.677 32.4427 654 32.9219C654.323 33.401 654.484 33.9948 654.484 34.7031C654.484 35.0625 654.401 35.4115 654.234 35.75C654.068 36.0833 653.828 36.3854 653.516 36.6562C653.208 36.9219 652.833 37.1354 652.391 37.2969C651.948 37.4531 651.451 37.5312 650.898 37.5312H649.336V36.3359ZM649.336 38.0469V36.8828H650.898C651.518 36.8828 652.062 36.9531 652.531 37.0938C653 37.2344 653.393 37.4375 653.711 37.7031C654.029 37.9635 654.268 38.2734 654.43 38.6328C654.591 38.987 654.672 39.3802 654.672 39.8125C654.672 40.3438 654.57 40.8177 654.367 41.2344C654.164 41.6458 653.878 41.9948 653.508 42.2812C653.143 42.5677 652.716 42.7865 652.227 42.9375C651.737 43.0833 651.203 43.1562 650.625 43.1562C650.146 43.1562 649.674 43.0911 649.211 42.9609C648.753 42.8255 648.336 42.625 647.961 42.3594C647.591 42.0885 647.294 41.75 647.07 41.3438C646.852 40.9323 646.742 40.4453 646.742 39.8828H649C649 40.1745 649.073 40.4349 649.219 40.6641C649.365 40.8932 649.565 41.0729 649.82 41.2031C650.081 41.3333 650.37 41.3984 650.688 41.3984C651.047 41.3984 651.354 41.3333 651.609 41.2031C651.87 41.0677 652.068 40.8802 652.203 40.6406C652.344 40.3958 652.414 40.112 652.414 39.7891C652.414 39.3724 652.339 39.0391 652.188 38.7891C652.036 38.5339 651.82 38.3464 651.539 38.2266C651.258 38.1068 650.924 38.0469 650.539 38.0469H649.336ZM583.078 53.625V65H581.57V53.625H583.078ZM587.047 58.3516V65H585.602V56.5469H586.969L587.047 58.3516ZM586.703 60.4531L586.102 60.4297C586.107 59.8516 586.193 59.3177 586.359 58.8281C586.526 58.3333 586.76 57.9036 587.062 57.5391C587.365 57.1745 587.724 56.8932 588.141 56.6953C588.562 56.4922 589.029 56.3906 589.539 56.3906C589.956 56.3906 590.331 56.4479 590.664 56.5625C590.997 56.6719 591.281 56.849 591.516 57.0938C591.755 57.3385 591.938 57.6562 592.062 58.0469C592.188 58.4323 592.25 58.9036 592.25 59.4609V65H590.797V59.4453C590.797 59.0026 590.732 58.6484 590.602 58.3828C590.471 58.112 590.281 57.9167 590.031 57.7969C589.781 57.6719 589.474 57.6094 589.109 57.6094C588.75 57.6094 588.422 57.6849 588.125 57.8359C587.833 57.987 587.581 58.1953 587.367 58.4609C587.159 58.7266 586.995 59.0312 586.875 59.375C586.76 59.7135 586.703 60.0729 586.703 60.4531ZM597.828 63.9688C598.172 63.9688 598.49 63.8984 598.781 63.7578C599.073 63.6172 599.312 63.4245 599.5 63.1797C599.688 62.9297 599.794 62.6458 599.82 62.3281H601.195C601.169 62.8281 601 63.2943 600.688 63.7266C600.38 64.1536 599.977 64.5 599.477 64.7656C598.977 65.026 598.427 65.1562 597.828 65.1562C597.193 65.1562 596.638 65.0443 596.164 64.8203C595.695 64.5964 595.305 64.2891 594.992 63.8984C594.685 63.5078 594.453 63.0599 594.297 62.5547C594.146 62.0443 594.07 61.5052 594.07 60.9375V60.6094C594.07 60.0417 594.146 59.5052 594.297 59C594.453 58.4896 594.685 58.0391 594.992 57.6484C595.305 57.2578 595.695 56.9505 596.164 56.7266C596.638 56.5026 597.193 56.3906 597.828 56.3906C598.49 56.3906 599.068 56.526 599.562 56.7969C600.057 57.0625 600.445 57.4271 600.727 57.8906C601.013 58.349 601.169 58.8698 601.195 59.4531H599.82C599.794 59.1042 599.695 58.7891 599.523 58.5078C599.357 58.2266 599.128 58.0026 598.836 57.8359C598.549 57.6641 598.214 57.5781 597.828 57.5781C597.385 57.5781 597.013 57.6667 596.711 57.8438C596.414 58.0156 596.177 58.25 596 58.5469C595.828 58.8385 595.703 59.1641 595.625 59.5234C595.552 59.8776 595.516 60.2396 595.516 60.6094V60.9375C595.516 61.3073 595.552 61.6719 595.625 62.0312C595.698 62.3906 595.82 62.7161 595.992 63.0078C596.169 63.2995 596.406 63.5339 596.703 63.7109C597.005 63.8828 597.38 63.9688 597.828 63.9688ZM607.992 63.0469V56.5469H609.445V65H608.062L607.992 63.0469ZM608.266 61.2656L608.867 61.25C608.867 61.8125 608.807 62.3333 608.688 62.8125C608.573 63.2865 608.385 63.6979 608.125 64.0469C607.865 64.3958 607.523 64.6693 607.102 64.8672C606.68 65.0599 606.167 65.1562 605.562 65.1562C605.151 65.1562 604.773 65.0964 604.43 64.9766C604.091 64.8568 603.799 64.6719 603.555 64.4219C603.31 64.1719 603.12 63.8464 602.984 63.4453C602.854 63.0443 602.789 62.5625 602.789 62V56.5469H604.234V62.0156C604.234 62.3958 604.276 62.7109 604.359 62.9609C604.448 63.2057 604.565 63.401 604.711 63.5469C604.862 63.6875 605.029 63.7865 605.211 63.8438C605.398 63.901 605.591 63.9297 605.789 63.9297C606.404 63.9297 606.891 63.8125 607.25 63.5781C607.609 63.3385 607.867 63.0182 608.023 62.6172C608.185 62.2109 608.266 61.7604 608.266 61.2656ZM611.641 53H613.094V63.3594L612.969 65H611.641V53ZM618.805 60.7031V60.8672C618.805 61.4818 618.732 62.0521 618.586 62.5781C618.44 63.099 618.227 63.5521 617.945 63.9375C617.664 64.3229 617.32 64.6224 616.914 64.8359C616.508 65.0495 616.042 65.1562 615.516 65.1562C614.979 65.1562 614.508 65.0651 614.102 64.8828C613.701 64.6953 613.362 64.4271 613.086 64.0781C612.81 63.7292 612.589 63.3073 612.422 62.8125C612.26 62.3177 612.148 61.7604 612.086 61.1406V60.4219C612.148 59.7969 612.26 59.237 612.422 58.7422C612.589 58.2474 612.81 57.8255 613.086 57.4766C613.362 57.1224 613.701 56.8542 614.102 56.6719C614.503 56.4844 614.969 56.3906 615.5 56.3906C616.031 56.3906 616.503 56.4948 616.914 56.7031C617.326 56.9062 617.669 57.1979 617.945 57.5781C618.227 57.9583 618.44 58.4141 618.586 58.9453C618.732 59.4714 618.805 60.0573 618.805 60.7031ZM617.352 60.8672V60.7031C617.352 60.2812 617.312 59.8854 617.234 59.5156C617.156 59.1406 617.031 58.8125 616.859 58.5312C616.688 58.2448 616.461 58.0208 616.18 57.8594C615.898 57.6927 615.552 57.6094 615.141 57.6094C614.776 57.6094 614.458 57.6719 614.188 57.7969C613.922 57.9219 613.695 58.0911 613.508 58.3047C613.32 58.513 613.167 58.7526 613.047 59.0234C612.932 59.2891 612.846 59.5651 612.789 59.8516V61.7344C612.872 62.099 613.008 62.4505 613.195 62.7891C613.388 63.1224 613.643 63.3958 613.961 63.6094C614.284 63.8229 614.682 63.9297 615.156 63.9297C615.547 63.9297 615.88 63.8516 616.156 63.6953C616.438 63.5339 616.664 63.3125 616.836 63.0312C617.013 62.75 617.143 62.4245 617.227 62.0547C617.31 61.6849 617.352 61.2891 617.352 60.8672ZM625.617 63.5547V59.2031C625.617 58.8698 625.549 58.5807 625.414 58.3359C625.284 58.0859 625.086 57.8932 624.82 57.7578C624.555 57.6224 624.227 57.5547 623.836 57.5547C623.471 57.5547 623.151 57.6172 622.875 57.7422C622.604 57.8672 622.391 58.0312 622.234 58.2344C622.083 58.4375 622.008 58.6562 622.008 58.8906H620.562C620.562 58.5885 620.641 58.2891 620.797 57.9922C620.953 57.6953 621.177 57.4271 621.469 57.1875C621.766 56.9427 622.12 56.75 622.531 56.6094C622.948 56.4635 623.411 56.3906 623.922 56.3906C624.536 56.3906 625.078 56.4948 625.547 56.7031C626.021 56.9115 626.391 57.2266 626.656 57.6484C626.927 58.0651 627.062 58.5885 627.062 59.2188V63.1562C627.062 63.4375 627.086 63.737 627.133 64.0547C627.185 64.3724 627.26 64.6458 627.359 64.875V65H625.852C625.779 64.8333 625.721 64.612 625.68 64.3359C625.638 64.0547 625.617 63.7943 625.617 63.5547ZM625.867 59.875L625.883 60.8906H624.422C624.01 60.8906 623.643 60.9245 623.32 60.9922C622.997 61.0547 622.727 61.151 622.508 61.2812C622.289 61.4115 622.122 61.5755 622.008 61.7734C621.893 61.9661 621.836 62.1927 621.836 62.4531C621.836 62.7188 621.896 62.9609 622.016 63.1797C622.135 63.3984 622.315 63.5729 622.555 63.7031C622.799 63.8281 623.099 63.8906 623.453 63.8906C623.896 63.8906 624.286 63.7969 624.625 63.6094C624.964 63.4219 625.232 63.1927 625.43 62.9219C625.633 62.651 625.742 62.388 625.758 62.1328L626.375 62.8281C626.339 63.0469 626.24 63.2891 626.078 63.5547C625.917 63.8203 625.701 64.0755 625.43 64.3203C625.164 64.5599 624.846 64.7604 624.477 64.9219C624.112 65.0781 623.701 65.1562 623.242 65.1562C622.669 65.1562 622.167 65.0443 621.734 64.8203C621.307 64.5964 620.974 64.2969 620.734 63.9219C620.5 63.5417 620.383 63.1172 620.383 62.6484C620.383 62.1953 620.471 61.7969 620.648 61.4531C620.826 61.1042 621.081 60.8151 621.414 60.5859C621.747 60.3516 622.148 60.1745 622.617 60.0547C623.086 59.9349 623.609 59.875 624.188 59.875H625.867ZM632.875 56.5469V57.6562H628.305V56.5469H632.875ZM629.852 54.4922H631.297V62.9062C631.297 63.1927 631.341 63.4089 631.43 63.5547C631.518 63.7005 631.633 63.7969 631.773 63.8438C631.914 63.8906 632.065 63.9141 632.227 63.9141C632.346 63.9141 632.471 63.9036 632.602 63.8828C632.737 63.8568 632.839 63.8359 632.906 63.8203L632.914 65C632.799 65.0365 632.648 65.0703 632.461 65.1016C632.279 65.138 632.057 65.1562 631.797 65.1562C631.443 65.1562 631.117 65.0859 630.82 64.9453C630.523 64.8047 630.286 64.5703 630.109 64.2422C629.938 63.9089 629.852 63.4609 629.852 62.8984V54.4922ZM638.078 65.1562C637.49 65.1562 636.956 65.0573 636.477 64.8594C636.003 64.6562 635.594 64.3724 635.25 64.0078C634.911 63.6432 634.651 63.2109 634.469 62.7109C634.286 62.2109 634.195 61.6641 634.195 61.0703V60.7422C634.195 60.0547 634.297 59.4427 634.5 58.9062C634.703 58.3646 634.979 57.9062 635.328 57.5312C635.677 57.1562 636.073 56.8724 636.516 56.6797C636.958 56.487 637.417 56.3906 637.891 56.3906C638.495 56.3906 639.016 56.4948 639.453 56.7031C639.896 56.9115 640.258 57.2031 640.539 57.5781C640.82 57.9479 641.029 58.3854 641.164 58.8906C641.299 59.3906 641.367 59.9375 641.367 60.5312V61.1797H635.055V60H639.922V59.8906C639.901 59.5156 639.823 59.151 639.688 58.7969C639.557 58.4427 639.349 58.151 639.062 57.9219C638.776 57.6927 638.385 57.5781 637.891 57.5781C637.562 57.5781 637.26 57.6484 636.984 57.7891C636.708 57.9245 636.471 58.1276 636.273 58.3984C636.076 58.6693 635.922 59 635.812 59.3906C635.703 59.7812 635.648 60.2318 635.648 60.7422V61.0703C635.648 61.4714 635.703 61.849 635.812 62.2031C635.927 62.5521 636.091 62.8594 636.305 63.125C636.523 63.3906 636.786 63.599 637.094 63.75C637.406 63.901 637.76 63.9766 638.156 63.9766C638.667 63.9766 639.099 63.8724 639.453 63.6641C639.807 63.4557 640.117 63.1771 640.383 62.8281L641.258 63.5234C641.076 63.7995 640.844 64.0625 640.562 64.3125C640.281 64.5625 639.935 64.7656 639.523 64.9219C639.117 65.0781 638.635 65.1562 638.078 65.1562ZM648.383 63.3594V53H649.836V65H648.508L648.383 63.3594ZM642.695 60.8672V60.7031C642.695 60.0573 642.773 59.4714 642.93 58.9453C643.091 58.4141 643.318 57.9583 643.609 57.5781C643.906 57.1979 644.258 56.9062 644.664 56.7031C645.076 56.4948 645.534 56.3906 646.039 56.3906C646.57 56.3906 647.034 56.4844 647.43 56.6719C647.831 56.8542 648.169 57.1224 648.445 57.4766C648.727 57.8255 648.948 58.2474 649.109 58.7422C649.271 59.237 649.383 59.7969 649.445 60.4219V61.1406C649.388 61.7604 649.276 62.3177 649.109 62.8125C648.948 63.3073 648.727 63.7292 648.445 64.0781C648.169 64.4271 647.831 64.6953 647.43 64.8828C647.029 65.0651 646.56 65.1562 646.023 65.1562C645.529 65.1562 645.076 65.0495 644.664 64.8359C644.258 64.6224 643.906 64.3229 643.609 63.9375C643.318 63.5521 643.091 63.099 642.93 62.5781C642.773 62.0521 642.695 61.4818 642.695 60.8672ZM644.148 60.7031V60.8672C644.148 61.2891 644.19 61.6849 644.273 62.0547C644.362 62.4245 644.497 62.75 644.68 63.0312C644.862 63.3125 645.094 63.5339 645.375 63.6953C645.656 63.8516 645.992 63.9297 646.383 63.9297C646.862 63.9297 647.255 63.8281 647.562 63.625C647.875 63.4219 648.125 63.1536 648.312 62.8203C648.5 62.487 648.646 62.125 648.75 61.7344V59.8516C648.688 59.5651 648.596 59.2891 648.477 59.0234C648.362 58.7526 648.211 58.513 648.023 58.3047C647.841 58.0911 647.615 57.9219 647.344 57.7969C647.078 57.6719 646.763 57.6094 646.398 57.6094C646.003 57.6094 645.661 57.6927 645.375 57.8594C645.094 58.0208 644.862 58.2448 644.68 58.5312C644.497 58.8125 644.362 59.1406 644.273 59.5156C644.19 59.8854 644.148 60.2812 644.148 60.7031ZM661.039 63.5547V59.2031C661.039 58.8698 660.971 58.5807 660.836 58.3359C660.706 58.0859 660.508 57.8932 660.242 57.7578C659.977 57.6224 659.648 57.5547 659.258 57.5547C658.893 57.5547 658.573 57.6172 658.297 57.7422C658.026 57.8672 657.812 58.0312 657.656 58.2344C657.505 58.4375 657.43 58.6562 657.43 58.8906H655.984C655.984 58.5885 656.062 58.2891 656.219 57.9922C656.375 57.6953 656.599 57.4271 656.891 57.1875C657.188 56.9427 657.542 56.75 657.953 56.6094C658.37 56.4635 658.833 56.3906 659.344 56.3906C659.958 56.3906 660.5 56.4948 660.969 56.7031C661.443 56.9115 661.812 57.2266 662.078 57.6484C662.349 58.0651 662.484 58.5885 662.484 59.2188V63.1562C662.484 63.4375 662.508 63.737 662.555 64.0547C662.607 64.3724 662.682 64.6458 662.781 64.875V65H661.273C661.201 64.8333 661.143 64.612 661.102 64.3359C661.06 64.0547 661.039 63.7943 661.039 63.5547ZM661.289 59.875L661.305 60.8906H659.844C659.432 60.8906 659.065 60.9245 658.742 60.9922C658.419 61.0547 658.148 61.151 657.93 61.2812C657.711 61.4115 657.544 61.5755 657.43 61.7734C657.315 61.9661 657.258 62.1927 657.258 62.4531C657.258 62.7188 657.318 62.9609 657.438 63.1797C657.557 63.3984 657.737 63.5729 657.977 63.7031C658.221 63.8281 658.521 63.8906 658.875 63.8906C659.318 63.8906 659.708 63.7969 660.047 63.6094C660.385 63.4219 660.654 63.1927 660.852 62.9219C661.055 62.651 661.164 62.388 661.18 62.1328L661.797 62.8281C661.76 63.0469 661.661 63.2891 661.5 63.5547C661.339 63.8203 661.122 64.0755 660.852 64.3203C660.586 64.5599 660.268 64.7604 659.898 64.9219C659.534 65.0781 659.122 65.1562 658.664 65.1562C658.091 65.1562 657.589 65.0443 657.156 64.8203C656.729 64.5964 656.396 64.2969 656.156 63.9219C655.922 63.5417 655.805 63.1172 655.805 62.6484C655.805 62.1953 655.893 61.7969 656.07 61.4531C656.247 61.1042 656.503 60.8151 656.836 60.5859C657.169 60.3516 657.57 60.1745 658.039 60.0547C658.508 59.9349 659.031 59.875 659.609 59.875H661.289ZM668.297 56.5469V57.6562H663.727V56.5469H668.297ZM665.273 54.4922H666.719V62.9062C666.719 63.1927 666.763 63.4089 666.852 63.5547C666.94 63.7005 667.055 63.7969 667.195 63.8438C667.336 63.8906 667.487 63.9141 667.648 63.9141C667.768 63.9141 667.893 63.9036 668.023 63.8828C668.159 63.8568 668.26 63.8359 668.328 63.8203L668.336 65C668.221 65.0365 668.07 65.0703 667.883 65.1016C667.701 65.138 667.479 65.1562 667.219 65.1562C666.865 65.1562 666.539 65.0859 666.242 64.9453C665.945 64.8047 665.708 64.5703 665.531 64.2422C665.359 63.9089 665.273 63.4609 665.273 62.8984V54.4922ZM621.352 75.625V87H619.836L614.109 78.2266V87H612.602V75.625H614.109L619.859 84.4219V75.625H621.352ZM624.328 75.625L627.281 81.3359L630.242 75.625H631.953L628.031 82.75V87H626.523V82.75L622.602 75.625H624.328ZM639.172 75.625H640.672V83.3203C640.672 84.1745 640.482 84.8854 640.102 85.4531C639.721 86.0208 639.216 86.4479 638.586 86.7344C637.961 87.0156 637.281 87.1562 636.547 87.1562C635.776 87.1562 635.078 87.0156 634.453 86.7344C633.833 86.4479 633.341 86.0208 632.977 85.4531C632.617 84.8854 632.438 84.1745 632.438 83.3203V75.625H633.93V83.3203C633.93 83.9141 634.039 84.4036 634.258 84.7891C634.477 85.1745 634.781 85.4609 635.172 85.6484C635.568 85.8359 636.026 85.9297 636.547 85.9297C637.073 85.9297 637.531 85.8359 637.922 85.6484C638.318 85.4609 638.625 85.1745 638.844 84.7891C639.062 84.4036 639.172 83.9141 639.172 83.3203V75.625Z" fill="black"/>
<circle cx="626" cy="15" r="10" transform="rotate(-180 626 15)" fill="#313549"/>
<circle cx="446" cy="15" r="15" transform="rotate(-180 446 15)" fill="#6A6D7C"/>
<path d="M5.61719 39.5078V31.625H7.95312V39.5078C7.95312 40.2682 7.78646 40.9219 7.45312 41.4688C7.11979 42.0104 6.66406 42.4271 6.08594 42.7188C5.51302 43.0104 4.86719 43.1562 4.14844 43.1562C3.40365 43.1562 2.74479 43.0312 2.17188 42.7812C1.59896 42.5312 1.14844 42.1484 0.820312 41.6328C0.492188 41.112 0.328125 40.4531 0.328125 39.6562H2.67969C2.67969 40.0729 2.73698 40.4036 2.85156 40.6484C2.97135 40.8932 3.14062 41.0677 3.35938 41.1719C3.57812 41.276 3.84115 41.3281 4.14844 41.3281C4.44531 41.3281 4.70312 41.2578 4.92188 41.1172C5.14062 40.9766 5.3099 40.7708 5.42969 40.5C5.55469 40.2292 5.61719 39.8984 5.61719 39.5078ZM14.375 41.0938V37.3281C14.375 37.0573 14.3307 36.8255 14.2422 36.6328C14.1536 36.4349 14.0156 36.2812 13.8281 36.1719C13.6458 36.0625 13.4089 36.0078 13.1172 36.0078C12.8672 36.0078 12.651 36.0521 12.4688 36.1406C12.2865 36.224 12.1458 36.3464 12.0469 36.5078C11.9479 36.6641 11.8984 36.849 11.8984 37.0625H9.64844C9.64844 36.7031 9.73177 36.362 9.89844 36.0391C10.0651 35.7161 10.3073 35.4323 10.625 35.1875C10.9427 34.9375 11.3203 34.7422 11.7578 34.6016C12.2005 34.4609 12.6953 34.3906 13.2422 34.3906C13.8984 34.3906 14.4818 34.5 14.9922 34.7188C15.5026 34.9375 15.9036 35.2656 16.1953 35.7031C16.4922 36.1406 16.6406 36.6875 16.6406 37.3438V40.9609C16.6406 41.4245 16.6693 41.8047 16.7266 42.1016C16.7839 42.3932 16.8672 42.6484 16.9766 42.8672V43H14.7031C14.5938 42.7708 14.5104 42.4844 14.4531 42.1406C14.401 41.7917 14.375 41.4427 14.375 41.0938ZM14.6719 37.8516L14.6875 39.125H13.4297C13.1328 39.125 12.875 39.1589 12.6562 39.2266C12.4375 39.2943 12.2578 39.3906 12.1172 39.5156C11.9766 39.6354 11.8724 39.776 11.8047 39.9375C11.7422 40.099 11.7109 40.276 11.7109 40.4688C11.7109 40.6615 11.7552 40.8359 11.8438 40.9922C11.9323 41.1432 12.0599 41.263 12.2266 41.3516C12.3932 41.4349 12.5885 41.4766 12.8125 41.4766C13.151 41.4766 13.4453 41.4089 13.6953 41.2734C13.9453 41.138 14.138 40.9714 14.2734 40.7734C14.4141 40.5755 14.487 40.388 14.4922 40.2109L15.0859 41.1641C15.0026 41.3776 14.888 41.599 14.7422 41.8281C14.6016 42.0573 14.4219 42.2734 14.2031 42.4766C13.9844 42.6745 13.7214 42.8385 13.4141 42.9688C13.1068 43.0938 12.7422 43.1562 12.3203 43.1562C11.7839 43.1562 11.2969 43.0495 10.8594 42.8359C10.4271 42.6172 10.0833 42.3177 9.82812 41.9375C9.57812 41.5521 9.45312 41.1146 9.45312 40.625C9.45312 40.1823 9.53646 39.7891 9.70312 39.4453C9.86979 39.1016 10.1146 38.8125 10.4375 38.5781C10.7656 38.3385 11.1745 38.1589 11.6641 38.0391C12.1536 37.9141 12.7214 37.8516 13.3672 37.8516H14.6719ZM20.5781 36.3516V43H18.3281V34.5469H20.4375L20.5781 36.3516ZM20.25 38.4766H19.6406C19.6406 37.8516 19.7214 37.2891 19.8828 36.7891C20.0443 36.2839 20.2708 35.8542 20.5625 35.5C20.8542 35.1406 21.2005 34.8672 21.6016 34.6797C22.0078 34.487 22.4609 34.3906 22.9609 34.3906C23.3568 34.3906 23.7188 34.4479 24.0469 34.5625C24.375 34.6771 24.6562 34.8594 24.8906 35.1094C25.1302 35.3594 25.3125 35.6901 25.4375 36.1016C25.5677 36.513 25.6328 37.0156 25.6328 37.6094V43H23.3672V37.6016C23.3672 37.2266 23.3151 36.9349 23.2109 36.7266C23.1068 36.5182 22.9531 36.3724 22.75 36.2891C22.5521 36.2005 22.3073 36.1562 22.0156 36.1562C21.7135 36.1562 21.4505 36.2161 21.2266 36.3359C21.0078 36.4557 20.8255 36.6224 20.6797 36.8359C20.5391 37.0443 20.4323 37.2891 20.3594 37.5703C20.2865 37.8516 20.25 38.1536 20.25 38.4766ZM38.8984 39.8828C38.8984 40.5964 38.7318 41.1979 38.3984 41.6875C38.0651 42.1719 37.6068 42.5391 37.0234 42.7891C36.4453 43.0339 35.7891 43.1562 35.0547 43.1562C34.3203 43.1562 33.6615 43.0339 33.0781 42.7891C32.4948 42.5391 32.0339 42.1719 31.6953 41.6875C31.3568 41.1979 31.1875 40.5964 31.1875 39.8828C31.1875 39.4036 31.2839 38.9714 31.4766 38.5859C31.6693 38.1953 31.9375 37.862 32.2812 37.5859C32.6302 37.3047 33.0391 37.0911 33.5078 36.9453C33.9766 36.7943 34.487 36.7188 35.0391 36.7188C35.7786 36.7188 36.4401 36.849 37.0234 37.1094C37.6068 37.3698 38.0651 37.737 38.3984 38.2109C38.7318 38.6849 38.8984 39.2422 38.8984 39.8828ZM36.6328 39.7344C36.6328 39.3854 36.5651 39.0859 36.4297 38.8359C36.2995 38.5807 36.1146 38.3854 35.875 38.25C35.6354 38.1146 35.3568 38.0469 35.0391 38.0469C34.7214 38.0469 34.4427 38.1146 34.2031 38.25C33.9635 38.3854 33.776 38.5807 33.6406 38.8359C33.5104 39.0859 33.4453 39.3854 33.4453 39.7344C33.4453 40.0781 33.5104 40.375 33.6406 40.625C33.776 40.875 33.9635 41.0677 34.2031 41.2031C34.4479 41.3333 34.7318 41.3984 35.0547 41.3984C35.3776 41.3984 35.6562 41.3333 35.8906 41.2031C36.1302 41.0677 36.3125 40.875 36.4375 40.625C36.5677 40.375 36.6328 40.0781 36.6328 39.7344ZM38.6562 34.6406C38.6562 35.2188 38.5026 35.7318 38.1953 36.1797C37.888 36.6224 37.4609 36.9688 36.9141 37.2188C36.3724 37.4688 35.7526 37.5938 35.0547 37.5938C34.3516 37.5938 33.7266 37.4688 33.1797 37.2188C32.6328 36.9688 32.2057 36.6224 31.8984 36.1797C31.5911 35.7318 31.4375 35.2188 31.4375 34.6406C31.4375 33.9531 31.5911 33.375 31.8984 32.9062C32.2109 32.4323 32.638 32.0729 33.1797 31.8281C33.7266 31.5833 34.3464 31.4609 35.0391 31.4609C35.7422 31.4609 36.3646 31.5833 36.9062 31.8281C37.4531 32.0729 37.8802 32.4323 38.1875 32.9062C38.5 33.375 38.6562 33.9531 38.6562 34.6406ZM36.4062 34.7422C36.4062 34.4349 36.3516 34.1693 36.2422 33.9453C36.1328 33.7161 35.9766 33.5391 35.7734 33.4141C35.5755 33.2891 35.3307 33.2266 35.0391 33.2266C34.7578 33.2266 34.5156 33.2865 34.3125 33.4062C34.1146 33.526 33.9609 33.7005 33.8516 33.9297C33.7474 34.1536 33.6953 34.4245 33.6953 34.7422C33.6953 35.0495 33.7474 35.3203 33.8516 35.5547C33.9609 35.7839 34.1172 35.9635 34.3203 36.0938C34.5234 36.224 34.7682 36.2891 35.0547 36.2891C35.3411 36.2891 35.5833 36.224 35.7812 36.0938C35.9844 35.9635 36.138 35.7839 36.2422 35.5547C36.3516 35.3203 36.4062 35.0495 36.4062 34.7422ZM2.9375 53.625V65H1.42969V53.625H2.9375ZM10.7891 63.3594V53H12.2422V65H10.9141L10.7891 63.3594ZM5.10156 60.8672V60.7031C5.10156 60.0573 5.17969 59.4714 5.33594 58.9453C5.4974 58.4141 5.72396 57.9583 6.01562 57.5781C6.3125 57.1979 6.66406 56.9062 7.07031 56.7031C7.48177 56.4948 7.9401 56.3906 8.44531 56.3906C8.97656 56.3906 9.4401 56.4844 9.83594 56.6719C10.237 56.8542 10.5755 57.1224 10.8516 57.4766C11.1328 57.8255 11.3542 58.2474 11.5156 58.7422C11.6771 59.237 11.7891 59.7969 11.8516 60.4219V61.1406C11.7943 61.7604 11.6823 62.3177 11.5156 62.8125C11.3542 63.3073 11.1328 63.7292 10.8516 64.0781C10.5755 64.4271 10.237 64.6953 9.83594 64.8828C9.4349 65.0651 8.96615 65.1562 8.42969 65.1562C7.9349 65.1562 7.48177 65.0495 7.07031 64.8359C6.66406 64.6224 6.3125 64.3229 6.01562 63.9375C5.72396 63.5521 5.4974 63.099 5.33594 62.5781C5.17969 62.0521 5.10156 61.4818 5.10156 60.8672ZM6.55469 60.7031V60.8672C6.55469 61.2891 6.59635 61.6849 6.67969 62.0547C6.76823 62.4245 6.90365 62.75 7.08594 63.0312C7.26823 63.3125 7.5 63.5339 7.78125 63.6953C8.0625 63.8516 8.39844 63.9297 8.78906 63.9297C9.26823 63.9297 9.66146 63.8281 9.96875 63.625C10.2812 63.4219 10.5312 63.1536 10.7188 62.8203C10.9062 62.487 11.0521 62.125 11.1562 61.7344V59.8516C11.0938 59.5651 11.0026 59.2891 10.8828 59.0234C10.7682 58.7526 10.6172 58.513 10.4297 58.3047C10.2474 58.0911 10.0208 57.9219 9.75 57.7969C9.48438 57.6719 9.16927 57.6094 8.80469 57.6094C8.40885 57.6094 8.06771 57.6927 7.78125 57.8594C7.5 58.0208 7.26823 58.2448 7.08594 58.5312C6.90365 58.8125 6.76823 59.1406 6.67969 59.5156C6.59635 59.8854 6.55469 60.2812 6.55469 60.7031ZM18 65.1562C17.4115 65.1562 16.8776 65.0573 16.3984 64.8594C15.9245 64.6562 15.5156 64.3724 15.1719 64.0078C14.8333 63.6432 14.5729 63.2109 14.3906 62.7109C14.2083 62.2109 14.1172 61.6641 14.1172 61.0703V60.7422C14.1172 60.0547 14.2188 59.4427 14.4219 58.9062C14.625 58.3646 14.901 57.9062 15.25 57.5312C15.599 57.1562 15.9948 56.8724 16.4375 56.6797C16.8802 56.487 17.3385 56.3906 17.8125 56.3906C18.4167 56.3906 18.9375 56.4948 19.375 56.7031C19.8177 56.9115 20.1797 57.2031 20.4609 57.5781C20.7422 57.9479 20.9505 58.3854 21.0859 58.8906C21.2214 59.3906 21.2891 59.9375 21.2891 60.5312V61.1797H14.9766V60H19.8438V59.8906C19.8229 59.5156 19.7448 59.151 19.6094 58.7969C19.4792 58.4427 19.2708 58.151 18.9844 57.9219C18.6979 57.6927 18.3073 57.5781 17.8125 57.5781C17.4844 57.5781 17.1823 57.6484 16.9062 57.7891C16.6302 57.9245 16.3932 58.1276 16.1953 58.3984C15.9974 58.6693 15.8438 59 15.7344 59.3906C15.625 59.7812 15.5703 60.2318 15.5703 60.7422V61.0703C15.5703 61.4714 15.625 61.849 15.7344 62.2031C15.849 62.5521 16.013 62.8594 16.2266 63.125C16.4453 63.3906 16.7083 63.599 17.0156 63.75C17.3281 63.901 17.6823 63.9766 18.0781 63.9766C18.5885 63.9766 19.0208 63.8724 19.375 63.6641C19.7292 63.4557 20.0391 63.1771 20.3047 62.8281L21.1797 63.5234C20.9974 63.7995 20.7656 64.0625 20.4844 64.3125C20.2031 64.5625 19.8568 64.7656 19.4453 64.9219C19.0391 65.0781 18.5573 65.1562 18 65.1562ZM27.9609 63.5547V59.2031C27.9609 58.8698 27.8932 58.5807 27.7578 58.3359C27.6276 58.0859 27.4297 57.8932 27.1641 57.7578C26.8984 57.6224 26.5703 57.5547 26.1797 57.5547C25.8151 57.5547 25.4948 57.6172 25.2188 57.7422C24.9479 57.8672 24.7344 58.0312 24.5781 58.2344C24.4271 58.4375 24.3516 58.6562 24.3516 58.8906H22.9062C22.9062 58.5885 22.9844 58.2891 23.1406 57.9922C23.2969 57.6953 23.5208 57.4271 23.8125 57.1875C24.1094 56.9427 24.4635 56.75 24.875 56.6094C25.2917 56.4635 25.7552 56.3906 26.2656 56.3906C26.8802 56.3906 27.4219 56.4948 27.8906 56.7031C28.3646 56.9115 28.7344 57.2266 29 57.6484C29.2708 58.0651 29.4062 58.5885 29.4062 59.2188V63.1562C29.4062 63.4375 29.4297 63.737 29.4766 64.0547C29.5286 64.3724 29.6042 64.6458 29.7031 64.875V65H28.1953C28.1224 64.8333 28.0651 64.612 28.0234 64.3359C27.9818 64.0547 27.9609 63.7943 27.9609 63.5547ZM28.2109 59.875L28.2266 60.8906H26.7656C26.3542 60.8906 25.987 60.9245 25.6641 60.9922C25.3411 61.0547 25.0703 61.151 24.8516 61.2812C24.6328 61.4115 24.4661 61.5755 24.3516 61.7734C24.237 61.9661 24.1797 62.1927 24.1797 62.4531C24.1797 62.7188 24.2396 62.9609 24.3594 63.1797C24.4792 63.3984 24.6589 63.5729 24.8984 63.7031C25.1432 63.8281 25.4427 63.8906 25.7969 63.8906C26.2396 63.8906 26.6302 63.7969 26.9688 63.6094C27.3073 63.4219 27.5755 63.1927 27.7734 62.9219C27.9766 62.651 28.0859 62.388 28.1016 62.1328L28.7188 62.8281C28.6823 63.0469 28.5833 63.2891 28.4219 63.5547C28.2604 63.8203 28.0443 64.0755 27.7734 64.3203C27.5078 64.5599 27.1901 64.7604 26.8203 64.9219C26.4557 65.0781 26.0443 65.1562 25.5859 65.1562C25.013 65.1562 24.5104 65.0443 24.0781 64.8203C23.651 64.5964 23.3177 64.2969 23.0781 63.9219C22.8438 63.5417 22.7266 63.1172 22.7266 62.6484C22.7266 62.1953 22.8151 61.7969 22.9922 61.4531C23.1693 61.1042 23.4245 60.8151 23.7578 60.5859C24.0911 60.3516 24.4922 60.1745 24.9609 60.0547C25.4297 59.9349 25.9531 59.875 26.5312 59.875H28.2109ZM35.2188 56.5469V57.6562H30.6484V56.5469H35.2188ZM32.1953 54.4922H33.6406V62.9062C33.6406 63.1927 33.6849 63.4089 33.7734 63.5547C33.862 63.7005 33.9766 63.7969 34.1172 63.8438C34.2578 63.8906 34.4089 63.9141 34.5703 63.9141C34.6901 63.9141 34.8151 63.9036 34.9453 63.8828C35.0807 63.8568 35.1823 63.8359 35.25 63.8203L35.2578 65C35.1432 65.0365 34.9922 65.0703 34.8047 65.1016C34.6224 65.138 34.401 65.1562 34.1406 65.1562C33.7865 65.1562 33.4609 65.0859 33.1641 64.9453C32.8672 64.8047 32.6302 64.5703 32.4531 64.2422C32.2812 63.9089 32.1953 63.4609 32.1953 62.8984V54.4922ZM38.4844 56.5469V65H37.0312V56.5469H38.4844ZM36.9219 54.3047C36.9219 54.0703 36.9922 53.8724 37.1328 53.7109C37.2786 53.5495 37.4922 53.4688 37.7734 53.4688C38.0495 53.4688 38.2604 53.5495 38.4062 53.7109C38.5573 53.8724 38.6328 54.0703 38.6328 54.3047C38.6328 54.5286 38.5573 54.7214 38.4062 54.8828C38.2604 55.0391 38.0495 55.1172 37.7734 55.1172C37.4922 55.1172 37.2786 55.0391 37.1328 54.8828C36.9922 54.7214 36.9219 54.5286 36.9219 54.3047ZM40.4219 60.8672V60.6875C40.4219 60.0781 40.5104 59.513 40.6875 58.9922C40.8646 58.4661 41.1198 58.0104 41.4531 57.625C41.7865 57.2344 42.1901 56.9323 42.6641 56.7188C43.138 56.5 43.6693 56.3906 44.2578 56.3906C44.8516 56.3906 45.3854 56.5 45.8594 56.7188C46.3385 56.9323 46.7448 57.2344 47.0781 57.625C47.4167 58.0104 47.6745 58.4661 47.8516 58.9922C48.0286 59.513 48.1172 60.0781 48.1172 60.6875V60.8672C48.1172 61.4766 48.0286 62.0417 47.8516 62.5625C47.6745 63.0833 47.4167 63.5391 47.0781 63.9297C46.7448 64.3151 46.3411 64.6172 45.8672 64.8359C45.3984 65.0495 44.8672 65.1562 44.2734 65.1562C43.6797 65.1562 43.1458 65.0495 42.6719 64.8359C42.1979 64.6172 41.7917 64.3151 41.4531 63.9297C41.1198 63.5391 40.8646 63.0833 40.6875 62.5625C40.5104 62.0417 40.4219 61.4766 40.4219 60.8672ZM41.8672 60.6875V60.8672C41.8672 61.2891 41.9167 61.6875 42.0156 62.0625C42.1146 62.4323 42.263 62.7604 42.4609 63.0469C42.6641 63.3333 42.9167 63.5599 43.2188 63.7266C43.5208 63.888 43.8724 63.9688 44.2734 63.9688C44.6693 63.9688 45.0156 63.888 45.3125 63.7266C45.6146 63.5599 45.8646 63.3333 46.0625 63.0469C46.2604 62.7604 46.4089 62.4323 46.5078 62.0625C46.612 61.6875 46.6641 61.2891 46.6641 60.8672V60.6875C46.6641 60.2708 46.612 59.8776 46.5078 59.5078C46.4089 59.1328 46.2578 58.8021 46.0547 58.5156C45.8568 58.224 45.6068 57.9948 45.3047 57.8281C45.0078 57.6615 44.6589 57.5781 44.2578 57.5781C43.862 57.5781 43.513 57.6615 43.2109 57.8281C42.9141 57.9948 42.6641 58.224 42.4609 58.5156C42.263 58.8021 42.1146 59.1328 42.0156 59.5078C41.9167 59.8776 41.8672 60.2708 41.8672 60.6875ZM51.375 58.3516V65H49.9297V56.5469H51.2969L51.375 58.3516ZM51.0312 60.4531L50.4297 60.4297C50.4349 59.8516 50.5208 59.3177 50.6875 58.8281C50.8542 58.3333 51.0885 57.9036 51.3906 57.5391C51.6927 57.1745 52.0521 56.8932 52.4688 56.6953C52.8906 56.4922 53.3568 56.3906 53.8672 56.3906C54.2839 56.3906 54.6589 56.4479 54.9922 56.5625C55.3255 56.6719 55.6094 56.849 55.8438 57.0938C56.0833 57.3385 56.2656 57.6562 56.3906 58.0469C56.5156 58.4323 56.5781 58.9036 56.5781 59.4609V65H55.125V59.4453C55.125 59.0026 55.0599 58.6484 54.9297 58.3828C54.7995 58.112 54.6094 57.9167 54.3594 57.7969C54.1094 57.6719 53.8021 57.6094 53.4375 57.6094C53.0781 57.6094 52.75 57.6849 52.4531 57.8359C52.1615 57.987 51.9089 58.1953 51.6953 58.4609C51.487 58.7266 51.3229 59.0312 51.2031 59.375C51.0885 59.7135 51.0312 60.0729 51.0312 60.4531Z" fill="black"/>
<circle cx="10" cy="15" r="10" fill="#313549"/>
</svg>
