<svg width="151" height="1183" viewBox="0 0 151 1183" fill="none" xmlns="http://www.w3.org/2000/svg">
<line x1="135" y1="1163" x2="135" stroke="#313549" stroke-width="2"/>
<circle cx="136" cy="10" r="10" transform="rotate(90 136 10)" fill="#313549"/>
<circle cx="136" cy="318" r="10" transform="rotate(90 136 318)" fill="#313549"/>
<circle cx="136" cy="537" r="10" transform="rotate(90 136 537)" fill="#313549"/>
<circle cx="136" cy="717" r="15" transform="rotate(90 136 717)" fill="#6A6D7C"/>
<circle cx="136" cy="1153" r="10" transform="rotate(-90 136 1153)" fill="#313549"/>
<path d="M51.1797 309.508V301.625H53.5156V309.508C53.5156 310.268 53.349 310.922 53.0156 311.469C52.6823 312.01 52.2266 312.427 51.6484 312.719C51.0755 313.01 50.4297 313.156 49.7109 313.156C48.9661 313.156 48.3073 313.031 47.7344 312.781C47.1615 312.531 46.7109 312.148 46.3828 311.633C46.0547 311.112 45.8906 310.453 45.8906 309.656H48.2422C48.2422 310.073 48.2995 310.404 48.4141 310.648C48.5339 310.893 48.7031 311.068 48.9219 311.172C49.1406 311.276 49.4036 311.328 49.7109 311.328C50.0078 311.328 50.2656 311.258 50.4844 311.117C50.7031 310.977 50.8724 310.771 50.9922 310.5C51.1172 310.229 51.1797 309.898 51.1797 309.508ZM60.375 310.977V304.547H62.625V313H60.5078L60.375 310.977ZM60.625 309.242L61.2891 309.227C61.2891 309.789 61.224 310.312 61.0938 310.797C60.9635 311.276 60.7682 311.693 60.5078 312.047C60.2474 312.396 59.9193 312.669 59.5234 312.867C59.1276 313.06 58.6615 313.156 58.125 313.156C57.7135 313.156 57.3333 313.099 56.9844 312.984C56.6406 312.865 56.3438 312.68 56.0938 312.43C55.849 312.174 55.6562 311.849 55.5156 311.453C55.3802 311.052 55.3125 310.57 55.3125 310.008V304.547H57.5625V310.023C57.5625 310.273 57.5911 310.484 57.6484 310.656C57.7109 310.828 57.7969 310.969 57.9062 311.078C58.0156 311.188 58.1432 311.266 58.2891 311.312C58.4401 311.359 58.6068 311.383 58.7891 311.383C59.2526 311.383 59.6172 311.289 59.8828 311.102C60.1536 310.914 60.3438 310.659 60.4531 310.336C60.5677 310.008 60.625 309.643 60.625 309.242ZM66.5469 306.352V313H64.2969V304.547H66.4062L66.5469 306.352ZM66.2188 308.477H65.6094C65.6094 307.852 65.6901 307.289 65.8516 306.789C66.013 306.284 66.2396 305.854 66.5312 305.5C66.8229 305.141 67.1693 304.867 67.5703 304.68C67.9766 304.487 68.4297 304.391 68.9297 304.391C69.3255 304.391 69.6875 304.448 70.0156 304.562C70.3438 304.677 70.625 304.859 70.8594 305.109C71.099 305.359 71.2812 305.69 71.4062 306.102C71.5365 306.513 71.6016 307.016 71.6016 307.609V313H69.3359V307.602C69.3359 307.227 69.2839 306.935 69.1797 306.727C69.0755 306.518 68.9219 306.372 68.7188 306.289C68.5208 306.201 68.276 306.156 67.9844 306.156C67.6823 306.156 67.4193 306.216 67.1953 306.336C66.9766 306.456 66.7943 306.622 66.6484 306.836C66.5078 307.044 66.401 307.289 66.3281 307.57C66.2552 307.852 66.2188 308.154 66.2188 308.477ZM77.2031 313.156C76.5469 313.156 75.9583 313.052 75.4375 312.844C74.9167 312.63 74.474 312.336 74.1094 311.961C73.75 311.586 73.474 311.151 73.2812 310.656C73.0885 310.156 72.9922 309.625 72.9922 309.062V308.75C72.9922 308.109 73.0833 307.523 73.2656 306.992C73.4479 306.461 73.7083 306 74.0469 305.609C74.3906 305.219 74.8073 304.919 75.2969 304.711C75.7865 304.497 76.3385 304.391 76.9531 304.391C77.5521 304.391 78.0833 304.49 78.5469 304.688C79.0104 304.885 79.3984 305.167 79.7109 305.531C80.0286 305.896 80.2682 306.333 80.4297 306.844C80.5911 307.349 80.6719 307.911 80.6719 308.531V309.469H73.9531V307.969H78.4609V307.797C78.4609 307.484 78.4036 307.206 78.2891 306.961C78.1797 306.711 78.013 306.513 77.7891 306.367C77.5651 306.221 77.2786 306.148 76.9297 306.148C76.6328 306.148 76.3776 306.214 76.1641 306.344C75.9505 306.474 75.776 306.656 75.6406 306.891C75.5104 307.125 75.4115 307.401 75.3438 307.719C75.2812 308.031 75.25 308.375 75.25 308.75V309.062C75.25 309.401 75.2969 309.714 75.3906 310C75.4896 310.286 75.6276 310.534 75.8047 310.742C75.987 310.951 76.2057 311.112 76.4609 311.227C76.7214 311.341 77.0156 311.398 77.3438 311.398C77.75 311.398 78.1276 311.32 78.4766 311.164C78.8307 311.003 79.1354 310.76 79.3906 310.438L80.4844 311.625C80.3073 311.88 80.0651 312.125 79.7578 312.359C79.4557 312.594 79.0911 312.786 78.6641 312.938C78.237 313.083 77.75 313.156 77.2031 313.156ZM91.3281 301.602V313H89.0781V304.195L86.375 305.055V303.281L91.0859 301.602H91.3281ZM97.3359 306.336H98.5391C98.9245 306.336 99.2422 306.271 99.4922 306.141C99.7422 306.005 99.9271 305.818 100.047 305.578C100.172 305.333 100.234 305.049 100.234 304.727C100.234 304.435 100.177 304.177 100.062 303.953C99.9531 303.724 99.7839 303.547 99.5547 303.422C99.3255 303.292 99.0365 303.227 98.6875 303.227C98.4115 303.227 98.1562 303.281 97.9219 303.391C97.6875 303.5 97.5 303.654 97.3594 303.852C97.2188 304.049 97.1484 304.289 97.1484 304.57H94.8906C94.8906 303.945 95.0573 303.401 95.3906 302.938C95.7292 302.474 96.1823 302.112 96.75 301.852C97.3177 301.591 97.9427 301.461 98.625 301.461C99.3958 301.461 100.07 301.586 100.648 301.836C101.227 302.081 101.677 302.443 102 302.922C102.323 303.401 102.484 303.995 102.484 304.703C102.484 305.062 102.401 305.411 102.234 305.75C102.068 306.083 101.828 306.385 101.516 306.656C101.208 306.922 100.833 307.135 100.391 307.297C99.9479 307.453 99.4505 307.531 98.8984 307.531H97.3359V306.336ZM97.3359 308.047V306.883H98.8984C99.5182 306.883 100.062 306.953 100.531 307.094C101 307.234 101.393 307.438 101.711 307.703C102.029 307.964 102.268 308.273 102.43 308.633C102.591 308.987 102.672 309.38 102.672 309.812C102.672 310.344 102.57 310.818 102.367 311.234C102.164 311.646 101.878 311.995 101.508 312.281C101.143 312.568 100.716 312.786 100.227 312.938C99.737 313.083 99.2031 313.156 98.625 313.156C98.1458 313.156 97.6745 313.091 97.2109 312.961C96.7526 312.826 96.3359 312.625 95.9609 312.359C95.5911 312.089 95.2943 311.75 95.0703 311.344C94.8516 310.932 94.7422 310.445 94.7422 309.883H97C97 310.174 97.0729 310.435 97.2188 310.664C97.3646 310.893 97.5651 311.073 97.8203 311.203C98.0807 311.333 98.3698 311.398 98.6875 311.398C99.0469 311.398 99.3542 311.333 99.6094 311.203C99.8698 311.068 100.068 310.88 100.203 310.641C100.344 310.396 100.414 310.112 100.414 309.789C100.414 309.372 100.339 309.039 100.188 308.789C100.036 308.534 99.8203 308.346 99.5391 308.227C99.2578 308.107 98.9245 308.047 98.5391 308.047H97.3359ZM31.0781 323.625V335H29.5703V323.625H31.0781ZM35.0469 328.352V335H33.6016V326.547H34.9688L35.0469 328.352ZM34.7031 330.453L34.1016 330.43C34.1068 329.852 34.1927 329.318 34.3594 328.828C34.526 328.333 34.7604 327.904 35.0625 327.539C35.3646 327.174 35.724 326.893 36.1406 326.695C36.5625 326.492 37.0286 326.391 37.5391 326.391C37.9557 326.391 38.3307 326.448 38.6641 326.562C38.9974 326.672 39.2812 326.849 39.5156 327.094C39.7552 327.339 39.9375 327.656 40.0625 328.047C40.1875 328.432 40.25 328.904 40.25 329.461V335H38.7969V329.445C38.7969 329.003 38.7318 328.648 38.6016 328.383C38.4714 328.112 38.2812 327.917 38.0312 327.797C37.7812 327.672 37.474 327.609 37.1094 327.609C36.75 327.609 36.4219 327.685 36.125 327.836C35.8333 327.987 35.5807 328.195 35.3672 328.461C35.1589 328.727 34.9948 329.031 34.875 329.375C34.7604 329.714 34.7031 330.073 34.7031 330.453ZM45.8281 333.969C46.1719 333.969 46.4896 333.898 46.7812 333.758C47.0729 333.617 47.3125 333.424 47.5 333.18C47.6875 332.93 47.7943 332.646 47.8203 332.328H49.1953C49.1693 332.828 49 333.294 48.6875 333.727C48.3802 334.154 47.9766 334.5 47.4766 334.766C46.9766 335.026 46.4271 335.156 45.8281 335.156C45.1927 335.156 44.638 335.044 44.1641 334.82C43.6953 334.596 43.3047 334.289 42.9922 333.898C42.6849 333.508 42.4531 333.06 42.2969 332.555C42.1458 332.044 42.0703 331.505 42.0703 330.938V330.609C42.0703 330.042 42.1458 329.505 42.2969 329C42.4531 328.49 42.6849 328.039 42.9922 327.648C43.3047 327.258 43.6953 326.951 44.1641 326.727C44.638 326.503 45.1927 326.391 45.8281 326.391C46.4896 326.391 47.0677 326.526 47.5625 326.797C48.0573 327.062 48.4453 327.427 48.7266 327.891C49.013 328.349 49.1693 328.87 49.1953 329.453H47.8203C47.7943 329.104 47.6953 328.789 47.5234 328.508C47.3568 328.227 47.1276 328.003 46.8359 327.836C46.5495 327.664 46.2135 327.578 45.8281 327.578C45.3854 327.578 45.013 327.667 44.7109 327.844C44.4141 328.016 44.1771 328.25 44 328.547C43.8281 328.839 43.7031 329.164 43.625 329.523C43.5521 329.878 43.5156 330.24 43.5156 330.609V330.938C43.5156 331.307 43.5521 331.672 43.625 332.031C43.6979 332.391 43.8203 332.716 43.9922 333.008C44.1693 333.299 44.4062 333.534 44.7031 333.711C45.0052 333.883 45.3802 333.969 45.8281 333.969ZM55.9922 333.047V326.547H57.4453V335H56.0625L55.9922 333.047ZM56.2656 331.266L56.8672 331.25C56.8672 331.812 56.8073 332.333 56.6875 332.812C56.5729 333.286 56.3854 333.698 56.125 334.047C55.8646 334.396 55.5234 334.669 55.1016 334.867C54.6797 335.06 54.1667 335.156 53.5625 335.156C53.151 335.156 52.7734 335.096 52.4297 334.977C52.0911 334.857 51.7995 334.672 51.5547 334.422C51.3099 334.172 51.1198 333.846 50.9844 333.445C50.8542 333.044 50.7891 332.562 50.7891 332V326.547H52.2344V332.016C52.2344 332.396 52.276 332.711 52.3594 332.961C52.4479 333.206 52.5651 333.401 52.7109 333.547C52.862 333.688 53.0286 333.786 53.2109 333.844C53.3984 333.901 53.5911 333.93 53.7891 333.93C54.4036 333.93 54.8906 333.812 55.25 333.578C55.6094 333.339 55.8672 333.018 56.0234 332.617C56.1849 332.211 56.2656 331.76 56.2656 331.266ZM59.6406 323H61.0938V333.359L60.9688 335H59.6406V323ZM66.8047 330.703V330.867C66.8047 331.482 66.7318 332.052 66.5859 332.578C66.4401 333.099 66.2266 333.552 65.9453 333.938C65.6641 334.323 65.3203 334.622 64.9141 334.836C64.5078 335.049 64.0417 335.156 63.5156 335.156C62.9792 335.156 62.5078 335.065 62.1016 334.883C61.7005 334.695 61.362 334.427 61.0859 334.078C60.8099 333.729 60.5885 333.307 60.4219 332.812C60.2604 332.318 60.1484 331.76 60.0859 331.141V330.422C60.1484 329.797 60.2604 329.237 60.4219 328.742C60.5885 328.247 60.8099 327.826 61.0859 327.477C61.362 327.122 61.7005 326.854 62.1016 326.672C62.5026 326.484 62.9688 326.391 63.5 326.391C64.0312 326.391 64.5026 326.495 64.9141 326.703C65.3255 326.906 65.6693 327.198 65.9453 327.578C66.2266 327.958 66.4401 328.414 66.5859 328.945C66.7318 329.471 66.8047 330.057 66.8047 330.703ZM65.3516 330.867V330.703C65.3516 330.281 65.3125 329.885 65.2344 329.516C65.1562 329.141 65.0312 328.812 64.8594 328.531C64.6875 328.245 64.4609 328.021 64.1797 327.859C63.8984 327.693 63.5521 327.609 63.1406 327.609C62.776 327.609 62.4583 327.672 62.1875 327.797C61.9219 327.922 61.6953 328.091 61.5078 328.305C61.3203 328.513 61.1667 328.753 61.0469 329.023C60.9323 329.289 60.8464 329.565 60.7891 329.852V331.734C60.8724 332.099 61.0078 332.451 61.1953 332.789C61.388 333.122 61.6432 333.396 61.9609 333.609C62.2839 333.823 62.6823 333.93 63.1562 333.93C63.5469 333.93 63.8802 333.852 64.1562 333.695C64.4375 333.534 64.6641 333.312 64.8359 333.031C65.013 332.75 65.1432 332.424 65.2266 332.055C65.3099 331.685 65.3516 331.289 65.3516 330.867ZM73.6172 333.555V329.203C73.6172 328.87 73.5495 328.581 73.4141 328.336C73.2839 328.086 73.0859 327.893 72.8203 327.758C72.5547 327.622 72.2266 327.555 71.8359 327.555C71.4714 327.555 71.151 327.617 70.875 327.742C70.6042 327.867 70.3906 328.031 70.2344 328.234C70.0833 328.438 70.0078 328.656 70.0078 328.891H68.5625C68.5625 328.589 68.6406 328.289 68.7969 327.992C68.9531 327.695 69.1771 327.427 69.4688 327.188C69.7656 326.943 70.1198 326.75 70.5312 326.609C70.9479 326.464 71.4115 326.391 71.9219 326.391C72.5365 326.391 73.0781 326.495 73.5469 326.703C74.0208 326.911 74.3906 327.227 74.6562 327.648C74.9271 328.065 75.0625 328.589 75.0625 329.219V333.156C75.0625 333.438 75.0859 333.737 75.1328 334.055C75.1849 334.372 75.2604 334.646 75.3594 334.875V335H73.8516C73.7786 334.833 73.7214 334.612 73.6797 334.336C73.638 334.055 73.6172 333.794 73.6172 333.555ZM73.8672 329.875L73.8828 330.891H72.4219C72.0104 330.891 71.6432 330.924 71.3203 330.992C70.9974 331.055 70.7266 331.151 70.5078 331.281C70.2891 331.411 70.1224 331.576 70.0078 331.773C69.8932 331.966 69.8359 332.193 69.8359 332.453C69.8359 332.719 69.8958 332.961 70.0156 333.18C70.1354 333.398 70.3151 333.573 70.5547 333.703C70.7995 333.828 71.099 333.891 71.4531 333.891C71.8958 333.891 72.2865 333.797 72.625 333.609C72.9635 333.422 73.2318 333.193 73.4297 332.922C73.6328 332.651 73.7422 332.388 73.7578 332.133L74.375 332.828C74.3385 333.047 74.2396 333.289 74.0781 333.555C73.9167 333.82 73.7005 334.076 73.4297 334.32C73.1641 334.56 72.8464 334.76 72.4766 334.922C72.112 335.078 71.7005 335.156 71.2422 335.156C70.6693 335.156 70.1667 335.044 69.7344 334.82C69.3073 334.596 68.974 334.297 68.7344 333.922C68.5 333.542 68.3828 333.117 68.3828 332.648C68.3828 332.195 68.4714 331.797 68.6484 331.453C68.8255 331.104 69.0807 330.815 69.4141 330.586C69.7474 330.352 70.1484 330.174 70.6172 330.055C71.0859 329.935 71.6094 329.875 72.1875 329.875H73.8672ZM80.875 326.547V327.656H76.3047V326.547H80.875ZM77.8516 324.492H79.2969V332.906C79.2969 333.193 79.3411 333.409 79.4297 333.555C79.5182 333.701 79.6328 333.797 79.7734 333.844C79.9141 333.891 80.0651 333.914 80.2266 333.914C80.3464 333.914 80.4714 333.904 80.6016 333.883C80.737 333.857 80.8385 333.836 80.9062 333.82L80.9141 335C80.7995 335.036 80.6484 335.07 80.4609 335.102C80.2786 335.138 80.0573 335.156 79.7969 335.156C79.4427 335.156 79.1172 335.086 78.8203 334.945C78.5234 334.805 78.2865 334.57 78.1094 334.242C77.9375 333.909 77.8516 333.461 77.8516 332.898V324.492ZM86.0781 335.156C85.4896 335.156 84.9557 335.057 84.4766 334.859C84.0026 334.656 83.5938 334.372 83.25 334.008C82.9115 333.643 82.651 333.211 82.4688 332.711C82.2865 332.211 82.1953 331.664 82.1953 331.07V330.742C82.1953 330.055 82.2969 329.443 82.5 328.906C82.7031 328.365 82.9792 327.906 83.3281 327.531C83.6771 327.156 84.0729 326.872 84.5156 326.68C84.9583 326.487 85.4167 326.391 85.8906 326.391C86.4948 326.391 87.0156 326.495 87.4531 326.703C87.8958 326.911 88.2578 327.203 88.5391 327.578C88.8203 327.948 89.0286 328.385 89.1641 328.891C89.2995 329.391 89.3672 329.938 89.3672 330.531V331.18H83.0547V330H87.9219V329.891C87.901 329.516 87.8229 329.151 87.6875 328.797C87.5573 328.443 87.349 328.151 87.0625 327.922C86.776 327.693 86.3854 327.578 85.8906 327.578C85.5625 327.578 85.2604 327.648 84.9844 327.789C84.7083 327.924 84.4714 328.128 84.2734 328.398C84.0755 328.669 83.9219 329 83.8125 329.391C83.7031 329.781 83.6484 330.232 83.6484 330.742V331.07C83.6484 331.471 83.7031 331.849 83.8125 332.203C83.9271 332.552 84.0911 332.859 84.3047 333.125C84.5234 333.391 84.7865 333.599 85.0938 333.75C85.4062 333.901 85.7604 333.977 86.1562 333.977C86.6667 333.977 87.099 333.872 87.4531 333.664C87.8073 333.456 88.1172 333.177 88.3828 332.828L89.2578 333.523C89.0755 333.799 88.8438 334.062 88.5625 334.312C88.2812 334.562 87.9349 334.766 87.5234 334.922C87.1172 335.078 86.6354 335.156 86.0781 335.156ZM96.3828 333.359V323H97.8359V335H96.5078L96.3828 333.359ZM90.6953 330.867V330.703C90.6953 330.057 90.7734 329.471 90.9297 328.945C91.0911 328.414 91.3177 327.958 91.6094 327.578C91.9062 327.198 92.2578 326.906 92.6641 326.703C93.0755 326.495 93.5339 326.391 94.0391 326.391C94.5703 326.391 95.0339 326.484 95.4297 326.672C95.8307 326.854 96.1693 327.122 96.4453 327.477C96.7266 327.826 96.9479 328.247 97.1094 328.742C97.2708 329.237 97.3828 329.797 97.4453 330.422V331.141C97.388 331.76 97.276 332.318 97.1094 332.812C96.9479 333.307 96.7266 333.729 96.4453 334.078C96.1693 334.427 95.8307 334.695 95.4297 334.883C95.0286 335.065 94.5599 335.156 94.0234 335.156C93.5286 335.156 93.0755 335.049 92.6641 334.836C92.2578 334.622 91.9062 334.323 91.6094 333.938C91.3177 333.552 91.0911 333.099 90.9297 332.578C90.7734 332.052 90.6953 331.482 90.6953 330.867ZM92.1484 330.703V330.867C92.1484 331.289 92.1901 331.685 92.2734 332.055C92.362 332.424 92.4974 332.75 92.6797 333.031C92.862 333.312 93.0938 333.534 93.375 333.695C93.6562 333.852 93.9922 333.93 94.3828 333.93C94.862 333.93 95.2552 333.828 95.5625 333.625C95.875 333.422 96.125 333.154 96.3125 332.82C96.5 332.487 96.6458 332.125 96.75 331.734V329.852C96.6875 329.565 96.5964 329.289 96.4766 329.023C96.362 328.753 96.2109 328.513 96.0234 328.305C95.8411 328.091 95.6146 327.922 95.3438 327.797C95.0781 327.672 94.763 327.609 94.3984 327.609C94.0026 327.609 93.6615 327.693 93.375 327.859C93.0938 328.021 92.862 328.245 92.6797 328.531C92.4974 328.812 92.362 329.141 92.2734 329.516C92.1901 329.885 92.1484 330.281 92.1484 330.703ZM109.039 333.555V329.203C109.039 328.87 108.971 328.581 108.836 328.336C108.706 328.086 108.508 327.893 108.242 327.758C107.977 327.622 107.648 327.555 107.258 327.555C106.893 327.555 106.573 327.617 106.297 327.742C106.026 327.867 105.812 328.031 105.656 328.234C105.505 328.438 105.43 328.656 105.43 328.891H103.984C103.984 328.589 104.062 328.289 104.219 327.992C104.375 327.695 104.599 327.427 104.891 327.188C105.188 326.943 105.542 326.75 105.953 326.609C106.37 326.464 106.833 326.391 107.344 326.391C107.958 326.391 108.5 326.495 108.969 326.703C109.443 326.911 109.812 327.227 110.078 327.648C110.349 328.065 110.484 328.589 110.484 329.219V333.156C110.484 333.438 110.508 333.737 110.555 334.055C110.607 334.372 110.682 334.646 110.781 334.875V335H109.273C109.201 334.833 109.143 334.612 109.102 334.336C109.06 334.055 109.039 333.794 109.039 333.555ZM109.289 329.875L109.305 330.891H107.844C107.432 330.891 107.065 330.924 106.742 330.992C106.419 331.055 106.148 331.151 105.93 331.281C105.711 331.411 105.544 331.576 105.43 331.773C105.315 331.966 105.258 332.193 105.258 332.453C105.258 332.719 105.318 332.961 105.438 333.18C105.557 333.398 105.737 333.573 105.977 333.703C106.221 333.828 106.521 333.891 106.875 333.891C107.318 333.891 107.708 333.797 108.047 333.609C108.385 333.422 108.654 333.193 108.852 332.922C109.055 332.651 109.164 332.388 109.18 332.133L109.797 332.828C109.76 333.047 109.661 333.289 109.5 333.555C109.339 333.82 109.122 334.076 108.852 334.32C108.586 334.56 108.268 334.76 107.898 334.922C107.534 335.078 107.122 335.156 106.664 335.156C106.091 335.156 105.589 335.044 105.156 334.82C104.729 334.596 104.396 334.297 104.156 333.922C103.922 333.542 103.805 333.117 103.805 332.648C103.805 332.195 103.893 331.797 104.07 331.453C104.247 331.104 104.503 330.815 104.836 330.586C105.169 330.352 105.57 330.174 106.039 330.055C106.508 329.935 107.031 329.875 107.609 329.875H109.289ZM116.297 326.547V327.656H111.727V326.547H116.297ZM113.273 324.492H114.719V332.906C114.719 333.193 114.763 333.409 114.852 333.555C114.94 333.701 115.055 333.797 115.195 333.844C115.336 333.891 115.487 333.914 115.648 333.914C115.768 333.914 115.893 333.904 116.023 333.883C116.159 333.857 116.26 333.836 116.328 333.82L116.336 335C116.221 335.036 116.07 335.07 115.883 335.102C115.701 335.138 115.479 335.156 115.219 335.156C114.865 335.156 114.539 335.086 114.242 334.945C113.945 334.805 113.708 334.57 113.531 334.242C113.359 333.909 113.273 333.461 113.273 332.898V324.492ZM69.3516 345.625V357H67.8359L62.1094 348.227V357H60.6016V345.625H62.1094L67.8594 354.422V345.625H69.3516ZM72.3281 345.625L75.2812 351.336L78.2422 345.625H79.9531L76.0312 352.75V357H74.5234V352.75L70.6016 345.625H72.3281ZM87.1719 345.625H88.6719V353.32C88.6719 354.174 88.4818 354.885 88.1016 355.453C87.7214 356.021 87.2161 356.448 86.5859 356.734C85.9609 357.016 85.2812 357.156 84.5469 357.156C83.776 357.156 83.0781 357.016 82.4531 356.734C81.8333 356.448 81.3411 356.021 80.9766 355.453C80.6172 354.885 80.4375 354.174 80.4375 353.32V345.625H81.9297V353.32C81.9297 353.914 82.0391 354.404 82.2578 354.789C82.4766 355.174 82.7812 355.461 83.1719 355.648C83.5677 355.836 84.026 355.93 84.5469 355.93C85.0729 355.93 85.5312 355.836 85.9219 355.648C86.3177 355.461 86.625 355.174 86.8438 354.789C87.0625 354.404 87.1719 353.914 87.1719 353.32V345.625Z" fill="black"/>
<path d="M47.8672 531.57L44.7734 541H42.2812L46.5078 529.625H48.0938L47.8672 531.57ZM50.4375 541L47.3359 531.57L47.0859 529.625H48.6875L52.9375 541H50.4375ZM50.2969 536.766V538.602H44.2891V536.766H50.2969ZM58.7578 538.977V532.547H61.0078V541H58.8906L58.7578 538.977ZM59.0078 537.242L59.6719 537.227C59.6719 537.789 59.6068 538.312 59.4766 538.797C59.3464 539.276 59.151 539.693 58.8906 540.047C58.6302 540.396 58.3021 540.669 57.9062 540.867C57.5104 541.06 57.0443 541.156 56.5078 541.156C56.0964 541.156 55.7161 541.099 55.3672 540.984C55.0234 540.865 54.7266 540.68 54.4766 540.43C54.2318 540.174 54.0391 539.849 53.8984 539.453C53.763 539.052 53.6953 538.57 53.6953 538.008V532.547H55.9453V538.023C55.9453 538.273 55.974 538.484 56.0312 538.656C56.0938 538.828 56.1797 538.969 56.2891 539.078C56.3984 539.188 56.526 539.266 56.6719 539.312C56.8229 539.359 56.9896 539.383 57.1719 539.383C57.6354 539.383 58 539.289 58.2656 539.102C58.5365 538.914 58.7266 538.659 58.8359 538.336C58.9505 538.008 59.0078 537.643 59.0078 537.242ZM68.0781 532.547H70.1172V540.719C70.1172 541.49 69.9453 542.143 69.6016 542.68C69.263 543.221 68.7891 543.63 68.1797 543.906C67.5703 544.188 66.862 544.328 66.0547 544.328C65.7005 544.328 65.3255 544.281 64.9297 544.188C64.5391 544.094 64.1641 543.948 63.8047 543.75C63.4505 543.552 63.1536 543.302 62.9141 543L63.9062 541.672C64.1667 541.974 64.4688 542.208 64.8125 542.375C65.1562 542.547 65.5365 542.633 65.9531 542.633C66.3594 542.633 66.7031 542.557 66.9844 542.406C67.2656 542.26 67.4818 542.044 67.6328 541.758C67.7839 541.477 67.8594 541.135 67.8594 540.734V534.5L68.0781 532.547ZM62.3906 536.875V536.711C62.3906 536.065 62.4688 535.479 62.625 534.953C62.7865 534.422 63.013 533.966 63.3047 533.586C63.6016 533.206 63.9609 532.911 64.3828 532.703C64.8047 532.495 65.2812 532.391 65.8125 532.391C66.375 532.391 66.8464 532.495 67.2266 532.703C67.6068 532.911 67.9193 533.208 68.1641 533.594C68.4089 533.974 68.599 534.424 68.7344 534.945C68.875 535.461 68.9844 536.026 69.0625 536.641V537C68.9844 537.589 68.8672 538.135 68.7109 538.641C68.5547 539.146 68.349 539.589 68.0938 539.969C67.8385 540.344 67.5208 540.635 67.1406 540.844C66.7656 541.052 66.3177 541.156 65.7969 541.156C65.276 541.156 64.8047 541.049 64.3828 540.836C63.9661 540.622 63.6094 540.323 63.3125 539.938C63.0156 539.552 62.7865 539.099 62.625 538.578C62.4688 538.057 62.3906 537.49 62.3906 536.875ZM64.6406 536.711V536.875C64.6406 537.224 64.6745 537.549 64.7422 537.852C64.8099 538.154 64.9141 538.422 65.0547 538.656C65.2005 538.885 65.3802 539.065 65.5938 539.195C65.8125 539.32 66.0703 539.383 66.3672 539.383C66.7786 539.383 67.1146 539.297 67.375 539.125C67.6354 538.948 67.8307 538.706 67.9609 538.398C68.0911 538.091 68.1667 537.737 68.1875 537.336V536.312C68.1771 535.984 68.1328 535.69 68.0547 535.43C67.9766 535.164 67.8672 534.938 67.7266 534.75C67.5859 534.562 67.4036 534.417 67.1797 534.312C66.9557 534.208 66.6901 534.156 66.3828 534.156C66.0859 534.156 65.8281 534.224 65.6094 534.359C65.3958 534.49 65.2161 534.669 65.0703 534.898C64.9297 535.128 64.8229 535.398 64.75 535.711C64.6771 536.018 64.6406 536.352 64.6406 536.711ZM76.8672 538.977V532.547H79.1172V541H77L76.8672 538.977ZM77.1172 537.242L77.7812 537.227C77.7812 537.789 77.7161 538.312 77.5859 538.797C77.4557 539.276 77.2604 539.693 77 540.047C76.7396 540.396 76.4115 540.669 76.0156 540.867C75.6198 541.06 75.1536 541.156 74.6172 541.156C74.2057 541.156 73.8255 541.099 73.4766 540.984C73.1328 540.865 72.8359 540.68 72.5859 540.43C72.3411 540.174 72.1484 539.849 72.0078 539.453C71.8724 539.052 71.8047 538.57 71.8047 538.008V532.547H74.0547V538.023C74.0547 538.273 74.0833 538.484 74.1406 538.656C74.2031 538.828 74.2891 538.969 74.3984 539.078C74.5078 539.188 74.6354 539.266 74.7812 539.312C74.9323 539.359 75.099 539.383 75.2812 539.383C75.7448 539.383 76.1094 539.289 76.375 539.102C76.6458 538.914 76.8359 538.659 76.9453 538.336C77.0599 538.008 77.1172 537.643 77.1172 537.242ZM85.4062 538.664C85.4062 538.503 85.3594 538.357 85.2656 538.227C85.1719 538.096 84.9974 537.977 84.7422 537.867C84.4922 537.753 84.1302 537.648 83.6562 537.555C83.2292 537.461 82.8307 537.344 82.4609 537.203C82.0964 537.057 81.7786 536.883 81.5078 536.68C81.2422 536.477 81.0339 536.237 80.8828 535.961C80.7318 535.68 80.6562 535.359 80.6562 535C80.6562 534.646 80.7318 534.312 80.8828 534C81.0391 533.688 81.2604 533.411 81.5469 533.172C81.8385 532.927 82.1927 532.737 82.6094 532.602C83.0312 532.461 83.5052 532.391 84.0312 532.391C84.7656 532.391 85.3958 532.508 85.9219 532.742C86.4531 532.977 86.8594 533.299 87.1406 533.711C87.4271 534.117 87.5703 534.581 87.5703 535.102H85.3203C85.3203 534.883 85.2734 534.688 85.1797 534.516C85.0911 534.339 84.9505 534.201 84.7578 534.102C84.5703 533.997 84.3255 533.945 84.0234 533.945C83.7734 533.945 83.5573 533.99 83.375 534.078C83.1927 534.161 83.0521 534.276 82.9531 534.422C82.8594 534.562 82.8125 534.719 82.8125 534.891C82.8125 535.021 82.8385 535.138 82.8906 535.242C82.9479 535.341 83.0391 535.432 83.1641 535.516C83.2891 535.599 83.4505 535.677 83.6484 535.75C83.8516 535.818 84.1016 535.88 84.3984 535.938C85.0078 536.062 85.5521 536.227 86.0312 536.43C86.5104 536.628 86.8906 536.898 87.1719 537.242C87.4531 537.581 87.5938 538.026 87.5938 538.578C87.5938 538.953 87.5104 539.297 87.3438 539.609C87.1771 539.922 86.9375 540.195 86.625 540.43C86.3125 540.659 85.9375 540.839 85.5 540.969C85.0677 541.094 84.5807 541.156 84.0391 541.156C83.2526 541.156 82.5859 541.016 82.0391 540.734C81.4974 540.453 81.0859 540.096 80.8047 539.664C80.5286 539.227 80.3906 538.779 80.3906 538.32H82.5234C82.5339 538.628 82.612 538.875 82.7578 539.062C82.9089 539.25 83.099 539.385 83.3281 539.469C83.5625 539.552 83.8151 539.594 84.0859 539.594C84.3776 539.594 84.6198 539.555 84.8125 539.477C85.0052 539.393 85.151 539.284 85.25 539.148C85.3542 539.008 85.4062 538.846 85.4062 538.664ZM93.1953 532.547V534.141H88.2734V532.547H93.1953ZM89.4922 530.461H91.7422V538.453C91.7422 538.698 91.7734 538.885 91.8359 539.016C91.9036 539.146 92.0026 539.237 92.1328 539.289C92.263 539.336 92.4271 539.359 92.625 539.359C92.7656 539.359 92.8906 539.354 93 539.344C93.1146 539.328 93.2109 539.312 93.2891 539.297L93.2969 540.953C93.1042 541.016 92.8958 541.065 92.6719 541.102C92.4479 541.138 92.2005 541.156 91.9297 541.156C91.4349 541.156 91.0026 541.076 90.6328 540.914C90.2682 540.747 89.987 540.482 89.7891 540.117C89.5911 539.753 89.4922 539.273 89.4922 538.68V530.461ZM103.852 529.602V541H101.602V532.195L98.8984 533.055V531.281L103.609 529.602H103.852ZM59.1719 551.625H60.6328L64.3594 560.898L68.0781 551.625H69.5469L64.9219 563H63.7812L59.1719 551.625ZM58.6953 551.625H59.9844L60.1953 558.562V563H58.6953V551.625ZM68.7266 551.625H70.0156V563H68.5156V558.562L68.7266 551.625ZM76.3359 561.273L79.6875 551.625H81.3203L77.1094 563H75.9453L76.3359 561.273ZM73.2031 551.625L76.5234 561.273L76.9375 563H75.7734L71.5703 551.625H73.2031ZM87.0469 558.539H84.0078V557.312H87.0469C87.6354 557.312 88.112 557.219 88.4766 557.031C88.8411 556.844 89.1068 556.583 89.2734 556.25C89.4453 555.917 89.5312 555.536 89.5312 555.109C89.5312 554.719 89.4453 554.352 89.2734 554.008C89.1068 553.664 88.8411 553.388 88.4766 553.18C88.112 552.966 87.6354 552.859 87.0469 552.859H84.3594V563H82.8516V551.625H87.0469C87.9062 551.625 88.6328 551.773 89.2266 552.07C89.8203 552.367 90.2708 552.779 90.5781 553.305C90.8854 553.826 91.0391 554.422 91.0391 555.094C91.0391 555.823 90.8854 556.445 90.5781 556.961C90.2708 557.477 89.8203 557.87 89.2266 558.141C88.6328 558.406 87.9062 558.539 87.0469 558.539Z" fill="black"/>
<path d="M35.7109 1129.05V1129.59C35.7109 1130.45 35.5938 1131.23 35.3594 1131.91C35.125 1132.6 34.7943 1133.19 34.3672 1133.67C33.9401 1134.15 33.4297 1134.52 32.8359 1134.77C32.2474 1135.03 31.5938 1135.16 30.875 1135.16C30.1615 1135.16 29.5078 1135.03 28.9141 1134.77C28.3255 1134.52 27.8151 1134.15 27.3828 1133.67C26.9505 1133.19 26.6146 1132.6 26.375 1131.91C26.1406 1131.23 26.0234 1130.45 26.0234 1129.59V1129.05C26.0234 1128.18 26.1406 1127.4 26.375 1126.72C26.6094 1126.03 26.9401 1125.45 27.3672 1124.96C27.7995 1124.48 28.3099 1124.11 28.8984 1123.85C29.4922 1123.6 30.1458 1123.47 30.8594 1123.47C31.5781 1123.47 32.2318 1123.6 32.8203 1123.85C33.4141 1124.11 33.9245 1124.48 34.3516 1124.96C34.7839 1125.45 35.1172 1126.03 35.3516 1126.72C35.5911 1127.4 35.7109 1128.18 35.7109 1129.05ZM33.3438 1129.59V1129.03C33.3438 1128.43 33.2891 1127.9 33.1797 1127.44C33.0703 1126.98 32.9089 1126.59 32.6953 1126.28C32.4818 1125.97 32.2214 1125.73 31.9141 1125.58C31.6068 1125.42 31.2552 1125.34 30.8594 1125.34C30.4635 1125.34 30.112 1125.42 29.8047 1125.58C29.5026 1125.73 29.2448 1125.97 29.0312 1126.28C28.8229 1126.59 28.6641 1126.98 28.5547 1127.44C28.4453 1127.9 28.3906 1128.43 28.3906 1129.03V1129.59C28.3906 1130.18 28.4453 1130.72 28.5547 1131.18C28.6641 1131.64 28.8255 1132.03 29.0391 1132.34C29.2526 1132.66 29.513 1132.89 29.8203 1133.05C30.1276 1133.22 30.4792 1133.3 30.875 1133.3C31.2708 1133.3 31.6224 1133.22 31.9297 1133.05C32.237 1132.89 32.4948 1132.66 32.7031 1132.34C32.9115 1132.03 33.0703 1131.64 33.1797 1131.18C33.2891 1130.72 33.3438 1130.18 33.3438 1129.59ZM40.75 1133.4C41.026 1133.4 41.2708 1133.35 41.4844 1133.24C41.6979 1133.13 41.8646 1132.98 41.9844 1132.79C42.1094 1132.59 42.1745 1132.36 42.1797 1132.09H44.2969C44.2917 1132.69 44.1328 1133.22 43.8203 1133.68C43.5078 1134.14 43.0885 1134.5 42.5625 1134.77C42.0365 1135.03 41.4479 1135.16 40.7969 1135.16C40.1406 1135.16 39.5677 1135.05 39.0781 1134.83C38.5938 1134.61 38.1901 1134.31 37.8672 1133.92C37.5443 1133.53 37.3021 1133.08 37.1406 1132.56C36.9792 1132.04 36.8984 1131.48 36.8984 1130.89V1130.66C36.8984 1130.07 36.9792 1129.51 37.1406 1128.99C37.3021 1128.47 37.5443 1128.02 37.8672 1127.63C38.1901 1127.24 38.5938 1126.94 39.0781 1126.72C39.5625 1126.5 40.1302 1126.39 40.7812 1126.39C41.474 1126.39 42.0807 1126.52 42.6016 1126.79C43.1276 1127.05 43.5391 1127.43 43.8359 1127.93C44.138 1128.42 44.2917 1129 44.2969 1129.67H42.1797C42.1745 1129.39 42.1146 1129.14 42 1128.91C41.8906 1128.68 41.7292 1128.49 41.5156 1128.36C41.3073 1128.22 41.0495 1128.15 40.7422 1128.15C40.4141 1128.15 40.1458 1128.22 39.9375 1128.36C39.7292 1128.49 39.5677 1128.68 39.4531 1128.92C39.3385 1129.16 39.2578 1129.42 39.2109 1129.73C39.1693 1130.02 39.1484 1130.34 39.1484 1130.66V1130.89C39.1484 1131.22 39.1693 1131.53 39.2109 1131.84C39.2526 1132.14 39.3307 1132.41 39.4453 1132.64C39.5651 1132.88 39.7292 1133.06 39.9375 1133.2C40.1458 1133.33 40.4167 1133.4 40.75 1133.4ZM49.7422 1126.55V1128.14H44.8203V1126.55H49.7422ZM46.0391 1124.46H48.2891V1132.45C48.2891 1132.7 48.3203 1132.89 48.3828 1133.02C48.4505 1133.15 48.5495 1133.24 48.6797 1133.29C48.8099 1133.34 48.974 1133.36 49.1719 1133.36C49.3125 1133.36 49.4375 1133.35 49.5469 1133.34C49.6615 1133.33 49.7578 1133.31 49.8359 1133.3L49.8438 1134.95C49.651 1135.02 49.4427 1135.07 49.2188 1135.1C48.9948 1135.14 48.7474 1135.16 48.4766 1135.16C47.9818 1135.16 47.5495 1135.08 47.1797 1134.91C46.8151 1134.75 46.5339 1134.48 46.3359 1134.12C46.138 1133.75 46.0391 1133.27 46.0391 1132.68V1124.46ZM50.4609 1130.86V1130.7C50.4609 1130.08 50.5495 1129.51 50.7266 1128.98C50.9036 1128.46 51.1615 1128 51.5 1127.62C51.8385 1127.23 52.2552 1126.93 52.75 1126.72C53.2448 1126.5 53.8125 1126.39 54.4531 1126.39C55.0938 1126.39 55.6641 1126.5 56.1641 1126.72C56.6641 1126.93 57.0833 1127.23 57.4219 1127.62C57.7656 1128 58.026 1128.46 58.2031 1128.98C58.3802 1129.51 58.4688 1130.08 58.4688 1130.7V1130.86C58.4688 1131.47 58.3802 1132.04 58.2031 1132.57C58.026 1133.09 57.7656 1133.55 57.4219 1133.94C57.0833 1134.32 56.6667 1134.62 56.1719 1134.84C55.6771 1135.05 55.1094 1135.16 54.4688 1135.16C53.8281 1135.16 53.2578 1135.05 52.7578 1134.84C52.263 1134.62 51.8438 1134.32 51.5 1133.94C51.1615 1133.55 50.9036 1133.09 50.7266 1132.57C50.5495 1132.04 50.4609 1131.47 50.4609 1130.86ZM52.7109 1130.7V1130.86C52.7109 1131.21 52.7422 1131.54 52.8047 1131.85C52.8672 1132.16 52.9661 1132.43 53.1016 1132.66C53.2422 1132.89 53.4245 1133.07 53.6484 1133.2C53.8724 1133.33 54.1458 1133.4 54.4688 1133.4C54.7812 1133.4 55.0495 1133.33 55.2734 1133.2C55.4974 1133.07 55.6771 1132.89 55.8125 1132.66C55.9479 1132.43 56.0469 1132.16 56.1094 1131.85C56.1771 1131.54 56.2109 1131.21 56.2109 1130.86V1130.7C56.2109 1130.35 56.1771 1130.03 56.1094 1129.73C56.0469 1129.42 55.9453 1129.15 55.8047 1128.91C55.6693 1128.67 55.4896 1128.49 55.2656 1128.35C55.0417 1128.22 54.7708 1128.15 54.4531 1128.15C54.1354 1128.15 53.8646 1128.22 53.6406 1128.35C53.4219 1128.49 53.2422 1128.67 53.1016 1128.91C52.9661 1129.15 52.8672 1129.42 52.8047 1129.73C52.7422 1130.03 52.7109 1130.35 52.7109 1130.7ZM59.8516 1123H62.1016V1133.06L61.875 1135H59.8516V1123ZM67.4531 1130.69V1130.85C67.4531 1131.48 67.3854 1132.06 67.25 1132.59C67.1198 1133.11 66.9167 1133.57 66.6406 1133.95C66.3646 1134.33 66.0208 1134.63 65.6094 1134.84C65.2031 1135.05 64.724 1135.16 64.1719 1135.16C63.6562 1135.16 63.2083 1135.05 62.8281 1134.84C62.4531 1134.64 62.138 1134.34 61.8828 1133.96C61.6276 1133.58 61.4219 1133.14 61.2656 1132.62C61.1094 1132.11 60.9922 1131.56 60.9141 1130.95V1130.59C60.9922 1129.99 61.1094 1129.43 61.2656 1128.92C61.4219 1128.41 61.6276 1127.97 61.8828 1127.59C62.138 1127.21 62.4531 1126.91 62.8281 1126.7C63.2031 1126.49 63.6458 1126.39 64.1562 1126.39C64.7135 1126.39 65.1979 1126.5 65.6094 1126.71C66.026 1126.92 66.3698 1127.22 66.6406 1127.6C66.9167 1127.98 67.1198 1128.43 67.25 1128.96C67.3854 1129.48 67.4531 1130.06 67.4531 1130.69ZM65.2031 1130.85V1130.69C65.2031 1130.34 65.1771 1130.02 65.125 1129.72C65.0781 1129.41 64.9948 1129.14 64.875 1128.91C64.7552 1128.68 64.5911 1128.49 64.3828 1128.36C64.1797 1128.22 63.9167 1128.16 63.5938 1128.16C63.2865 1128.16 63.026 1128.21 62.8125 1128.31C62.599 1128.42 62.4219 1128.56 62.2812 1128.75C62.1458 1128.94 62.0443 1129.16 61.9766 1129.42C61.9089 1129.68 61.8672 1129.96 61.8516 1130.27V1131.29C61.8672 1131.7 61.9349 1132.07 62.0547 1132.38C62.1797 1132.7 62.3672 1132.94 62.6172 1133.12C62.8724 1133.3 63.2031 1133.39 63.6094 1133.39C63.9271 1133.39 64.1901 1133.33 64.3984 1133.2C64.6068 1133.08 64.7682 1132.9 64.8828 1132.67C65.0026 1132.44 65.0859 1132.17 65.1328 1131.87C65.1797 1131.55 65.2031 1131.22 65.2031 1130.85ZM72.7422 1135.16C72.0859 1135.16 71.4974 1135.05 70.9766 1134.84C70.4557 1134.63 70.013 1134.34 69.6484 1133.96C69.2891 1133.59 69.013 1133.15 68.8203 1132.66C68.6276 1132.16 68.5312 1131.62 68.5312 1131.06V1130.75C68.5312 1130.11 68.6224 1129.52 68.8047 1128.99C68.987 1128.46 69.2474 1128 69.5859 1127.61C69.9297 1127.22 70.3464 1126.92 70.8359 1126.71C71.3255 1126.5 71.8776 1126.39 72.4922 1126.39C73.0911 1126.39 73.6224 1126.49 74.0859 1126.69C74.5495 1126.89 74.9375 1127.17 75.25 1127.53C75.5677 1127.9 75.8073 1128.33 75.9688 1128.84C76.1302 1129.35 76.2109 1129.91 76.2109 1130.53V1131.47H69.4922V1129.97H74V1129.8C74 1129.48 73.9427 1129.21 73.8281 1128.96C73.7188 1128.71 73.5521 1128.51 73.3281 1128.37C73.1042 1128.22 72.8177 1128.15 72.4688 1128.15C72.1719 1128.15 71.9167 1128.21 71.7031 1128.34C71.4896 1128.47 71.3151 1128.66 71.1797 1128.89C71.0495 1129.12 70.9505 1129.4 70.8828 1129.72C70.8203 1130.03 70.7891 1130.38 70.7891 1130.75V1131.06C70.7891 1131.4 70.8359 1131.71 70.9297 1132C71.0286 1132.29 71.1667 1132.53 71.3438 1132.74C71.526 1132.95 71.7448 1133.11 72 1133.23C72.2604 1133.34 72.5547 1133.4 72.8828 1133.4C73.2891 1133.4 73.6667 1133.32 74.0156 1133.16C74.3698 1133 74.6745 1132.76 74.9297 1132.44L76.0234 1133.62C75.8464 1133.88 75.6042 1134.12 75.2969 1134.36C74.9948 1134.59 74.6302 1134.79 74.2031 1134.94C73.776 1135.08 73.2891 1135.16 72.7422 1135.16ZM79.7422 1128.39V1135H77.4922V1126.55H79.6094L79.7422 1128.39ZM82.2891 1126.49L82.25 1128.58C82.1406 1128.56 82.0078 1128.55 81.8516 1128.54C81.7005 1128.52 81.5625 1128.52 81.4375 1128.52C81.1198 1128.52 80.8438 1128.56 80.6094 1128.64C80.3802 1128.72 80.1875 1128.84 80.0312 1128.99C79.8802 1129.15 79.7656 1129.34 79.6875 1129.56C79.6146 1129.79 79.5729 1130.04 79.5625 1130.33L79.1094 1130.19C79.1094 1129.64 79.1641 1129.14 79.2734 1128.68C79.3828 1128.22 79.5417 1127.81 79.75 1127.47C79.9635 1127.12 80.224 1126.86 80.5312 1126.67C80.8385 1126.48 81.1901 1126.39 81.5859 1126.39C81.7109 1126.39 81.8385 1126.4 81.9688 1126.42C82.099 1126.44 82.2057 1126.46 82.2891 1126.49ZM92.7266 1123.6V1135H90.4766V1126.2L87.7734 1127.05V1125.28L92.4844 1123.6H92.7266ZM1.5 1145.62H5.26562C6.11979 1145.62 6.84115 1145.76 7.42969 1146.02C8.02344 1146.28 8.47396 1146.66 8.78125 1147.17C9.09375 1147.68 9.25 1148.3 9.25 1149.04C9.25 1149.56 9.14323 1150.04 8.92969 1150.47C8.72135 1150.9 8.41927 1151.26 8.02344 1151.56C7.63281 1151.86 7.16406 1152.08 6.61719 1152.23L6.19531 1152.39H2.65625L2.64062 1151.16H5.3125C5.85417 1151.16 6.30469 1151.07 6.66406 1150.88C7.02344 1150.69 7.29427 1150.43 7.47656 1150.11C7.65885 1149.79 7.75 1149.43 7.75 1149.04C7.75 1148.6 7.66406 1148.22 7.49219 1147.89C7.32031 1147.56 7.04948 1147.31 6.67969 1147.13C6.3151 1146.95 5.84375 1146.86 5.26562 1146.86H3.00781V1157H1.5V1145.62ZM8.14844 1157L5.38281 1151.84L6.95312 1151.84L9.75781 1156.91V1157H8.14844ZM14.6484 1157.16C14.0599 1157.16 13.526 1157.06 13.0469 1156.86C12.5729 1156.66 12.1641 1156.37 11.8203 1156.01C11.4818 1155.64 11.2214 1155.21 11.0391 1154.71C10.8568 1154.21 10.7656 1153.66 10.7656 1153.07V1152.74C10.7656 1152.05 10.8672 1151.44 11.0703 1150.91C11.2734 1150.36 11.5495 1149.91 11.8984 1149.53C12.2474 1149.16 12.6432 1148.87 13.0859 1148.68C13.5286 1148.49 13.987 1148.39 14.4609 1148.39C15.0651 1148.39 15.5859 1148.49 16.0234 1148.7C16.4661 1148.91 16.8281 1149.2 17.1094 1149.58C17.3906 1149.95 17.599 1150.39 17.7344 1150.89C17.8698 1151.39 17.9375 1151.94 17.9375 1152.53V1153.18H11.625V1152H16.4922V1151.89C16.4714 1151.52 16.3932 1151.15 16.2578 1150.8C16.1276 1150.44 15.9193 1150.15 15.6328 1149.92C15.3464 1149.69 14.9557 1149.58 14.4609 1149.58C14.1328 1149.58 13.8307 1149.65 13.5547 1149.79C13.2786 1149.92 13.0417 1150.13 12.8438 1150.4C12.6458 1150.67 12.4922 1151 12.3828 1151.39C12.2734 1151.78 12.2188 1152.23 12.2188 1152.74V1153.07C12.2188 1153.47 12.2734 1153.85 12.3828 1154.2C12.4974 1154.55 12.6615 1154.86 12.875 1155.12C13.0938 1155.39 13.3568 1155.6 13.6641 1155.75C13.9766 1155.9 14.3307 1155.98 14.7266 1155.98C15.237 1155.98 15.6693 1155.87 16.0234 1155.66C16.3776 1155.46 16.6875 1155.18 16.9531 1154.83L17.8281 1155.52C17.6458 1155.8 17.4141 1156.06 17.1328 1156.31C16.8516 1156.56 16.5052 1156.77 16.0938 1156.92C15.6875 1157.08 15.2057 1157.16 14.6484 1157.16ZM21.1953 1145V1157H19.7422V1145H21.1953ZM27.0234 1157.16C26.4349 1157.16 25.901 1157.06 25.4219 1156.86C24.9479 1156.66 24.5391 1156.37 24.1953 1156.01C23.8568 1155.64 23.5964 1155.21 23.4141 1154.71C23.2318 1154.21 23.1406 1153.66 23.1406 1153.07V1152.74C23.1406 1152.05 23.2422 1151.44 23.4453 1150.91C23.6484 1150.36 23.9245 1149.91 24.2734 1149.53C24.6224 1149.16 25.0182 1148.87 25.4609 1148.68C25.9036 1148.49 26.362 1148.39 26.8359 1148.39C27.4401 1148.39 27.9609 1148.49 28.3984 1148.7C28.8411 1148.91 29.2031 1149.2 29.4844 1149.58C29.7656 1149.95 29.974 1150.39 30.1094 1150.89C30.2448 1151.39 30.3125 1151.94 30.3125 1152.53V1153.18H24V1152H28.8672V1151.89C28.8464 1151.52 28.7682 1151.15 28.6328 1150.8C28.5026 1150.44 28.2943 1150.15 28.0078 1149.92C27.7214 1149.69 27.3307 1149.58 26.8359 1149.58C26.5078 1149.58 26.2057 1149.65 25.9297 1149.79C25.6536 1149.92 25.4167 1150.13 25.2188 1150.4C25.0208 1150.67 24.8672 1151 24.7578 1151.39C24.6484 1151.78 24.5938 1152.23 24.5938 1152.74V1153.07C24.5938 1153.47 24.6484 1153.85 24.7578 1154.2C24.8724 1154.55 25.0365 1154.86 25.25 1155.12C25.4688 1155.39 25.7318 1155.6 26.0391 1155.75C26.3516 1155.9 26.7057 1155.98 27.1016 1155.98C27.612 1155.98 28.0443 1155.87 28.3984 1155.66C28.7526 1155.46 29.0625 1155.18 29.3281 1154.83L30.2031 1155.52C30.0208 1155.8 29.7891 1156.06 29.5078 1156.31C29.2266 1156.56 28.8802 1156.77 28.4688 1156.92C28.0625 1157.08 27.5807 1157.16 27.0234 1157.16ZM36.9844 1155.55V1151.2C36.9844 1150.87 36.9167 1150.58 36.7812 1150.34C36.651 1150.09 36.4531 1149.89 36.1875 1149.76C35.9219 1149.62 35.5938 1149.55 35.2031 1149.55C34.8385 1149.55 34.5182 1149.62 34.2422 1149.74C33.9714 1149.87 33.7578 1150.03 33.6016 1150.23C33.4505 1150.44 33.375 1150.66 33.375 1150.89H31.9297C31.9297 1150.59 32.0078 1150.29 32.1641 1149.99C32.3203 1149.7 32.5443 1149.43 32.8359 1149.19C33.1328 1148.94 33.487 1148.75 33.8984 1148.61C34.3151 1148.46 34.7786 1148.39 35.2891 1148.39C35.9036 1148.39 36.4453 1148.49 36.9141 1148.7C37.388 1148.91 37.7578 1149.23 38.0234 1149.65C38.2943 1150.07 38.4297 1150.59 38.4297 1151.22V1155.16C38.4297 1155.44 38.4531 1155.74 38.5 1156.05C38.5521 1156.37 38.6276 1156.65 38.7266 1156.88V1157H37.2188C37.1458 1156.83 37.0885 1156.61 37.0469 1156.34C37.0052 1156.05 36.9844 1155.79 36.9844 1155.55ZM37.2344 1151.88L37.25 1152.89H35.7891C35.3776 1152.89 35.0104 1152.92 34.6875 1152.99C34.3646 1153.05 34.0938 1153.15 33.875 1153.28C33.6562 1153.41 33.4896 1153.58 33.375 1153.77C33.2604 1153.97 33.2031 1154.19 33.2031 1154.45C33.2031 1154.72 33.263 1154.96 33.3828 1155.18C33.5026 1155.4 33.6823 1155.57 33.9219 1155.7C34.1667 1155.83 34.4661 1155.89 34.8203 1155.89C35.263 1155.89 35.6536 1155.8 35.9922 1155.61C36.3307 1155.42 36.599 1155.19 36.7969 1154.92C37 1154.65 37.1094 1154.39 37.125 1154.13L37.7422 1154.83C37.7057 1155.05 37.6068 1155.29 37.4453 1155.55C37.2839 1155.82 37.0677 1156.08 36.7969 1156.32C36.5312 1156.56 36.2135 1156.76 35.8438 1156.92C35.4792 1157.08 35.0677 1157.16 34.6094 1157.16C34.0365 1157.16 33.5339 1157.04 33.1016 1156.82C32.6745 1156.6 32.3411 1156.3 32.1016 1155.92C31.8672 1155.54 31.75 1155.12 31.75 1154.65C31.75 1154.2 31.8385 1153.8 32.0156 1153.45C32.1927 1153.1 32.4479 1152.82 32.7812 1152.59C33.1146 1152.35 33.5156 1152.17 33.9844 1152.05C34.4531 1151.93 34.9766 1151.88 35.5547 1151.88H37.2344ZM45.625 1154.76C45.625 1154.55 45.5781 1154.36 45.4844 1154.18C45.3958 1154 45.2109 1153.83 44.9297 1153.69C44.6536 1153.54 44.237 1153.41 43.6797 1153.3C43.2109 1153.2 42.7865 1153.08 42.4062 1152.95C42.0312 1152.81 41.7109 1152.65 41.4453 1152.45C41.1849 1152.26 40.9844 1152.03 40.8438 1151.77C40.7031 1151.51 40.6328 1151.21 40.6328 1150.86C40.6328 1150.53 40.7057 1150.21 40.8516 1149.91C41.0026 1149.62 41.2135 1149.35 41.4844 1149.12C41.7604 1148.9 42.0911 1148.72 42.4766 1148.59C42.862 1148.46 43.2917 1148.39 43.7656 1148.39C44.4427 1148.39 45.0208 1148.51 45.5 1148.75C45.9792 1148.99 46.3464 1149.31 46.6016 1149.71C46.8568 1150.11 46.9844 1150.55 46.9844 1151.03H45.5391C45.5391 1150.8 45.4688 1150.57 45.3281 1150.35C45.1927 1150.13 44.9922 1149.94 44.7266 1149.8C44.4661 1149.65 44.1458 1149.58 43.7656 1149.58C43.3646 1149.58 43.0391 1149.64 42.7891 1149.77C42.5443 1149.89 42.3646 1150.04 42.25 1150.23C42.1406 1150.41 42.0859 1150.61 42.0859 1150.82C42.0859 1150.98 42.112 1151.12 42.1641 1151.24C42.2214 1151.36 42.3203 1151.47 42.4609 1151.58C42.6016 1151.68 42.7995 1151.77 43.0547 1151.86C43.3099 1151.95 43.6354 1152.04 44.0312 1152.12C44.724 1152.28 45.2943 1152.47 45.7422 1152.69C46.1901 1152.91 46.5234 1153.17 46.7422 1153.49C46.9609 1153.81 47.0703 1154.2 47.0703 1154.65C47.0703 1155.02 46.9922 1155.36 46.8359 1155.66C46.6849 1155.97 46.4635 1156.24 46.1719 1156.46C45.8854 1156.68 45.5417 1156.85 45.1406 1156.98C44.7448 1157.1 44.2995 1157.16 43.8047 1157.16C43.0599 1157.16 42.4297 1157.02 41.9141 1156.76C41.3984 1156.49 41.0078 1156.15 40.7422 1155.73C40.4766 1155.3 40.3438 1154.86 40.3438 1154.39H41.7969C41.8177 1154.79 41.9323 1155.1 42.1406 1155.34C42.349 1155.57 42.6042 1155.73 42.9062 1155.83C43.2083 1155.92 43.5078 1155.97 43.8047 1155.97C44.2005 1155.97 44.5312 1155.92 44.7969 1155.81C45.0677 1155.71 45.2734 1155.57 45.4141 1155.38C45.5547 1155.2 45.625 1154.99 45.625 1154.76ZM52.4766 1157.16C51.888 1157.16 51.3542 1157.06 50.875 1156.86C50.401 1156.66 49.9922 1156.37 49.6484 1156.01C49.3099 1155.64 49.0495 1155.21 48.8672 1154.71C48.6849 1154.21 48.5938 1153.66 48.5938 1153.07V1152.74C48.5938 1152.05 48.6953 1151.44 48.8984 1150.91C49.1016 1150.36 49.3776 1149.91 49.7266 1149.53C50.0755 1149.16 50.4714 1148.87 50.9141 1148.68C51.3568 1148.49 51.8151 1148.39 52.2891 1148.39C52.8932 1148.39 53.4141 1148.49 53.8516 1148.7C54.2943 1148.91 54.6562 1149.2 54.9375 1149.58C55.2188 1149.95 55.4271 1150.39 55.5625 1150.89C55.6979 1151.39 55.7656 1151.94 55.7656 1152.53V1153.18H49.4531V1152H54.3203V1151.89C54.2995 1151.52 54.2214 1151.15 54.0859 1150.8C53.9557 1150.44 53.7474 1150.15 53.4609 1149.92C53.1745 1149.69 52.7839 1149.58 52.2891 1149.58C51.9609 1149.58 51.6589 1149.65 51.3828 1149.79C51.1068 1149.92 50.8698 1150.13 50.6719 1150.4C50.474 1150.67 50.3203 1151 50.2109 1151.39C50.1016 1151.78 50.0469 1152.23 50.0469 1152.74V1153.07C50.0469 1153.47 50.1016 1153.85 50.2109 1154.2C50.3255 1154.55 50.4896 1154.86 50.7031 1155.12C50.9219 1155.39 51.1849 1155.6 51.4922 1155.75C51.8047 1155.9 52.1589 1155.98 52.5547 1155.98C53.0651 1155.98 53.4974 1155.87 53.8516 1155.66C54.2057 1155.46 54.5156 1155.18 54.7812 1154.83L55.6562 1155.52C55.474 1155.8 55.2422 1156.06 54.9609 1156.31C54.6797 1156.56 54.3333 1156.77 53.9219 1156.92C53.5156 1157.08 53.0339 1157.16 52.4766 1157.16ZM64.9609 1148.55V1149.66H60.3906V1148.55H64.9609ZM61.9375 1146.49H63.3828V1154.91C63.3828 1155.19 63.4271 1155.41 63.5156 1155.55C63.6042 1155.7 63.7188 1155.8 63.8594 1155.84C64 1155.89 64.151 1155.91 64.3125 1155.91C64.4323 1155.91 64.5573 1155.9 64.6875 1155.88C64.8229 1155.86 64.9245 1155.84 64.9922 1155.82L65 1157C64.8854 1157.04 64.7344 1157.07 64.5469 1157.1C64.3646 1157.14 64.1432 1157.16 63.8828 1157.16C63.5286 1157.16 63.2031 1157.09 62.9062 1156.95C62.6094 1156.8 62.3724 1156.57 62.1953 1156.24C62.0234 1155.91 61.9375 1155.46 61.9375 1154.9V1146.49ZM66.1172 1152.87V1152.69C66.1172 1152.08 66.2057 1151.51 66.3828 1150.99C66.5599 1150.47 66.8151 1150.01 67.1484 1149.62C67.4818 1149.23 67.8854 1148.93 68.3594 1148.72C68.8333 1148.5 69.3646 1148.39 69.9531 1148.39C70.5469 1148.39 71.0807 1148.5 71.5547 1148.72C72.0339 1148.93 72.4401 1149.23 72.7734 1149.62C73.112 1150.01 73.3698 1150.47 73.5469 1150.99C73.724 1151.51 73.8125 1152.08 73.8125 1152.69V1152.87C73.8125 1153.48 73.724 1154.04 73.5469 1154.56C73.3698 1155.08 73.112 1155.54 72.7734 1155.93C72.4401 1156.32 72.0365 1156.62 71.5625 1156.84C71.0938 1157.05 70.5625 1157.16 69.9688 1157.16C69.375 1157.16 68.8411 1157.05 68.3672 1156.84C67.8932 1156.62 67.487 1156.32 67.1484 1155.93C66.8151 1155.54 66.5599 1155.08 66.3828 1154.56C66.2057 1154.04 66.1172 1153.48 66.1172 1152.87ZM67.5625 1152.69V1152.87C67.5625 1153.29 67.612 1153.69 67.7109 1154.06C67.8099 1154.43 67.9583 1154.76 68.1562 1155.05C68.3594 1155.33 68.612 1155.56 68.9141 1155.73C69.2161 1155.89 69.5677 1155.97 69.9688 1155.97C70.3646 1155.97 70.7109 1155.89 71.0078 1155.73C71.3099 1155.56 71.5599 1155.33 71.7578 1155.05C71.9557 1154.76 72.1042 1154.43 72.2031 1154.06C72.3073 1153.69 72.3594 1153.29 72.3594 1152.87V1152.69C72.3594 1152.27 72.3073 1151.88 72.2031 1151.51C72.1042 1151.13 71.9531 1150.8 71.75 1150.52C71.5521 1150.22 71.3021 1149.99 71 1149.83C70.7031 1149.66 70.3542 1149.58 69.9531 1149.58C69.5573 1149.58 69.2083 1149.66 68.9062 1149.83C68.6094 1149.99 68.3594 1150.22 68.1562 1150.52C67.9583 1150.8 67.8099 1151.13 67.7109 1151.51C67.612 1151.88 67.5625 1152.27 67.5625 1152.69ZM84.0234 1146.63L80.2578 1157H78.7188L83.0547 1145.62H84.0469L84.0234 1146.63ZM87.1797 1157L83.4062 1146.63L83.3828 1145.62H84.375L88.7266 1157H87.1797ZM86.9844 1152.79V1154.02H80.5938V1152.79H86.9844ZM91.4766 1150.17V1160.25H90.0234V1148.55H91.3516L91.4766 1150.17ZM97.1719 1152.7V1152.87C97.1719 1153.48 97.099 1154.05 96.9531 1154.58C96.8073 1155.1 96.5938 1155.55 96.3125 1155.94C96.0365 1156.32 95.6953 1156.62 95.2891 1156.84C94.8828 1157.05 94.4167 1157.16 93.8906 1157.16C93.3542 1157.16 92.8802 1157.07 92.4688 1156.89C92.0573 1156.71 91.7083 1156.46 91.4219 1156.12C91.1354 1155.78 90.9062 1155.37 90.7344 1154.9C90.5677 1154.42 90.4531 1153.89 90.3906 1153.3V1152.42C90.4531 1151.8 90.5703 1151.24 90.7422 1150.74C90.9141 1150.25 91.1406 1149.83 91.4219 1149.48C91.7083 1149.12 92.0547 1148.85 92.4609 1148.67C92.8672 1148.48 93.3359 1148.39 93.8672 1148.39C94.3984 1148.39 94.8698 1148.49 95.2812 1148.7C95.6927 1148.91 96.0391 1149.2 96.3203 1149.58C96.6016 1149.96 96.8125 1150.41 96.9531 1150.95C97.099 1151.47 97.1719 1152.06 97.1719 1152.7ZM95.7188 1152.87V1152.7C95.7188 1152.28 95.6745 1151.89 95.5859 1151.52C95.4974 1151.14 95.3594 1150.81 95.1719 1150.53C94.9896 1150.24 94.7552 1150.02 94.4688 1149.86C94.1823 1149.69 93.8411 1149.61 93.4453 1149.61C93.0807 1149.61 92.763 1149.67 92.4922 1149.8C92.2266 1149.92 92 1150.09 91.8125 1150.3C91.625 1150.51 91.4714 1150.75 91.3516 1151.02C91.237 1151.29 91.151 1151.57 91.0938 1151.85V1153.88C91.1979 1154.24 91.3438 1154.58 91.5312 1154.91C91.7188 1155.22 91.9688 1155.48 92.2812 1155.68C92.5938 1155.87 92.987 1155.97 93.4609 1155.97C93.8516 1155.97 94.1875 1155.89 94.4688 1155.73C94.7552 1155.56 94.9896 1155.33 95.1719 1155.05C95.3594 1154.76 95.4974 1154.43 95.5859 1154.06C95.6745 1153.69 95.7188 1153.29 95.7188 1152.87ZM100.461 1150.17V1160.25H99.0078V1148.55H100.336L100.461 1150.17ZM106.156 1152.7V1152.87C106.156 1153.48 106.083 1154.05 105.938 1154.58C105.792 1155.1 105.578 1155.55 105.297 1155.94C105.021 1156.32 104.68 1156.62 104.273 1156.84C103.867 1157.05 103.401 1157.16 102.875 1157.16C102.339 1157.16 101.865 1157.07 101.453 1156.89C101.042 1156.71 100.693 1156.46 100.406 1156.12C100.12 1155.78 99.8906 1155.37 99.7188 1154.9C99.5521 1154.42 99.4375 1153.89 99.375 1153.3V1152.42C99.4375 1151.8 99.5547 1151.24 99.7266 1150.74C99.8984 1150.25 100.125 1149.83 100.406 1149.48C100.693 1149.12 101.039 1148.85 101.445 1148.67C101.852 1148.48 102.32 1148.39 102.852 1148.39C103.383 1148.39 103.854 1148.49 104.266 1148.7C104.677 1148.91 105.023 1149.2 105.305 1149.58C105.586 1149.96 105.797 1150.41 105.938 1150.95C106.083 1151.47 106.156 1152.06 106.156 1152.7ZM104.703 1152.87V1152.7C104.703 1152.28 104.659 1151.89 104.57 1151.52C104.482 1151.14 104.344 1150.81 104.156 1150.53C103.974 1150.24 103.74 1150.02 103.453 1149.86C103.167 1149.69 102.826 1149.61 102.43 1149.61C102.065 1149.61 101.747 1149.67 101.477 1149.8C101.211 1149.92 100.984 1150.09 100.797 1150.3C100.609 1150.51 100.456 1150.75 100.336 1151.02C100.221 1151.29 100.135 1151.57 100.078 1151.85V1153.88C100.182 1154.24 100.328 1154.58 100.516 1154.91C100.703 1155.22 100.953 1155.48 101.266 1155.68C101.578 1155.87 101.971 1155.97 102.445 1155.97C102.836 1155.97 103.172 1155.89 103.453 1155.73C103.74 1155.56 103.974 1155.33 104.156 1155.05C104.344 1154.76 104.482 1154.43 104.57 1154.06C104.659 1153.69 104.703 1153.29 104.703 1152.87ZM114.07 1150.69L115.773 1149.48C116.102 1149.25 116.354 1149.03 116.531 1148.8C116.714 1148.58 116.805 1148.26 116.805 1147.87C116.805 1147.56 116.685 1147.28 116.445 1147.03C116.206 1146.78 115.867 1146.65 115.43 1146.65C115.128 1146.65 114.872 1146.72 114.664 1146.86C114.456 1147 114.299 1147.19 114.195 1147.42C114.091 1147.65 114.039 1147.9 114.039 1148.18C114.039 1148.41 114.096 1148.66 114.211 1148.91C114.326 1149.16 114.484 1149.42 114.688 1149.69C114.891 1149.96 115.122 1150.24 115.383 1150.55L120.766 1157H119.031L114.617 1151.72C114.227 1151.26 113.878 1150.84 113.57 1150.46C113.263 1150.08 113.021 1149.7 112.844 1149.34C112.672 1148.98 112.586 1148.61 112.586 1148.23C112.586 1147.63 112.703 1147.13 112.938 1146.73C113.177 1146.32 113.51 1146 113.938 1145.79C114.365 1145.58 114.865 1145.47 115.438 1145.47C115.995 1145.47 116.474 1145.58 116.875 1145.8C117.281 1146.02 117.594 1146.32 117.812 1146.68C118.031 1147.04 118.141 1147.43 118.141 1147.87C118.141 1148.23 118.076 1148.56 117.945 1148.85C117.815 1149.14 117.633 1149.4 117.398 1149.64C117.169 1149.88 116.901 1150.11 116.594 1150.34L114.336 1152.02C113.961 1152.3 113.688 1152.56 113.516 1152.81C113.344 1153.06 113.232 1153.28 113.18 1153.48C113.133 1153.67 113.109 1153.82 113.109 1153.94C113.109 1154.31 113.19 1154.65 113.352 1154.95C113.513 1155.26 113.758 1155.51 114.086 1155.7C114.419 1155.88 114.836 1155.97 115.336 1155.97C115.773 1155.97 116.198 1155.87 116.609 1155.67C117.026 1155.47 117.398 1155.18 117.727 1154.81C118.055 1154.44 118.315 1153.99 118.508 1153.48C118.706 1152.96 118.805 1152.38 118.805 1151.75H120.102C120.102 1152.27 120.052 1152.75 119.953 1153.21C119.854 1153.67 119.701 1154.1 119.492 1154.49C119.289 1154.88 119.029 1155.24 118.711 1155.56C118.664 1155.61 118.628 1155.66 118.602 1155.73C118.576 1155.79 118.539 1155.84 118.492 1155.89C118.102 1156.31 117.62 1156.63 117.047 1156.84C116.479 1157.05 115.909 1157.16 115.336 1157.16C114.581 1157.16 113.927 1157.02 113.375 1156.74C112.828 1156.47 112.406 1156.09 112.109 1155.6C111.812 1155.12 111.664 1154.56 111.664 1153.94C111.664 1153.46 111.766 1153.04 111.969 1152.67C112.177 1152.31 112.461 1151.97 112.82 1151.65C113.185 1151.33 113.602 1151.01 114.07 1150.69ZM9.80469 1173.34V1177.5C9.66406 1177.71 9.4401 1177.94 9.13281 1178.2C8.82552 1178.46 8.40104 1178.68 7.85938 1178.88C7.32292 1179.06 6.63021 1179.16 5.78125 1179.16C5.08854 1179.16 4.45052 1179.04 3.86719 1178.8C3.28906 1178.55 2.78646 1178.2 2.35938 1177.73C1.9375 1177.27 1.60938 1176.7 1.375 1176.03C1.14583 1175.36 1.03125 1174.6 1.03125 1173.75V1172.87C1.03125 1172.02 1.13021 1171.26 1.32812 1170.59C1.53125 1169.93 1.82812 1169.36 2.21875 1168.9C2.60938 1168.43 3.08854 1168.08 3.65625 1167.84C4.22396 1167.59 4.875 1167.47 5.60938 1167.47C6.47917 1167.47 7.20573 1167.62 7.78906 1167.92C8.3776 1168.22 8.83594 1168.63 9.16406 1169.16C9.4974 1169.68 9.71094 1170.28 9.80469 1170.95H8.29688C8.22917 1170.54 8.09375 1170.17 7.89062 1169.83C7.69271 1169.49 7.40885 1169.22 7.03906 1169.02C6.66927 1168.81 6.19271 1168.7 5.60938 1168.7C5.08333 1168.7 4.6276 1168.8 4.24219 1168.99C3.85677 1169.18 3.53906 1169.46 3.28906 1169.82C3.03906 1170.18 2.85156 1170.61 2.72656 1171.12C2.60677 1171.64 2.54688 1172.21 2.54688 1172.85V1173.75C2.54688 1174.41 2.6224 1174.99 2.77344 1175.51C2.92969 1176.02 3.15104 1176.46 3.4375 1176.83C3.72396 1177.19 4.0651 1177.46 4.46094 1177.65C4.86198 1177.84 5.30469 1177.93 5.78906 1177.93C6.32552 1177.93 6.76042 1177.89 7.09375 1177.8C7.42708 1177.7 7.6875 1177.59 7.875 1177.47C8.0625 1177.34 8.20573 1177.22 8.30469 1177.1V1174.55H5.67188V1173.34H9.80469ZM11.7031 1174.87V1174.69C11.7031 1174.08 11.7917 1173.51 11.9688 1172.99C12.1458 1172.47 12.401 1172.01 12.7344 1171.62C13.0677 1171.23 13.4714 1170.93 13.9453 1170.72C14.4193 1170.5 14.9505 1170.39 15.5391 1170.39C16.1328 1170.39 16.6667 1170.5 17.1406 1170.72C17.6198 1170.93 18.026 1171.23 18.3594 1171.62C18.6979 1172.01 18.9557 1172.47 19.1328 1172.99C19.3099 1173.51 19.3984 1174.08 19.3984 1174.69V1174.87C19.3984 1175.48 19.3099 1176.04 19.1328 1176.56C18.9557 1177.08 18.6979 1177.54 18.3594 1177.93C18.026 1178.32 17.6224 1178.62 17.1484 1178.84C16.6797 1179.05 16.1484 1179.16 15.5547 1179.16C14.9609 1179.16 14.4271 1179.05 13.9531 1178.84C13.4792 1178.62 13.0729 1178.32 12.7344 1177.93C12.401 1177.54 12.1458 1177.08 11.9688 1176.56C11.7917 1176.04 11.7031 1175.48 11.7031 1174.87ZM13.1484 1174.69V1174.87C13.1484 1175.29 13.1979 1175.69 13.2969 1176.06C13.3958 1176.43 13.5443 1176.76 13.7422 1177.05C13.9453 1177.33 14.1979 1177.56 14.5 1177.73C14.8021 1177.89 15.1536 1177.97 15.5547 1177.97C15.9505 1177.97 16.2969 1177.89 16.5938 1177.73C16.8958 1177.56 17.1458 1177.33 17.3438 1177.05C17.5417 1176.76 17.6901 1176.43 17.7891 1176.06C17.8932 1175.69 17.9453 1175.29 17.9453 1174.87V1174.69C17.9453 1174.27 17.8932 1173.88 17.7891 1173.51C17.6901 1173.13 17.5391 1172.8 17.3359 1172.52C17.138 1172.22 16.888 1171.99 16.5859 1171.83C16.2891 1171.66 15.9401 1171.58 15.5391 1171.58C15.1432 1171.58 14.7943 1171.66 14.4922 1171.83C14.1953 1171.99 13.9453 1172.22 13.7422 1172.52C13.5443 1172.8 13.3958 1173.13 13.2969 1173.51C13.1979 1173.88 13.1484 1174.27 13.1484 1174.69ZM20.8281 1174.87V1174.69C20.8281 1174.08 20.9167 1173.51 21.0938 1172.99C21.2708 1172.47 21.526 1172.01 21.8594 1171.62C22.1927 1171.23 22.5964 1170.93 23.0703 1170.72C23.5443 1170.5 24.0755 1170.39 24.6641 1170.39C25.2578 1170.39 25.7917 1170.5 26.2656 1170.72C26.7448 1170.93 27.151 1171.23 27.4844 1171.62C27.8229 1172.01 28.0807 1172.47 28.2578 1172.99C28.4349 1173.51 28.5234 1174.08 28.5234 1174.69V1174.87C28.5234 1175.48 28.4349 1176.04 28.2578 1176.56C28.0807 1177.08 27.8229 1177.54 27.4844 1177.93C27.151 1178.32 26.7474 1178.62 26.2734 1178.84C25.8047 1179.05 25.2734 1179.16 24.6797 1179.16C24.0859 1179.16 23.5521 1179.05 23.0781 1178.84C22.6042 1178.62 22.1979 1178.32 21.8594 1177.93C21.526 1177.54 21.2708 1177.08 21.0938 1176.56C20.9167 1176.04 20.8281 1175.48 20.8281 1174.87ZM22.2734 1174.69V1174.87C22.2734 1175.29 22.3229 1175.69 22.4219 1176.06C22.5208 1176.43 22.6693 1176.76 22.8672 1177.05C23.0703 1177.33 23.3229 1177.56 23.625 1177.73C23.9271 1177.89 24.2786 1177.97 24.6797 1177.97C25.0755 1177.97 25.4219 1177.89 25.7188 1177.73C26.0208 1177.56 26.2708 1177.33 26.4688 1177.05C26.6667 1176.76 26.8151 1176.43 26.9141 1176.06C27.0182 1175.69 27.0703 1175.29 27.0703 1174.87V1174.69C27.0703 1174.27 27.0182 1173.88 26.9141 1173.51C26.8151 1173.13 26.6641 1172.8 26.4609 1172.52C26.263 1172.22 26.013 1171.99 25.7109 1171.83C25.4141 1171.66 25.0651 1171.58 24.6641 1171.58C24.2682 1171.58 23.9193 1171.66 23.6172 1171.83C23.3203 1171.99 23.0703 1172.22 22.8672 1172.52C22.6693 1172.8 22.5208 1173.13 22.4219 1173.51C22.3229 1173.88 22.2734 1174.27 22.2734 1174.69ZM35.8125 1170.55H37.125V1178.82C37.125 1179.57 36.974 1180.2 36.6719 1180.73C36.3698 1181.25 35.9479 1181.65 35.4062 1181.92C34.8698 1182.2 34.25 1182.34 33.5469 1182.34C33.2552 1182.34 32.9115 1182.29 32.5156 1182.2C32.125 1182.11 31.7396 1181.95 31.3594 1181.73C30.9844 1181.52 30.6693 1181.23 30.4141 1180.87L31.1719 1180.01C31.526 1180.43 31.8958 1180.73 32.2812 1180.9C32.6719 1181.07 33.0573 1181.15 33.4375 1181.15C33.8958 1181.15 34.2917 1181.06 34.625 1180.89C34.9583 1180.72 35.2161 1180.46 35.3984 1180.12C35.5859 1179.79 35.6797 1179.38 35.6797 1178.89V1172.41L35.8125 1170.55ZM29.9922 1174.87V1174.7C29.9922 1174.06 30.0677 1173.47 30.2188 1172.95C30.375 1172.41 30.5964 1171.96 30.8828 1171.58C31.1745 1171.2 31.526 1170.91 31.9375 1170.7C32.349 1170.49 32.8125 1170.39 33.3281 1170.39C33.8594 1170.39 34.3229 1170.48 34.7188 1170.67C35.1198 1170.85 35.4583 1171.12 35.7344 1171.48C36.0156 1171.83 36.237 1172.25 36.3984 1172.74C36.5599 1173.24 36.6719 1173.8 36.7344 1174.42V1175.14C36.6771 1175.76 36.5651 1176.32 36.3984 1176.81C36.237 1177.31 36.0156 1177.73 35.7344 1178.08C35.4583 1178.43 35.1198 1178.7 34.7188 1178.88C34.3177 1179.07 33.849 1179.16 33.3125 1179.16C32.8073 1179.16 32.349 1179.05 31.9375 1178.84C31.5312 1178.62 31.1823 1178.32 30.8906 1177.94C30.599 1177.55 30.375 1177.1 30.2188 1176.58C30.0677 1176.05 29.9922 1175.48 29.9922 1174.87ZM31.4375 1174.7V1174.87C31.4375 1175.29 31.4792 1175.68 31.5625 1176.05C31.651 1176.42 31.7839 1176.75 31.9609 1177.03C32.1432 1177.31 32.375 1177.53 32.6562 1177.7C32.9375 1177.85 33.2734 1177.93 33.6641 1177.93C34.1432 1177.93 34.5391 1177.83 34.8516 1177.62C35.1641 1177.42 35.4115 1177.15 35.5938 1176.82C35.7812 1176.49 35.9271 1176.12 36.0312 1175.73V1173.85C35.974 1173.57 35.8854 1173.29 35.7656 1173.02C35.651 1172.75 35.5 1172.51 35.3125 1172.3C35.1302 1172.09 34.9036 1171.92 34.6328 1171.8C34.362 1171.67 34.0443 1171.61 33.6797 1171.61C33.2839 1171.61 32.9427 1171.69 32.6562 1171.86C32.375 1172.02 32.1432 1172.24 31.9609 1172.53C31.7839 1172.81 31.651 1173.14 31.5625 1173.52C31.4792 1173.89 31.4375 1174.28 31.4375 1174.7ZM40.8906 1167V1179H39.4375V1167H40.8906ZM46.7188 1179.16C46.1302 1179.16 45.5964 1179.06 45.1172 1178.86C44.6432 1178.66 44.2344 1178.37 43.8906 1178.01C43.5521 1177.64 43.2917 1177.21 43.1094 1176.71C42.9271 1176.21 42.8359 1175.66 42.8359 1175.07V1174.74C42.8359 1174.05 42.9375 1173.44 43.1406 1172.91C43.3438 1172.36 43.6198 1171.91 43.9688 1171.53C44.3177 1171.16 44.7135 1170.87 45.1562 1170.68C45.599 1170.49 46.0573 1170.39 46.5312 1170.39C47.1354 1170.39 47.6562 1170.49 48.0938 1170.7C48.5365 1170.91 48.8984 1171.2 49.1797 1171.58C49.4609 1171.95 49.6693 1172.39 49.8047 1172.89C49.9401 1173.39 50.0078 1173.94 50.0078 1174.53V1175.18H43.6953V1174H48.5625V1173.89C48.5417 1173.52 48.4635 1173.15 48.3281 1172.8C48.1979 1172.44 47.9896 1172.15 47.7031 1171.92C47.4167 1171.69 47.026 1171.58 46.5312 1171.58C46.2031 1171.58 45.901 1171.65 45.625 1171.79C45.349 1171.92 45.112 1172.13 44.9141 1172.4C44.7161 1172.67 44.5625 1173 44.4531 1173.39C44.3438 1173.78 44.2891 1174.23 44.2891 1174.74V1175.07C44.2891 1175.47 44.3438 1175.85 44.4531 1176.2C44.5677 1176.55 44.7318 1176.86 44.9453 1177.12C45.1641 1177.39 45.4271 1177.6 45.7344 1177.75C46.0469 1177.9 46.401 1177.98 46.7969 1177.98C47.3073 1177.98 47.7396 1177.87 48.0938 1177.66C48.4479 1177.46 48.7578 1177.18 49.0234 1176.83L49.8984 1177.52C49.7161 1177.8 49.4844 1178.06 49.2031 1178.31C48.9219 1178.56 48.5755 1178.77 48.1641 1178.92C47.7578 1179.08 47.276 1179.16 46.7188 1179.16ZM56.1094 1174.54H53.0703V1173.31H56.1094C56.6979 1173.31 57.1745 1173.22 57.5391 1173.03C57.9036 1172.84 58.1693 1172.58 58.3359 1172.25C58.5078 1171.92 58.5938 1171.54 58.5938 1171.11C58.5938 1170.72 58.5078 1170.35 58.3359 1170.01C58.1693 1169.66 57.9036 1169.39 57.5391 1169.18C57.1745 1168.97 56.6979 1168.86 56.1094 1168.86H53.4219V1179H51.9141V1167.62H56.1094C56.9688 1167.62 57.6953 1167.77 58.2891 1168.07C58.8828 1168.37 59.3333 1168.78 59.6406 1169.3C59.9479 1169.83 60.1016 1170.42 60.1016 1171.09C60.1016 1171.82 59.9479 1172.45 59.6406 1172.96C59.3333 1173.48 58.8828 1173.87 58.2891 1174.14C57.6953 1174.41 56.9688 1174.54 56.1094 1174.54ZM63.3594 1167V1179H61.9062V1167H63.3594ZM70.6641 1177.55V1173.2C70.6641 1172.87 70.5964 1172.58 70.4609 1172.34C70.3307 1172.09 70.1328 1171.89 69.8672 1171.76C69.6016 1171.62 69.2734 1171.55 68.8828 1171.55C68.5182 1171.55 68.1979 1171.62 67.9219 1171.74C67.651 1171.87 67.4375 1172.03 67.2812 1172.23C67.1302 1172.44 67.0547 1172.66 67.0547 1172.89H65.6094C65.6094 1172.59 65.6875 1172.29 65.8438 1171.99C66 1171.7 66.224 1171.43 66.5156 1171.19C66.8125 1170.94 67.1667 1170.75 67.5781 1170.61C67.9948 1170.46 68.4583 1170.39 68.9688 1170.39C69.5833 1170.39 70.125 1170.49 70.5938 1170.7C71.0677 1170.91 71.4375 1171.23 71.7031 1171.65C71.974 1172.07 72.1094 1172.59 72.1094 1173.22V1177.16C72.1094 1177.44 72.1328 1177.74 72.1797 1178.05C72.2318 1178.37 72.3073 1178.65 72.4062 1178.88V1179H70.8984C70.8255 1178.83 70.7682 1178.61 70.7266 1178.34C70.6849 1178.05 70.6641 1177.79 70.6641 1177.55ZM70.9141 1173.88L70.9297 1174.89H69.4688C69.0573 1174.89 68.6901 1174.92 68.3672 1174.99C68.0443 1175.05 67.7734 1175.15 67.5547 1175.28C67.3359 1175.41 67.1693 1175.58 67.0547 1175.77C66.9401 1175.97 66.8828 1176.19 66.8828 1176.45C66.8828 1176.72 66.9427 1176.96 67.0625 1177.18C67.1823 1177.4 67.362 1177.57 67.6016 1177.7C67.8464 1177.83 68.1458 1177.89 68.5 1177.89C68.9427 1177.89 69.3333 1177.8 69.6719 1177.61C70.0104 1177.42 70.2786 1177.19 70.4766 1176.92C70.6797 1176.65 70.7891 1176.39 70.8047 1176.13L71.4219 1176.83C71.3854 1177.05 71.2865 1177.29 71.125 1177.55C70.9635 1177.82 70.7474 1178.08 70.4766 1178.32C70.2109 1178.56 69.8932 1178.76 69.5234 1178.92C69.1589 1179.08 68.7474 1179.16 68.2891 1179.16C67.7161 1179.16 67.2135 1179.04 66.7812 1178.82C66.3542 1178.6 66.0208 1178.3 65.7812 1177.92C65.5469 1177.54 65.4297 1177.12 65.4297 1176.65C65.4297 1176.2 65.5182 1175.8 65.6953 1175.45C65.8724 1175.1 66.1276 1174.82 66.4609 1174.59C66.7943 1174.35 67.1953 1174.17 67.6641 1174.05C68.1328 1173.93 68.6562 1173.88 69.2344 1173.88H70.9141ZM76.6328 1178.12L78.9844 1170.55H80.5312L77.1406 1180.3C77.0625 1180.51 76.9583 1180.74 76.8281 1180.98C76.7031 1181.22 76.5417 1181.45 76.3438 1181.67C76.1458 1181.89 75.9062 1182.07 75.625 1182.2C75.349 1182.34 75.0182 1182.41 74.6328 1182.41C74.5182 1182.41 74.3724 1182.4 74.1953 1182.37C74.0182 1182.34 73.8932 1182.31 73.8203 1182.29L73.8125 1181.12C73.8542 1181.12 73.9193 1181.13 74.0078 1181.13C74.1016 1181.14 74.1667 1181.15 74.2031 1181.15C74.5312 1181.15 74.8099 1181.1 75.0391 1181.02C75.2682 1180.93 75.4609 1180.79 75.6172 1180.59C75.7786 1180.39 75.9167 1180.11 76.0312 1179.77L76.6328 1178.12ZM74.9062 1170.55L77.1016 1177.11L77.4766 1178.63L76.4375 1179.16L73.3281 1170.55H74.9062ZM90.7266 1176.76C90.7266 1176.55 90.6797 1176.36 90.5859 1176.18C90.4974 1176 90.3125 1175.83 90.0312 1175.69C89.7552 1175.54 89.3385 1175.41 88.7812 1175.3C88.3125 1175.2 87.888 1175.08 87.5078 1174.95C87.1328 1174.81 86.8125 1174.65 86.5469 1174.45C86.2865 1174.26 86.0859 1174.03 85.9453 1173.77C85.8047 1173.51 85.7344 1173.21 85.7344 1172.86C85.7344 1172.53 85.8073 1172.21 85.9531 1171.91C86.1042 1171.62 86.3151 1171.35 86.5859 1171.12C86.862 1170.9 87.1927 1170.72 87.5781 1170.59C87.9635 1170.46 88.3932 1170.39 88.8672 1170.39C89.5443 1170.39 90.1224 1170.51 90.6016 1170.75C91.0807 1170.99 91.4479 1171.31 91.7031 1171.71C91.9583 1172.11 92.0859 1172.55 92.0859 1173.03H90.6406C90.6406 1172.8 90.5703 1172.57 90.4297 1172.35C90.2943 1172.13 90.0938 1171.94 89.8281 1171.8C89.5677 1171.65 89.2474 1171.58 88.8672 1171.58C88.4661 1171.58 88.1406 1171.64 87.8906 1171.77C87.6458 1171.89 87.4661 1172.04 87.3516 1172.23C87.2422 1172.41 87.1875 1172.61 87.1875 1172.82C87.1875 1172.98 87.2135 1173.12 87.2656 1173.24C87.3229 1173.36 87.4219 1173.47 87.5625 1173.58C87.7031 1173.68 87.901 1173.77 88.1562 1173.86C88.4115 1173.95 88.737 1174.04 89.1328 1174.12C89.8255 1174.28 90.3958 1174.47 90.8438 1174.69C91.2917 1174.91 91.625 1175.17 91.8438 1175.49C92.0625 1175.81 92.1719 1176.2 92.1719 1176.65C92.1719 1177.02 92.0938 1177.36 91.9375 1177.66C91.7865 1177.97 91.5651 1178.24 91.2734 1178.46C90.987 1178.68 90.6432 1178.85 90.2422 1178.98C89.8464 1179.1 89.401 1179.16 88.9062 1179.16C88.1615 1179.16 87.5312 1179.02 87.0156 1178.76C86.5 1178.49 86.1094 1178.15 85.8438 1177.73C85.5781 1177.3 85.4453 1176.86 85.4453 1176.39H86.8984C86.9193 1176.79 87.0339 1177.1 87.2422 1177.34C87.4505 1177.57 87.7057 1177.73 88.0078 1177.83C88.3099 1177.92 88.6094 1177.97 88.9062 1177.97C89.3021 1177.97 89.6328 1177.92 89.8984 1177.81C90.1693 1177.71 90.375 1177.57 90.5156 1177.38C90.6562 1177.2 90.7266 1176.99 90.7266 1176.76ZM97.6094 1170.55V1171.66H93.0391V1170.55H97.6094ZM94.5859 1168.49H96.0312V1176.91C96.0312 1177.19 96.0755 1177.41 96.1641 1177.55C96.2526 1177.7 96.3672 1177.8 96.5078 1177.84C96.6484 1177.89 96.7995 1177.91 96.9609 1177.91C97.0807 1177.91 97.2057 1177.9 97.3359 1177.88C97.4714 1177.86 97.5729 1177.84 97.6406 1177.82L97.6484 1179C97.5339 1179.04 97.3828 1179.07 97.1953 1179.1C97.013 1179.14 96.7917 1179.16 96.5312 1179.16C96.1771 1179.16 95.8516 1179.09 95.5547 1178.95C95.2578 1178.8 95.0208 1178.57 94.8438 1178.24C94.6719 1177.91 94.5859 1177.46 94.5859 1176.9V1168.49ZM98.7656 1174.87V1174.69C98.7656 1174.08 98.8542 1173.51 99.0312 1172.99C99.2083 1172.47 99.4635 1172.01 99.7969 1171.62C100.13 1171.23 100.534 1170.93 101.008 1170.72C101.482 1170.5 102.013 1170.39 102.602 1170.39C103.195 1170.39 103.729 1170.5 104.203 1170.72C104.682 1170.93 105.089 1171.23 105.422 1171.62C105.76 1172.01 106.018 1172.47 106.195 1172.99C106.372 1173.51 106.461 1174.08 106.461 1174.69V1174.87C106.461 1175.48 106.372 1176.04 106.195 1176.56C106.018 1177.08 105.76 1177.54 105.422 1177.93C105.089 1178.32 104.685 1178.62 104.211 1178.84C103.742 1179.05 103.211 1179.16 102.617 1179.16C102.023 1179.16 101.49 1179.05 101.016 1178.84C100.542 1178.62 100.135 1178.32 99.7969 1177.93C99.4635 1177.54 99.2083 1177.08 99.0312 1176.56C98.8542 1176.04 98.7656 1175.48 98.7656 1174.87ZM100.211 1174.69V1174.87C100.211 1175.29 100.26 1175.69 100.359 1176.06C100.458 1176.43 100.607 1176.76 100.805 1177.05C101.008 1177.33 101.26 1177.56 101.562 1177.73C101.865 1177.89 102.216 1177.97 102.617 1177.97C103.013 1177.97 103.359 1177.89 103.656 1177.73C103.958 1177.56 104.208 1177.33 104.406 1177.05C104.604 1176.76 104.753 1176.43 104.852 1176.06C104.956 1175.69 105.008 1175.29 105.008 1174.87V1174.69C105.008 1174.27 104.956 1173.88 104.852 1173.51C104.753 1173.13 104.602 1172.8 104.398 1172.52C104.201 1172.22 103.951 1171.99 103.648 1171.83C103.352 1171.66 103.003 1171.58 102.602 1171.58C102.206 1171.58 101.857 1171.66 101.555 1171.83C101.258 1171.99 101.008 1172.22 100.805 1172.52C100.607 1172.8 100.458 1173.13 100.359 1173.51C100.26 1173.88 100.211 1174.27 100.211 1174.69ZM109.719 1171.88V1179H108.273V1170.55H109.68L109.719 1171.88ZM112.359 1170.5L112.352 1171.84C112.232 1171.82 112.117 1171.8 112.008 1171.8C111.904 1171.79 111.784 1171.78 111.648 1171.78C111.315 1171.78 111.021 1171.83 110.766 1171.94C110.51 1172.04 110.294 1172.19 110.117 1172.38C109.94 1172.56 109.799 1172.79 109.695 1173.05C109.596 1173.3 109.531 1173.58 109.5 1173.89L109.094 1174.12C109.094 1173.61 109.143 1173.14 109.242 1172.69C109.346 1172.24 109.505 1171.84 109.719 1171.5C109.932 1171.15 110.203 1170.88 110.531 1170.69C110.865 1170.49 111.26 1170.39 111.719 1170.39C111.823 1170.39 111.943 1170.4 112.078 1170.43C112.214 1170.45 112.307 1170.47 112.359 1170.5ZM117.047 1179.16C116.458 1179.16 115.924 1179.06 115.445 1178.86C114.971 1178.66 114.562 1178.37 114.219 1178.01C113.88 1177.64 113.62 1177.21 113.438 1176.71C113.255 1176.21 113.164 1175.66 113.164 1175.07V1174.74C113.164 1174.05 113.266 1173.44 113.469 1172.91C113.672 1172.36 113.948 1171.91 114.297 1171.53C114.646 1171.16 115.042 1170.87 115.484 1170.68C115.927 1170.49 116.385 1170.39 116.859 1170.39C117.464 1170.39 117.984 1170.49 118.422 1170.7C118.865 1170.91 119.227 1171.2 119.508 1171.58C119.789 1171.95 119.997 1172.39 120.133 1172.89C120.268 1173.39 120.336 1173.94 120.336 1174.53V1175.18H114.023V1174H118.891V1173.89C118.87 1173.52 118.792 1173.15 118.656 1172.8C118.526 1172.44 118.318 1172.15 118.031 1171.92C117.745 1171.69 117.354 1171.58 116.859 1171.58C116.531 1171.58 116.229 1171.65 115.953 1171.79C115.677 1171.92 115.44 1172.13 115.242 1172.4C115.044 1172.67 114.891 1173 114.781 1173.39C114.672 1173.78 114.617 1174.23 114.617 1174.74V1175.07C114.617 1175.47 114.672 1175.85 114.781 1176.2C114.896 1176.55 115.06 1176.86 115.273 1177.12C115.492 1177.39 115.755 1177.6 116.062 1177.75C116.375 1177.9 116.729 1177.98 117.125 1177.98C117.635 1177.98 118.068 1177.87 118.422 1177.66C118.776 1177.46 119.086 1177.18 119.352 1176.83L120.227 1177.52C120.044 1177.8 119.812 1178.06 119.531 1178.31C119.25 1178.56 118.904 1178.77 118.492 1178.92C118.086 1179.08 117.604 1179.16 117.047 1179.16Z" fill="black"/>
<path d="M66.6172 11.5078V3.625H68.9531V11.5078C68.9531 12.2682 68.7865 12.9219 68.4531 13.4688C68.1198 14.0104 67.6641 14.4271 67.0859 14.7188C66.513 15.0104 65.8672 15.1562 65.1484 15.1562C64.4036 15.1562 63.7448 15.0312 63.1719 14.7812C62.599 14.5312 62.1484 14.1484 61.8203 13.6328C61.4922 13.112 61.3281 12.4531 61.3281 11.6562H63.6797C63.6797 12.0729 63.737 12.4036 63.8516 12.6484C63.9714 12.8932 64.1406 13.0677 64.3594 13.1719C64.5781 13.276 64.8411 13.3281 65.1484 13.3281C65.4453 13.3281 65.7031 13.2578 65.9219 13.1172C66.1406 12.9766 66.3099 12.7708 66.4297 12.5C66.5547 12.2292 66.6172 11.8984 66.6172 11.5078ZM75.375 13.0938V9.32812C75.375 9.05729 75.3307 8.82552 75.2422 8.63281C75.1536 8.4349 75.0156 8.28125 74.8281 8.17188C74.6458 8.0625 74.4089 8.00781 74.1172 8.00781C73.8672 8.00781 73.651 8.05208 73.4688 8.14062C73.2865 8.22396 73.1458 8.34635 73.0469 8.50781C72.9479 8.66406 72.8984 8.84896 72.8984 9.0625H70.6484C70.6484 8.70312 70.7318 8.36198 70.8984 8.03906C71.0651 7.71615 71.3073 7.43229 71.625 7.1875C71.9427 6.9375 72.3203 6.74219 72.7578 6.60156C73.2005 6.46094 73.6953 6.39062 74.2422 6.39062C74.8984 6.39062 75.4818 6.5 75.9922 6.71875C76.5026 6.9375 76.9036 7.26562 77.1953 7.70312C77.4922 8.14062 77.6406 8.6875 77.6406 9.34375V12.9609C77.6406 13.4245 77.6693 13.8047 77.7266 14.1016C77.7839 14.3932 77.8672 14.6484 77.9766 14.8672V15H75.7031C75.5938 14.7708 75.5104 14.4844 75.4531 14.1406C75.401 13.7917 75.375 13.4427 75.375 13.0938ZM75.6719 9.85156L75.6875 11.125H74.4297C74.1328 11.125 73.875 11.1589 73.6562 11.2266C73.4375 11.2943 73.2578 11.3906 73.1172 11.5156C72.9766 11.6354 72.8724 11.776 72.8047 11.9375C72.7422 12.099 72.7109 12.276 72.7109 12.4688C72.7109 12.6615 72.7552 12.8359 72.8438 12.9922C72.9323 13.1432 73.0599 13.263 73.2266 13.3516C73.3932 13.4349 73.5885 13.4766 73.8125 13.4766C74.151 13.4766 74.4453 13.4089 74.6953 13.2734C74.9453 13.138 75.138 12.9714 75.2734 12.7734C75.4141 12.5755 75.487 12.388 75.4922 12.2109L76.0859 13.1641C76.0026 13.3776 75.888 13.599 75.7422 13.8281C75.6016 14.0573 75.4219 14.2734 75.2031 14.4766C74.9844 14.6745 74.7214 14.8385 74.4141 14.9688C74.1068 15.0938 73.7422 15.1562 73.3203 15.1562C72.7839 15.1562 72.2969 15.0495 71.8594 14.8359C71.4271 14.6172 71.0833 14.3177 70.8281 13.9375C70.5781 13.5521 70.4531 13.1146 70.4531 12.625C70.4531 12.1823 70.5365 11.7891 70.7031 11.4453C70.8698 11.1016 71.1146 10.8125 71.4375 10.5781C71.7656 10.3385 72.1745 10.1589 72.6641 10.0391C73.1536 9.91406 73.7214 9.85156 74.3672 9.85156H75.6719ZM81.5781 8.35156V15H79.3281V6.54688H81.4375L81.5781 8.35156ZM81.25 10.4766H80.6406C80.6406 9.85156 80.7214 9.28906 80.8828 8.78906C81.0443 8.28385 81.2708 7.85417 81.5625 7.5C81.8542 7.14062 82.2005 6.86719 82.6016 6.67969C83.0078 6.48698 83.4609 6.39062 83.9609 6.39062C84.3568 6.39062 84.7188 6.44792 85.0469 6.5625C85.375 6.67708 85.6562 6.85938 85.8906 7.10938C86.1302 7.35938 86.3125 7.6901 86.4375 8.10156C86.5677 8.51302 86.6328 9.01562 86.6328 9.60938V15H84.3672V9.60156C84.3672 9.22656 84.3151 8.9349 84.2109 8.72656C84.1068 8.51823 83.9531 8.3724 83.75 8.28906C83.5521 8.20052 83.3073 8.15625 83.0156 8.15625C82.7135 8.15625 82.4505 8.21615 82.2266 8.33594C82.0078 8.45573 81.8255 8.6224 81.6797 8.83594C81.5391 9.04427 81.4323 9.28906 81.3594 9.57031C81.2865 9.85156 81.25 10.1536 81.25 10.4766ZM99.8984 11.8828C99.8984 12.5964 99.7318 13.1979 99.3984 13.6875C99.0651 14.1719 98.6068 14.5391 98.0234 14.7891C97.4453 15.0339 96.7891 15.1562 96.0547 15.1562C95.3203 15.1562 94.6615 15.0339 94.0781 14.7891C93.4948 14.5391 93.0339 14.1719 92.6953 13.6875C92.3568 13.1979 92.1875 12.5964 92.1875 11.8828C92.1875 11.4036 92.2839 10.9714 92.4766 10.5859C92.6693 10.1953 92.9375 9.86198 93.2812 9.58594C93.6302 9.30469 94.0391 9.09115 94.5078 8.94531C94.9766 8.79427 95.487 8.71875 96.0391 8.71875C96.7786 8.71875 97.4401 8.84896 98.0234 9.10938C98.6068 9.36979 99.0651 9.73698 99.3984 10.2109C99.7318 10.6849 99.8984 11.2422 99.8984 11.8828ZM97.6328 11.7344C97.6328 11.3854 97.5651 11.0859 97.4297 10.8359C97.2995 10.5807 97.1146 10.3854 96.875 10.25C96.6354 10.1146 96.3568 10.0469 96.0391 10.0469C95.7214 10.0469 95.4427 10.1146 95.2031 10.25C94.9635 10.3854 94.776 10.5807 94.6406 10.8359C94.5104 11.0859 94.4453 11.3854 94.4453 11.7344C94.4453 12.0781 94.5104 12.375 94.6406 12.625C94.776 12.875 94.9635 13.0677 95.2031 13.2031C95.4479 13.3333 95.7318 13.3984 96.0547 13.3984C96.3776 13.3984 96.6562 13.3333 96.8906 13.2031C97.1302 13.0677 97.3125 12.875 97.4375 12.625C97.5677 12.375 97.6328 12.0781 97.6328 11.7344ZM99.6562 6.64062C99.6562 7.21875 99.5026 7.73177 99.1953 8.17969C98.888 8.6224 98.4609 8.96875 97.9141 9.21875C97.3724 9.46875 96.7526 9.59375 96.0547 9.59375C95.3516 9.59375 94.7266 9.46875 94.1797 9.21875C93.6328 8.96875 93.2057 8.6224 92.8984 8.17969C92.5911 7.73177 92.4375 7.21875 92.4375 6.64062C92.4375 5.95312 92.5911 5.375 92.8984 4.90625C93.2109 4.43229 93.638 4.07292 94.1797 3.82812C94.7266 3.58333 95.3464 3.46094 96.0391 3.46094C96.7422 3.46094 97.3646 3.58333 97.9062 3.82812C98.4531 4.07292 98.8802 4.43229 99.1875 4.90625C99.5 5.375 99.6562 5.95312 99.6562 6.64062ZM97.4062 6.74219C97.4062 6.4349 97.3516 6.16927 97.2422 5.94531C97.1328 5.71615 96.9766 5.53906 96.7734 5.41406C96.5755 5.28906 96.3307 5.22656 96.0391 5.22656C95.7578 5.22656 95.5156 5.28646 95.3125 5.40625C95.1146 5.52604 94.9609 5.70052 94.8516 5.92969C94.7474 6.15365 94.6953 6.42448 94.6953 6.74219C94.6953 7.04948 94.7474 7.32031 94.8516 7.55469C94.9609 7.78385 95.1172 7.96354 95.3203 8.09375C95.5234 8.22396 95.7682 8.28906 96.0547 8.28906C96.3411 8.28906 96.5833 8.22396 96.7812 8.09375C96.9844 7.96354 97.138 7.78385 97.2422 7.55469C97.3516 7.32031 97.4062 7.04948 97.4062 6.74219ZM63.9375 25.625V37H62.4297V25.625H63.9375ZM71.7891 35.3594V25H73.2422V37H71.9141L71.7891 35.3594ZM66.1016 32.8672V32.7031C66.1016 32.0573 66.1797 31.4714 66.3359 30.9453C66.4974 30.4141 66.724 29.9583 67.0156 29.5781C67.3125 29.1979 67.6641 28.9062 68.0703 28.7031C68.4818 28.4948 68.9401 28.3906 69.4453 28.3906C69.9766 28.3906 70.4401 28.4844 70.8359 28.6719C71.237 28.8542 71.5755 29.1224 71.8516 29.4766C72.1328 29.8255 72.3542 30.2474 72.5156 30.7422C72.6771 31.237 72.7891 31.7969 72.8516 32.4219V33.1406C72.7943 33.7604 72.6823 34.3177 72.5156 34.8125C72.3542 35.3073 72.1328 35.7292 71.8516 36.0781C71.5755 36.4271 71.237 36.6953 70.8359 36.8828C70.4349 37.0651 69.9661 37.1562 69.4297 37.1562C68.9349 37.1562 68.4818 37.0495 68.0703 36.8359C67.6641 36.6224 67.3125 36.3229 67.0156 35.9375C66.724 35.5521 66.4974 35.099 66.3359 34.5781C66.1797 34.0521 66.1016 33.4818 66.1016 32.8672ZM67.5547 32.7031V32.8672C67.5547 33.2891 67.5964 33.6849 67.6797 34.0547C67.7682 34.4245 67.9036 34.75 68.0859 35.0312C68.2682 35.3125 68.5 35.5339 68.7812 35.6953C69.0625 35.8516 69.3984 35.9297 69.7891 35.9297C70.2682 35.9297 70.6615 35.8281 70.9688 35.625C71.2812 35.4219 71.5312 35.1536 71.7188 34.8203C71.9062 34.487 72.0521 34.125 72.1562 33.7344V31.8516C72.0938 31.5651 72.0026 31.2891 71.8828 31.0234C71.7682 30.7526 71.6172 30.513 71.4297 30.3047C71.2474 30.0911 71.0208 29.9219 70.75 29.7969C70.4844 29.6719 70.1693 29.6094 69.8047 29.6094C69.4089 29.6094 69.0677 29.6927 68.7812 29.8594C68.5 30.0208 68.2682 30.2448 68.0859 30.5312C67.9036 30.8125 67.7682 31.1406 67.6797 31.5156C67.5964 31.8854 67.5547 32.2812 67.5547 32.7031ZM79 37.1562C78.4115 37.1562 77.8776 37.0573 77.3984 36.8594C76.9245 36.6562 76.5156 36.3724 76.1719 36.0078C75.8333 35.6432 75.5729 35.2109 75.3906 34.7109C75.2083 34.2109 75.1172 33.6641 75.1172 33.0703V32.7422C75.1172 32.0547 75.2188 31.4427 75.4219 30.9062C75.625 30.3646 75.901 29.9062 76.25 29.5312C76.599 29.1562 76.9948 28.8724 77.4375 28.6797C77.8802 28.487 78.3385 28.3906 78.8125 28.3906C79.4167 28.3906 79.9375 28.4948 80.375 28.7031C80.8177 28.9115 81.1797 29.2031 81.4609 29.5781C81.7422 29.9479 81.9505 30.3854 82.0859 30.8906C82.2214 31.3906 82.2891 31.9375 82.2891 32.5312V33.1797H75.9766V32H80.8438V31.8906C80.8229 31.5156 80.7448 31.151 80.6094 30.7969C80.4792 30.4427 80.2708 30.151 79.9844 29.9219C79.6979 29.6927 79.3073 29.5781 78.8125 29.5781C78.4844 29.5781 78.1823 29.6484 77.9062 29.7891C77.6302 29.9245 77.3932 30.1276 77.1953 30.3984C76.9974 30.6693 76.8438 31 76.7344 31.3906C76.625 31.7812 76.5703 32.2318 76.5703 32.7422V33.0703C76.5703 33.4714 76.625 33.849 76.7344 34.2031C76.849 34.5521 77.013 34.8594 77.2266 35.125C77.4453 35.3906 77.7083 35.599 78.0156 35.75C78.3281 35.901 78.6823 35.9766 79.0781 35.9766C79.5885 35.9766 80.0208 35.8724 80.375 35.6641C80.7292 35.4557 81.0391 35.1771 81.3047 34.8281L82.1797 35.5234C81.9974 35.7995 81.7656 36.0625 81.4844 36.3125C81.2031 36.5625 80.8568 36.7656 80.4453 36.9219C80.0391 37.0781 79.5573 37.1562 79 37.1562ZM88.9609 35.5547V31.2031C88.9609 30.8698 88.8932 30.5807 88.7578 30.3359C88.6276 30.0859 88.4297 29.8932 88.1641 29.7578C87.8984 29.6224 87.5703 29.5547 87.1797 29.5547C86.8151 29.5547 86.4948 29.6172 86.2188 29.7422C85.9479 29.8672 85.7344 30.0312 85.5781 30.2344C85.4271 30.4375 85.3516 30.6562 85.3516 30.8906H83.9062C83.9062 30.5885 83.9844 30.2891 84.1406 29.9922C84.2969 29.6953 84.5208 29.4271 84.8125 29.1875C85.1094 28.9427 85.4635 28.75 85.875 28.6094C86.2917 28.4635 86.7552 28.3906 87.2656 28.3906C87.8802 28.3906 88.4219 28.4948 88.8906 28.7031C89.3646 28.9115 89.7344 29.2266 90 29.6484C90.2708 30.0651 90.4062 30.5885 90.4062 31.2188V35.1562C90.4062 35.4375 90.4297 35.737 90.4766 36.0547C90.5286 36.3724 90.6042 36.6458 90.7031 36.875V37H89.1953C89.1224 36.8333 89.0651 36.612 89.0234 36.3359C88.9818 36.0547 88.9609 35.7943 88.9609 35.5547ZM89.2109 31.875L89.2266 32.8906H87.7656C87.3542 32.8906 86.987 32.9245 86.6641 32.9922C86.3411 33.0547 86.0703 33.151 85.8516 33.2812C85.6328 33.4115 85.4661 33.5755 85.3516 33.7734C85.237 33.9661 85.1797 34.1927 85.1797 34.4531C85.1797 34.7188 85.2396 34.9609 85.3594 35.1797C85.4792 35.3984 85.6589 35.5729 85.8984 35.7031C86.1432 35.8281 86.4427 35.8906 86.7969 35.8906C87.2396 35.8906 87.6302 35.7969 87.9688 35.6094C88.3073 35.4219 88.5755 35.1927 88.7734 34.9219C88.9766 34.651 89.0859 34.388 89.1016 34.1328L89.7188 34.8281C89.6823 35.0469 89.5833 35.2891 89.4219 35.5547C89.2604 35.8203 89.0443 36.0755 88.7734 36.3203C88.5078 36.5599 88.1901 36.7604 87.8203 36.9219C87.4557 37.0781 87.0443 37.1562 86.5859 37.1562C86.013 37.1562 85.5104 37.0443 85.0781 36.8203C84.651 36.5964 84.3177 36.2969 84.0781 35.9219C83.8438 35.5417 83.7266 35.1172 83.7266 34.6484C83.7266 34.1953 83.8151 33.7969 83.9922 33.4531C84.1693 33.1042 84.4245 32.8151 84.7578 32.5859C85.0911 32.3516 85.4922 32.1745 85.9609 32.0547C86.4297 31.9349 86.9531 31.875 87.5312 31.875H89.2109ZM96.2188 28.5469V29.6562H91.6484V28.5469H96.2188ZM93.1953 26.4922H94.6406V34.9062C94.6406 35.1927 94.6849 35.4089 94.7734 35.5547C94.862 35.7005 94.9766 35.7969 95.1172 35.8438C95.2578 35.8906 95.4089 35.9141 95.5703 35.9141C95.6901 35.9141 95.8151 35.9036 95.9453 35.8828C96.0807 35.8568 96.1823 35.8359 96.25 35.8203L96.2578 37C96.1432 37.0365 95.9922 37.0703 95.8047 37.1016C95.6224 37.138 95.401 37.1562 95.1406 37.1562C94.7865 37.1562 94.4609 37.0859 94.1641 36.9453C93.8672 36.8047 93.6302 36.5703 93.4531 36.2422C93.2812 35.9089 93.1953 35.4609 93.1953 34.8984V26.4922ZM99.4844 28.5469V37H98.0312V28.5469H99.4844ZM97.9219 26.3047C97.9219 26.0703 97.9922 25.8724 98.1328 25.7109C98.2786 25.5495 98.4922 25.4688 98.7734 25.4688C99.0495 25.4688 99.2604 25.5495 99.4062 25.7109C99.5573 25.8724 99.6328 26.0703 99.6328 26.3047C99.6328 26.5286 99.5573 26.7214 99.4062 26.8828C99.2604 27.0391 99.0495 27.1172 98.7734 27.1172C98.4922 27.1172 98.2786 27.0391 98.1328 26.8828C97.9922 26.7214 97.9219 26.5286 97.9219 26.3047ZM101.422 32.8672V32.6875C101.422 32.0781 101.51 31.513 101.688 30.9922C101.865 30.4661 102.12 30.0104 102.453 29.625C102.786 29.2344 103.19 28.9323 103.664 28.7188C104.138 28.5 104.669 28.3906 105.258 28.3906C105.852 28.3906 106.385 28.5 106.859 28.7188C107.339 28.9323 107.745 29.2344 108.078 29.625C108.417 30.0104 108.674 30.4661 108.852 30.9922C109.029 31.513 109.117 32.0781 109.117 32.6875V32.8672C109.117 33.4766 109.029 34.0417 108.852 34.5625C108.674 35.0833 108.417 35.5391 108.078 35.9297C107.745 36.3151 107.341 36.6172 106.867 36.8359C106.398 37.0495 105.867 37.1562 105.273 37.1562C104.68 37.1562 104.146 37.0495 103.672 36.8359C103.198 36.6172 102.792 36.3151 102.453 35.9297C102.12 35.5391 101.865 35.0833 101.688 34.5625C101.51 34.0417 101.422 33.4766 101.422 32.8672ZM102.867 32.6875V32.8672C102.867 33.2891 102.917 33.6875 103.016 34.0625C103.115 34.4323 103.263 34.7604 103.461 35.0469C103.664 35.3333 103.917 35.5599 104.219 35.7266C104.521 35.888 104.872 35.9688 105.273 35.9688C105.669 35.9688 106.016 35.888 106.312 35.7266C106.615 35.5599 106.865 35.3333 107.062 35.0469C107.26 34.7604 107.409 34.4323 107.508 34.0625C107.612 33.6875 107.664 33.2891 107.664 32.8672V32.6875C107.664 32.2708 107.612 31.8776 107.508 31.5078C107.409 31.1328 107.258 30.8021 107.055 30.5156C106.857 30.224 106.607 29.9948 106.305 29.8281C106.008 29.6615 105.659 29.5781 105.258 29.5781C104.862 29.5781 104.513 29.6615 104.211 29.8281C103.914 29.9948 103.664 30.224 103.461 30.5156C103.263 30.8021 103.115 31.1328 103.016 31.5078C102.917 31.8776 102.867 32.2708 102.867 32.6875ZM112.375 30.3516V37H110.93V28.5469H112.297L112.375 30.3516ZM112.031 32.4531L111.43 32.4297C111.435 31.8516 111.521 31.3177 111.688 30.8281C111.854 30.3333 112.089 29.9036 112.391 29.5391C112.693 29.1745 113.052 28.8932 113.469 28.6953C113.891 28.4922 114.357 28.3906 114.867 28.3906C115.284 28.3906 115.659 28.4479 115.992 28.5625C116.326 28.6719 116.609 28.849 116.844 29.0938C117.083 29.3385 117.266 29.6562 117.391 30.0469C117.516 30.4323 117.578 30.9036 117.578 31.4609V37H116.125V31.4453C116.125 31.0026 116.06 30.6484 115.93 30.3828C115.799 30.112 115.609 29.9167 115.359 29.7969C115.109 29.6719 114.802 29.6094 114.438 29.6094C114.078 29.6094 113.75 29.6849 113.453 29.8359C113.161 29.987 112.909 30.1953 112.695 30.4609C112.487 30.7266 112.323 31.0312 112.203 31.375C112.089 31.7135 112.031 32.0729 112.031 32.4531Z" fill="black"/>
</svg>
